G04 #@! TF.GenerationSoftware,KiCad,Pcbnew,(5.1.2)-1*
G04 #@! TF.CreationDate,2019-07-28T17:54:04+02:00*
G04 #@! TF.ProjectId,qqv11,71717631-312e-46b6-9963-61645f706362,rev?*
G04 #@! TF.SameCoordinates,Original*
G04 #@! TF.FileFunction,Soldermask,Bot*
G04 #@! TF.FilePolarity,Negative*
%FSLAX46Y46*%
G04 Gerber Fmt 4.6, Leading zero omitted, Abs format (unit mm)*
G04 Created by KiCad (PCBNEW (5.1.2)-1) date 2019-07-28 17:54:04*
%MOMM*%
%LPD*%
G04 APERTURE LIST*
%ADD10C,0.100000*%
G04 APERTURE END LIST*
D10*
G36*
X120027067Y-124989332D02*
G01*
X120214165Y-125046087D01*
X120386584Y-125138247D01*
X120537719Y-125262281D01*
X120661753Y-125413416D01*
X120753913Y-125585835D01*
X120810668Y-125772933D01*
X120830000Y-125969214D01*
X120830000Y-128030786D01*
X120810668Y-128227067D01*
X120753913Y-128414165D01*
X120661753Y-128586584D01*
X120537719Y-128737719D01*
X120386584Y-128861753D01*
X120214165Y-128953913D01*
X120027067Y-129010668D01*
X119830786Y-129030000D01*
X117769214Y-129030000D01*
X117572933Y-129010668D01*
X117385835Y-128953913D01*
X117213416Y-128861753D01*
X117062281Y-128737719D01*
X116938247Y-128586584D01*
X116846087Y-128414165D01*
X116789332Y-128227067D01*
X116770000Y-128030786D01*
X116770000Y-125969214D01*
X116789332Y-125772933D01*
X116846087Y-125585835D01*
X116938247Y-125413416D01*
X117062281Y-125262281D01*
X117213416Y-125138247D01*
X117385835Y-125046087D01*
X117572933Y-124989332D01*
X117769214Y-124970000D01*
X119830786Y-124970000D01*
X120027067Y-124989332D01*
X120027067Y-124989332D01*
G37*
G36*
X115027067Y-124989332D02*
G01*
X115214165Y-125046087D01*
X115386584Y-125138247D01*
X115537719Y-125262281D01*
X115661753Y-125413416D01*
X115753913Y-125585835D01*
X115810668Y-125772933D01*
X115830000Y-125969214D01*
X115830000Y-128030786D01*
X115810668Y-128227067D01*
X115753913Y-128414165D01*
X115661753Y-128586584D01*
X115537719Y-128737719D01*
X115386584Y-128861753D01*
X115214165Y-128953913D01*
X115027067Y-129010668D01*
X114830786Y-129030000D01*
X112769214Y-129030000D01*
X112572933Y-129010668D01*
X112385835Y-128953913D01*
X112213416Y-128861753D01*
X112062281Y-128737719D01*
X111938247Y-128586584D01*
X111846087Y-128414165D01*
X111789332Y-128227067D01*
X111770000Y-128030786D01*
X111770000Y-125969214D01*
X111789332Y-125772933D01*
X111846087Y-125585835D01*
X111938247Y-125413416D01*
X112062281Y-125262281D01*
X112213416Y-125138247D01*
X112385835Y-125046087D01*
X112572933Y-124989332D01*
X112769214Y-124970000D01*
X114830786Y-124970000D01*
X115027067Y-124989332D01*
X115027067Y-124989332D01*
G37*
G36*
X110303898Y-126102669D02*
G01*
X110384829Y-126127219D01*
X110403807Y-126132976D01*
X110485915Y-126176864D01*
X110495877Y-126182189D01*
X110576580Y-126248420D01*
X110642811Y-126329123D01*
X110642813Y-126329127D01*
X110692024Y-126421193D01*
X110692025Y-126421197D01*
X110722331Y-126521102D01*
X110730000Y-126598967D01*
X110730000Y-127201033D01*
X110722331Y-127278898D01*
X110697781Y-127359829D01*
X110692024Y-127378807D01*
X110648136Y-127460915D01*
X110642811Y-127470877D01*
X110576580Y-127551580D01*
X110495877Y-127617811D01*
X110495873Y-127617813D01*
X110403806Y-127667024D01*
X110384828Y-127672781D01*
X110303897Y-127697331D01*
X110200000Y-127707564D01*
X110096102Y-127697331D01*
X110015171Y-127672781D01*
X109996193Y-127667024D01*
X109904127Y-127617813D01*
X109904123Y-127617811D01*
X109823420Y-127551580D01*
X109757189Y-127470877D01*
X109751865Y-127460916D01*
X109707976Y-127378806D01*
X109702219Y-127359828D01*
X109677669Y-127278897D01*
X109670000Y-127201032D01*
X109670000Y-126598967D01*
X109677669Y-126521105D01*
X109707976Y-126421196D01*
X109724381Y-126390506D01*
X109757190Y-126329123D01*
X109823421Y-126248420D01*
X109904124Y-126182189D01*
X109914086Y-126176864D01*
X109996194Y-126132976D01*
X110015172Y-126127219D01*
X110096103Y-126102669D01*
X110200000Y-126092436D01*
X110303898Y-126102669D01*
X110303898Y-126102669D01*
G37*
G36*
X103303898Y-126102669D02*
G01*
X103384829Y-126127219D01*
X103403807Y-126132976D01*
X103485915Y-126176864D01*
X103495877Y-126182189D01*
X103576580Y-126248420D01*
X103642811Y-126329123D01*
X103642813Y-126329127D01*
X103692024Y-126421193D01*
X103692025Y-126421197D01*
X103722331Y-126521102D01*
X103730000Y-126598967D01*
X103730000Y-127201033D01*
X103722331Y-127278898D01*
X103697781Y-127359829D01*
X103692024Y-127378807D01*
X103648136Y-127460915D01*
X103642811Y-127470877D01*
X103576580Y-127551580D01*
X103495877Y-127617811D01*
X103495873Y-127617813D01*
X103403806Y-127667024D01*
X103384828Y-127672781D01*
X103303897Y-127697331D01*
X103200000Y-127707564D01*
X103096102Y-127697331D01*
X103015171Y-127672781D01*
X102996193Y-127667024D01*
X102904127Y-127617813D01*
X102904123Y-127617811D01*
X102823420Y-127551580D01*
X102757189Y-127470877D01*
X102751865Y-127460916D01*
X102707976Y-127378806D01*
X102702219Y-127359828D01*
X102677669Y-127278897D01*
X102670000Y-127201032D01*
X102670000Y-126598967D01*
X102677669Y-126521105D01*
X102707976Y-126421196D01*
X102724381Y-126390506D01*
X102757190Y-126329123D01*
X102823421Y-126248420D01*
X102904124Y-126182189D01*
X102914086Y-126176864D01*
X102996194Y-126132976D01*
X103015172Y-126127219D01*
X103096103Y-126102669D01*
X103200000Y-126092436D01*
X103303898Y-126102669D01*
X103303898Y-126102669D01*
G37*
G36*
X107580000Y-124905000D02*
G01*
X107120000Y-124905000D01*
X107120000Y-123495000D01*
X107580000Y-123495000D01*
X107580000Y-124905000D01*
X107580000Y-124905000D01*
G37*
G36*
X106930000Y-124905000D02*
G01*
X106470000Y-124905000D01*
X106470000Y-123495000D01*
X106930000Y-123495000D01*
X106930000Y-124905000D01*
X106930000Y-124905000D01*
G37*
G36*
X106280000Y-124905000D02*
G01*
X105820000Y-124905000D01*
X105820000Y-123495000D01*
X106280000Y-123495000D01*
X106280000Y-124905000D01*
X106280000Y-124905000D01*
G37*
G36*
X105630000Y-124905000D02*
G01*
X105170000Y-124905000D01*
X105170000Y-123495000D01*
X105630000Y-123495000D01*
X105630000Y-124905000D01*
X105630000Y-124905000D01*
G37*
G36*
X108230000Y-124905000D02*
G01*
X107770000Y-124905000D01*
X107770000Y-123495000D01*
X108230000Y-123495000D01*
X108230000Y-124905000D01*
X108230000Y-124905000D01*
G37*
G36*
X98330749Y-123674921D02*
G01*
X98377150Y-123688997D01*
X98419908Y-123711852D01*
X98457389Y-123742611D01*
X98488148Y-123780092D01*
X98511003Y-123822850D01*
X98525079Y-123869251D01*
X98530000Y-123919214D01*
X98530000Y-124480786D01*
X98525079Y-124530749D01*
X98511003Y-124577150D01*
X98488148Y-124619908D01*
X98457389Y-124657389D01*
X98419908Y-124688148D01*
X98377150Y-124711003D01*
X98330749Y-124725079D01*
X98280786Y-124730000D01*
X94919214Y-124730000D01*
X94869251Y-124725079D01*
X94822850Y-124711003D01*
X94780092Y-124688148D01*
X94742611Y-124657389D01*
X94711852Y-124619908D01*
X94688997Y-124577150D01*
X94674921Y-124530749D01*
X94670000Y-124480786D01*
X94670000Y-123919214D01*
X94674921Y-123869251D01*
X94688997Y-123822850D01*
X94711852Y-123780092D01*
X94742611Y-123742611D01*
X94780092Y-123711852D01*
X94822850Y-123688997D01*
X94869251Y-123674921D01*
X94919214Y-123670000D01*
X98280786Y-123670000D01*
X98330749Y-123674921D01*
X98330749Y-123674921D01*
G37*
G36*
X104393353Y-123696827D02*
G01*
X104448997Y-123702307D01*
X104544190Y-123731184D01*
X104613915Y-123768453D01*
X104631924Y-123778079D01*
X104708817Y-123841183D01*
X104771921Y-123918076D01*
X104771923Y-123918080D01*
X104818816Y-124005810D01*
X104847693Y-124101003D01*
X104857443Y-124200000D01*
X104847693Y-124298997D01*
X104818816Y-124394190D01*
X104781547Y-124463915D01*
X104771921Y-124481924D01*
X104708817Y-124558817D01*
X104631924Y-124621921D01*
X104631920Y-124621923D01*
X104544190Y-124668816D01*
X104448997Y-124697693D01*
X104393353Y-124703173D01*
X104374806Y-124705000D01*
X104025194Y-124705000D01*
X104006647Y-124703173D01*
X103951003Y-124697693D01*
X103855810Y-124668816D01*
X103768080Y-124621923D01*
X103768076Y-124621921D01*
X103691183Y-124558817D01*
X103628079Y-124481924D01*
X103618453Y-124463915D01*
X103581184Y-124394190D01*
X103552307Y-124298997D01*
X103542557Y-124200000D01*
X103552307Y-124101003D01*
X103581184Y-124005810D01*
X103628077Y-123918080D01*
X103628079Y-123918076D01*
X103691183Y-123841183D01*
X103768076Y-123778079D01*
X103786085Y-123768453D01*
X103855810Y-123731184D01*
X103951003Y-123702307D01*
X104006647Y-123696827D01*
X104025194Y-123695000D01*
X104374806Y-123695000D01*
X104393353Y-123696827D01*
X104393353Y-123696827D01*
G37*
G36*
X109393353Y-123696827D02*
G01*
X109448997Y-123702307D01*
X109544190Y-123731184D01*
X109613915Y-123768453D01*
X109631924Y-123778079D01*
X109708817Y-123841183D01*
X109771921Y-123918076D01*
X109771923Y-123918080D01*
X109818816Y-124005810D01*
X109847693Y-124101003D01*
X109857443Y-124200000D01*
X109847693Y-124298997D01*
X109818816Y-124394190D01*
X109781547Y-124463915D01*
X109771921Y-124481924D01*
X109708817Y-124558817D01*
X109631924Y-124621921D01*
X109631920Y-124621923D01*
X109544190Y-124668816D01*
X109448997Y-124697693D01*
X109393353Y-124703173D01*
X109374806Y-124705000D01*
X109025194Y-124705000D01*
X109006647Y-124703173D01*
X108951003Y-124697693D01*
X108855810Y-124668816D01*
X108768080Y-124621923D01*
X108768076Y-124621921D01*
X108691183Y-124558817D01*
X108628079Y-124481924D01*
X108618453Y-124463915D01*
X108581184Y-124394190D01*
X108552307Y-124298997D01*
X108542557Y-124200000D01*
X108552307Y-124101003D01*
X108581184Y-124005810D01*
X108628077Y-123918080D01*
X108628079Y-123918076D01*
X108691183Y-123841183D01*
X108768076Y-123778079D01*
X108786085Y-123768453D01*
X108855810Y-123731184D01*
X108951003Y-123702307D01*
X109006647Y-123696827D01*
X109025194Y-123695000D01*
X109374806Y-123695000D01*
X109393353Y-123696827D01*
X109393353Y-123696827D01*
G37*
G36*
X120027067Y-119989332D02*
G01*
X120214165Y-120046087D01*
X120386584Y-120138247D01*
X120537719Y-120262281D01*
X120661753Y-120413416D01*
X120753913Y-120585835D01*
X120810668Y-120772933D01*
X120830000Y-120969214D01*
X120830000Y-123030786D01*
X120810668Y-123227067D01*
X120753913Y-123414165D01*
X120661753Y-123586584D01*
X120537719Y-123737719D01*
X120386584Y-123861753D01*
X120214165Y-123953913D01*
X120027067Y-124010668D01*
X119830786Y-124030000D01*
X117769214Y-124030000D01*
X117572933Y-124010668D01*
X117385835Y-123953913D01*
X117213416Y-123861753D01*
X117062281Y-123737719D01*
X116938247Y-123586584D01*
X116846087Y-123414165D01*
X116789332Y-123227067D01*
X116770000Y-123030786D01*
X116770000Y-120969214D01*
X116789332Y-120772933D01*
X116846087Y-120585835D01*
X116938247Y-120413416D01*
X117062281Y-120262281D01*
X117213416Y-120138247D01*
X117385835Y-120046087D01*
X117572933Y-119989332D01*
X117769214Y-119970000D01*
X119830786Y-119970000D01*
X120027067Y-119989332D01*
X120027067Y-119989332D01*
G37*
G36*
X115027067Y-119989332D02*
G01*
X115214165Y-120046087D01*
X115386584Y-120138247D01*
X115537719Y-120262281D01*
X115661753Y-120413416D01*
X115753913Y-120585835D01*
X115810668Y-120772933D01*
X115830000Y-120969214D01*
X115830000Y-123030786D01*
X115810668Y-123227067D01*
X115753913Y-123414165D01*
X115661753Y-123586584D01*
X115537719Y-123737719D01*
X115386584Y-123861753D01*
X115214165Y-123953913D01*
X115027067Y-124010668D01*
X114830786Y-124030000D01*
X112769214Y-124030000D01*
X112572933Y-124010668D01*
X112385835Y-123953913D01*
X112213416Y-123861753D01*
X112062281Y-123737719D01*
X111938247Y-123586584D01*
X111846087Y-123414165D01*
X111789332Y-123227067D01*
X111770000Y-123030786D01*
X111770000Y-120969214D01*
X111789332Y-120772933D01*
X111846087Y-120585835D01*
X111938247Y-120413416D01*
X112062281Y-120262281D01*
X112213416Y-120138247D01*
X112385835Y-120046087D01*
X112572933Y-119989332D01*
X112769214Y-119970000D01*
X114830786Y-119970000D01*
X115027067Y-119989332D01*
X115027067Y-119989332D01*
G37*
G36*
X98330749Y-121274921D02*
G01*
X98377150Y-121288997D01*
X98419908Y-121311852D01*
X98457389Y-121342611D01*
X98488148Y-121380092D01*
X98511003Y-121422850D01*
X98525079Y-121469251D01*
X98530000Y-121519214D01*
X98530000Y-122080786D01*
X98525079Y-122130749D01*
X98511003Y-122177150D01*
X98488148Y-122219908D01*
X98457389Y-122257389D01*
X98419908Y-122288148D01*
X98377150Y-122311003D01*
X98330749Y-122325079D01*
X98280786Y-122330000D01*
X94919214Y-122330000D01*
X94869251Y-122325079D01*
X94822850Y-122311003D01*
X94780092Y-122288148D01*
X94742611Y-122257389D01*
X94711852Y-122219908D01*
X94688997Y-122177150D01*
X94674921Y-122130749D01*
X94670000Y-122080786D01*
X94670000Y-121519214D01*
X94674921Y-121469251D01*
X94688997Y-121422850D01*
X94711852Y-121380092D01*
X94742611Y-121342611D01*
X94780092Y-121311852D01*
X94822850Y-121288997D01*
X94869251Y-121274921D01*
X94919214Y-121270000D01*
X98280786Y-121270000D01*
X98330749Y-121274921D01*
X98330749Y-121274921D01*
G37*
G36*
X114129521Y-112679725D02*
G01*
X114222824Y-112708027D01*
X114308799Y-112753982D01*
X114384166Y-112815834D01*
X114446018Y-112891201D01*
X114491973Y-112977176D01*
X114520275Y-113070479D01*
X114530000Y-113169215D01*
X114530000Y-117230785D01*
X114520275Y-117329521D01*
X114491973Y-117422824D01*
X114446018Y-117508799D01*
X114384166Y-117584166D01*
X114308799Y-117646018D01*
X114222824Y-117691973D01*
X114129521Y-117720275D01*
X114030785Y-117730000D01*
X112969215Y-117730000D01*
X112870479Y-117720275D01*
X112777176Y-117691973D01*
X112691201Y-117646018D01*
X112615834Y-117584166D01*
X112553982Y-117508799D01*
X112508027Y-117422824D01*
X112479725Y-117329521D01*
X112470000Y-117230785D01*
X112470000Y-113169215D01*
X112479725Y-113070479D01*
X112508027Y-112977176D01*
X112553982Y-112891201D01*
X112615834Y-112815834D01*
X112691201Y-112753982D01*
X112777176Y-112708027D01*
X112870479Y-112679725D01*
X112969215Y-112670000D01*
X114030785Y-112670000D01*
X114129521Y-112679725D01*
X114129521Y-112679725D01*
G37*
G36*
X111629521Y-112679725D02*
G01*
X111722824Y-112708027D01*
X111808799Y-112753982D01*
X111884166Y-112815834D01*
X111946018Y-112891201D01*
X111991973Y-112977176D01*
X112020275Y-113070479D01*
X112030000Y-113169215D01*
X112030000Y-117230785D01*
X112020275Y-117329521D01*
X111991973Y-117422824D01*
X111946018Y-117508799D01*
X111884166Y-117584166D01*
X111808799Y-117646018D01*
X111722824Y-117691973D01*
X111629521Y-117720275D01*
X111530785Y-117730000D01*
X110469215Y-117730000D01*
X110370479Y-117720275D01*
X110277176Y-117691973D01*
X110191201Y-117646018D01*
X110115834Y-117584166D01*
X110053982Y-117508799D01*
X110008027Y-117422824D01*
X109979725Y-117329521D01*
X109970000Y-117230785D01*
X109970000Y-113169215D01*
X109979725Y-113070479D01*
X110008027Y-112977176D01*
X110053982Y-112891201D01*
X110115834Y-112815834D01*
X110191201Y-112753982D01*
X110277176Y-112708027D01*
X110370479Y-112679725D01*
X110469215Y-112670000D01*
X111530785Y-112670000D01*
X111629521Y-112679725D01*
X111629521Y-112679725D01*
G37*
G36*
X109129521Y-112679725D02*
G01*
X109222824Y-112708027D01*
X109308799Y-112753982D01*
X109384166Y-112815834D01*
X109446018Y-112891201D01*
X109491973Y-112977176D01*
X109520275Y-113070479D01*
X109530000Y-113169215D01*
X109530000Y-117230785D01*
X109520275Y-117329521D01*
X109491973Y-117422824D01*
X109446018Y-117508799D01*
X109384166Y-117584166D01*
X109308799Y-117646018D01*
X109222824Y-117691973D01*
X109129521Y-117720275D01*
X109030785Y-117730000D01*
X107969215Y-117730000D01*
X107870479Y-117720275D01*
X107777176Y-117691973D01*
X107691201Y-117646018D01*
X107615834Y-117584166D01*
X107553982Y-117508799D01*
X107508027Y-117422824D01*
X107479725Y-117329521D01*
X107470000Y-117230785D01*
X107470000Y-113169215D01*
X107479725Y-113070479D01*
X107508027Y-112977176D01*
X107553982Y-112891201D01*
X107615834Y-112815834D01*
X107691201Y-112753982D01*
X107777176Y-112708027D01*
X107870479Y-112679725D01*
X107969215Y-112670000D01*
X109030785Y-112670000D01*
X109129521Y-112679725D01*
X109129521Y-112679725D01*
G37*
G36*
X124938204Y-115505201D02*
G01*
X125071097Y-115545514D01*
X125071100Y-115545515D01*
X125193569Y-115610976D01*
X125193570Y-115610977D01*
X125193572Y-115610978D01*
X125300922Y-115699078D01*
X125389024Y-115806431D01*
X125454485Y-115928900D01*
X125454486Y-115928903D01*
X125494799Y-116061796D01*
X125508411Y-116200000D01*
X125494799Y-116338204D01*
X125454486Y-116471097D01*
X125454485Y-116471100D01*
X125389024Y-116593569D01*
X125389022Y-116593572D01*
X125300922Y-116700922D01*
X125193572Y-116789022D01*
X125193570Y-116789023D01*
X125193569Y-116789024D01*
X125071100Y-116854485D01*
X125071097Y-116854486D01*
X124938204Y-116894799D01*
X124834632Y-116905000D01*
X124765368Y-116905000D01*
X124661796Y-116894799D01*
X124528903Y-116854486D01*
X124528900Y-116854485D01*
X124406431Y-116789024D01*
X124406430Y-116789023D01*
X124406428Y-116789022D01*
X124299078Y-116700922D01*
X124210978Y-116593572D01*
X124210976Y-116593569D01*
X124145515Y-116471100D01*
X124145514Y-116471097D01*
X124105201Y-116338204D01*
X124091589Y-116200000D01*
X124105201Y-116061796D01*
X124145514Y-115928903D01*
X124145515Y-115928900D01*
X124210976Y-115806431D01*
X124299078Y-115699078D01*
X124406428Y-115610978D01*
X124406430Y-115610977D01*
X124406431Y-115610976D01*
X124528900Y-115545515D01*
X124528903Y-115545514D01*
X124661796Y-115505201D01*
X124765368Y-115495000D01*
X124834632Y-115495000D01*
X124938204Y-115505201D01*
X124938204Y-115505201D01*
G37*
G36*
X126938204Y-115505201D02*
G01*
X127071097Y-115545514D01*
X127071100Y-115545515D01*
X127193569Y-115610976D01*
X127193570Y-115610977D01*
X127193572Y-115610978D01*
X127300922Y-115699078D01*
X127389024Y-115806431D01*
X127454485Y-115928900D01*
X127454486Y-115928903D01*
X127494799Y-116061796D01*
X127508411Y-116200000D01*
X127494799Y-116338204D01*
X127454486Y-116471097D01*
X127454485Y-116471100D01*
X127389024Y-116593569D01*
X127389022Y-116593572D01*
X127300922Y-116700922D01*
X127193572Y-116789022D01*
X127193570Y-116789023D01*
X127193569Y-116789024D01*
X127071100Y-116854485D01*
X127071097Y-116854486D01*
X126938204Y-116894799D01*
X126834632Y-116905000D01*
X126765368Y-116905000D01*
X126661796Y-116894799D01*
X126528903Y-116854486D01*
X126528900Y-116854485D01*
X126406431Y-116789024D01*
X126406430Y-116789023D01*
X126406428Y-116789022D01*
X126299078Y-116700922D01*
X126210978Y-116593572D01*
X126210976Y-116593569D01*
X126145515Y-116471100D01*
X126145514Y-116471097D01*
X126105201Y-116338204D01*
X126091589Y-116200000D01*
X126105201Y-116061796D01*
X126145514Y-115928903D01*
X126145515Y-115928900D01*
X126210976Y-115806431D01*
X126299078Y-115699078D01*
X126406428Y-115610978D01*
X126406430Y-115610977D01*
X126406431Y-115610976D01*
X126528900Y-115545515D01*
X126528903Y-115545514D01*
X126661796Y-115505201D01*
X126765368Y-115495000D01*
X126834632Y-115495000D01*
X126938204Y-115505201D01*
X126938204Y-115505201D01*
G37*
G36*
X126938204Y-113505201D02*
G01*
X127071097Y-113545514D01*
X127071100Y-113545515D01*
X127193569Y-113610976D01*
X127193570Y-113610977D01*
X127193572Y-113610978D01*
X127300922Y-113699078D01*
X127389024Y-113806431D01*
X127454485Y-113928900D01*
X127454486Y-113928903D01*
X127494799Y-114061796D01*
X127508411Y-114200000D01*
X127494799Y-114338204D01*
X127454486Y-114471097D01*
X127454485Y-114471100D01*
X127423002Y-114530000D01*
X127389022Y-114593572D01*
X127300922Y-114700922D01*
X127193572Y-114789022D01*
X127193570Y-114789023D01*
X127193569Y-114789024D01*
X127071100Y-114854485D01*
X127071097Y-114854486D01*
X126938204Y-114894799D01*
X126834632Y-114905000D01*
X126765368Y-114905000D01*
X126661796Y-114894799D01*
X126528903Y-114854486D01*
X126528900Y-114854485D01*
X126406431Y-114789024D01*
X126406430Y-114789023D01*
X126406428Y-114789022D01*
X126299078Y-114700922D01*
X126210978Y-114593572D01*
X126176998Y-114530000D01*
X126145515Y-114471100D01*
X126145514Y-114471097D01*
X126105201Y-114338204D01*
X126091589Y-114200000D01*
X126105201Y-114061796D01*
X126145514Y-113928903D01*
X126145515Y-113928900D01*
X126210976Y-113806431D01*
X126299078Y-113699078D01*
X126406428Y-113610978D01*
X126406430Y-113610977D01*
X126406431Y-113610976D01*
X126528900Y-113545515D01*
X126528903Y-113545514D01*
X126661796Y-113505201D01*
X126765368Y-113495000D01*
X126834632Y-113495000D01*
X126938204Y-113505201D01*
X126938204Y-113505201D01*
G37*
G36*
X124938204Y-113505201D02*
G01*
X125071097Y-113545514D01*
X125071100Y-113545515D01*
X125193569Y-113610976D01*
X125193570Y-113610977D01*
X125193572Y-113610978D01*
X125300922Y-113699078D01*
X125389024Y-113806431D01*
X125454485Y-113928900D01*
X125454486Y-113928903D01*
X125494799Y-114061796D01*
X125508411Y-114200000D01*
X125494799Y-114338204D01*
X125454486Y-114471097D01*
X125454485Y-114471100D01*
X125423002Y-114530000D01*
X125389022Y-114593572D01*
X125300922Y-114700922D01*
X125193572Y-114789022D01*
X125193570Y-114789023D01*
X125193569Y-114789024D01*
X125071100Y-114854485D01*
X125071097Y-114854486D01*
X124938204Y-114894799D01*
X124834632Y-114905000D01*
X124765368Y-114905000D01*
X124661796Y-114894799D01*
X124528903Y-114854486D01*
X124528900Y-114854485D01*
X124406431Y-114789024D01*
X124406430Y-114789023D01*
X124406428Y-114789022D01*
X124299078Y-114700922D01*
X124210978Y-114593572D01*
X124176998Y-114530000D01*
X124145515Y-114471100D01*
X124145514Y-114471097D01*
X124105201Y-114338204D01*
X124091589Y-114200000D01*
X124105201Y-114061796D01*
X124145514Y-113928903D01*
X124145515Y-113928900D01*
X124210976Y-113806431D01*
X124299078Y-113699078D01*
X124406428Y-113610978D01*
X124406430Y-113610977D01*
X124406431Y-113610976D01*
X124528900Y-113545515D01*
X124528903Y-113545514D01*
X124661796Y-113505201D01*
X124765368Y-113495000D01*
X124834632Y-113495000D01*
X124938204Y-113505201D01*
X124938204Y-113505201D01*
G37*
G36*
X97196285Y-111528797D02*
G01*
X97393174Y-111610351D01*
X97474728Y-111644132D01*
X97556960Y-111699078D01*
X97725318Y-111811571D01*
X97938429Y-112024682D01*
X98038801Y-112174900D01*
X98105868Y-112275272D01*
X98105868Y-112275273D01*
X98221203Y-112553715D01*
X98280000Y-112849308D01*
X98280000Y-113150692D01*
X98221203Y-113446285D01*
X98139649Y-113643174D01*
X98105868Y-113724728D01*
X98051277Y-113806428D01*
X97938429Y-113975318D01*
X97725318Y-114188429D01*
X97575100Y-114288801D01*
X97474728Y-114355868D01*
X97393174Y-114389649D01*
X97196285Y-114471203D01*
X96900692Y-114530000D01*
X96599308Y-114530000D01*
X96303715Y-114471203D01*
X96106826Y-114389649D01*
X96025272Y-114355868D01*
X95924900Y-114288801D01*
X95774682Y-114188429D01*
X95561571Y-113975318D01*
X95448723Y-113806428D01*
X95394132Y-113724728D01*
X95360351Y-113643174D01*
X95278797Y-113446285D01*
X95220000Y-113150692D01*
X95220000Y-112849308D01*
X95278797Y-112553715D01*
X95394132Y-112275273D01*
X95394132Y-112275272D01*
X95461199Y-112174900D01*
X95561571Y-112024682D01*
X95774682Y-111811571D01*
X95943040Y-111699078D01*
X96025272Y-111644132D01*
X96106826Y-111610351D01*
X96303715Y-111528797D01*
X96599308Y-111470000D01*
X96900692Y-111470000D01*
X97196285Y-111528797D01*
X97196285Y-111528797D01*
G37*
G36*
X124952907Y-111431286D02*
G01*
X125099937Y-111475887D01*
X125235442Y-111548316D01*
X125354212Y-111645788D01*
X125451684Y-111764558D01*
X125524113Y-111900063D01*
X125568714Y-112047093D01*
X125583774Y-112200000D01*
X125568714Y-112352907D01*
X125524113Y-112499937D01*
X125451684Y-112635442D01*
X125354212Y-112754212D01*
X125235442Y-112851684D01*
X125099937Y-112924113D01*
X124952907Y-112968714D01*
X124838318Y-112980000D01*
X124761682Y-112980000D01*
X124647093Y-112968714D01*
X124500063Y-112924113D01*
X124364558Y-112851684D01*
X124245788Y-112754212D01*
X124148316Y-112635442D01*
X124075887Y-112499937D01*
X124031286Y-112352907D01*
X124016226Y-112200000D01*
X124031286Y-112047093D01*
X124075887Y-111900063D01*
X124148316Y-111764558D01*
X124245788Y-111645788D01*
X124364558Y-111548316D01*
X124500063Y-111475887D01*
X124647093Y-111431286D01*
X124761682Y-111420000D01*
X124838318Y-111420000D01*
X124952907Y-111431286D01*
X124952907Y-111431286D01*
G37*
G36*
X126938204Y-111505201D02*
G01*
X127071097Y-111545514D01*
X127071100Y-111545515D01*
X127193569Y-111610976D01*
X127193570Y-111610977D01*
X127193572Y-111610978D01*
X127300922Y-111699078D01*
X127354662Y-111764560D01*
X127389024Y-111806431D01*
X127454485Y-111928900D01*
X127454486Y-111928903D01*
X127494799Y-112061796D01*
X127508411Y-112200000D01*
X127494799Y-112338204D01*
X127454486Y-112471097D01*
X127454485Y-112471100D01*
X127410326Y-112553715D01*
X127389022Y-112593572D01*
X127300922Y-112700922D01*
X127193572Y-112789022D01*
X127193570Y-112789023D01*
X127193569Y-112789024D01*
X127071100Y-112854485D01*
X127071097Y-112854486D01*
X126938204Y-112894799D01*
X126834632Y-112905000D01*
X126765368Y-112905000D01*
X126661796Y-112894799D01*
X126528903Y-112854486D01*
X126528900Y-112854485D01*
X126406431Y-112789024D01*
X126406430Y-112789023D01*
X126406428Y-112789022D01*
X126299078Y-112700922D01*
X126210978Y-112593572D01*
X126189674Y-112553715D01*
X126145515Y-112471100D01*
X126145514Y-112471097D01*
X126105201Y-112338204D01*
X126091589Y-112200000D01*
X126105201Y-112061796D01*
X126145514Y-111928903D01*
X126145515Y-111928900D01*
X126210976Y-111806431D01*
X126245339Y-111764560D01*
X126299078Y-111699078D01*
X126406428Y-111610978D01*
X126406430Y-111610977D01*
X126406431Y-111610976D01*
X126528900Y-111545515D01*
X126528903Y-111545514D01*
X126661796Y-111505201D01*
X126765368Y-111495000D01*
X126834632Y-111495000D01*
X126938204Y-111505201D01*
X126938204Y-111505201D01*
G37*
G36*
X125580000Y-110980000D02*
G01*
X124020000Y-110980000D01*
X124020000Y-109420000D01*
X125580000Y-109420000D01*
X125580000Y-110980000D01*
X125580000Y-110980000D01*
G37*
G36*
X126952907Y-109431286D02*
G01*
X127099937Y-109475887D01*
X127235442Y-109548316D01*
X127354212Y-109645788D01*
X127451684Y-109764558D01*
X127524113Y-109900063D01*
X127568714Y-110047093D01*
X127583774Y-110200000D01*
X127568714Y-110352907D01*
X127524113Y-110499937D01*
X127451684Y-110635442D01*
X127354212Y-110754212D01*
X127235442Y-110851684D01*
X127099937Y-110924113D01*
X126952907Y-110968714D01*
X126838318Y-110980000D01*
X126761682Y-110980000D01*
X126647093Y-110968714D01*
X126500063Y-110924113D01*
X126364558Y-110851684D01*
X126245788Y-110754212D01*
X126148316Y-110635442D01*
X126075887Y-110499937D01*
X126031286Y-110352907D01*
X126016226Y-110200000D01*
X126031286Y-110047093D01*
X126075887Y-109900063D01*
X126148316Y-109764558D01*
X126245788Y-109645788D01*
X126364558Y-109548316D01*
X126500063Y-109475887D01*
X126647093Y-109431286D01*
X126761682Y-109420000D01*
X126838318Y-109420000D01*
X126952907Y-109431286D01*
X126952907Y-109431286D01*
G37*
G36*
X117105000Y-107505000D02*
G01*
X115695000Y-107505000D01*
X115695000Y-106095000D01*
X117105000Y-106095000D01*
X117105000Y-107505000D01*
X117105000Y-107505000D01*
G37*
G36*
X116538204Y-104105201D02*
G01*
X116671097Y-104145514D01*
X116671100Y-104145515D01*
X116793569Y-104210976D01*
X116793570Y-104210977D01*
X116793572Y-104210978D01*
X116900922Y-104299078D01*
X116989024Y-104406431D01*
X117054485Y-104528900D01*
X117054486Y-104528903D01*
X117094799Y-104661796D01*
X117108411Y-104800000D01*
X117094799Y-104938204D01*
X117054486Y-105071097D01*
X117054485Y-105071100D01*
X116989024Y-105193569D01*
X116989022Y-105193572D01*
X116900922Y-105300922D01*
X116793572Y-105389022D01*
X116793570Y-105389023D01*
X116793569Y-105389024D01*
X116671100Y-105454485D01*
X116671097Y-105454486D01*
X116538204Y-105494799D01*
X116434632Y-105505000D01*
X116365368Y-105505000D01*
X116261796Y-105494799D01*
X116128903Y-105454486D01*
X116128900Y-105454485D01*
X116006431Y-105389024D01*
X116006430Y-105389023D01*
X116006428Y-105389022D01*
X115899078Y-105300922D01*
X115810978Y-105193572D01*
X115810976Y-105193569D01*
X115745515Y-105071100D01*
X115745514Y-105071097D01*
X115705201Y-104938204D01*
X115691589Y-104800000D01*
X115705201Y-104661796D01*
X115745514Y-104528903D01*
X115745515Y-104528900D01*
X115810976Y-104406431D01*
X115899078Y-104299078D01*
X116006428Y-104210978D01*
X116006430Y-104210977D01*
X116006431Y-104210976D01*
X116128900Y-104145515D01*
X116128903Y-104145514D01*
X116261796Y-104105201D01*
X116365368Y-104095000D01*
X116434632Y-104095000D01*
X116538204Y-104105201D01*
X116538204Y-104105201D01*
G37*
G36*
X116538204Y-102105201D02*
G01*
X116671097Y-102145514D01*
X116671100Y-102145515D01*
X116793569Y-102210976D01*
X116793570Y-102210977D01*
X116793572Y-102210978D01*
X116900922Y-102299078D01*
X116989024Y-102406431D01*
X117054485Y-102528900D01*
X117054486Y-102528903D01*
X117094799Y-102661796D01*
X117108411Y-102800000D01*
X117094799Y-102938204D01*
X117054486Y-103071097D01*
X117054485Y-103071100D01*
X116989024Y-103193569D01*
X116989022Y-103193572D01*
X116900922Y-103300922D01*
X116793572Y-103389022D01*
X116793570Y-103389023D01*
X116793569Y-103389024D01*
X116671100Y-103454485D01*
X116671097Y-103454486D01*
X116538204Y-103494799D01*
X116434632Y-103505000D01*
X116365368Y-103505000D01*
X116261796Y-103494799D01*
X116128903Y-103454486D01*
X116128900Y-103454485D01*
X116006431Y-103389024D01*
X116006430Y-103389023D01*
X116006428Y-103389022D01*
X115899078Y-103300922D01*
X115810978Y-103193572D01*
X115810976Y-103193569D01*
X115745515Y-103071100D01*
X115745514Y-103071097D01*
X115705201Y-102938204D01*
X115691589Y-102800000D01*
X115705201Y-102661796D01*
X115745514Y-102528903D01*
X115745515Y-102528900D01*
X115810976Y-102406431D01*
X115899078Y-102299078D01*
X116006428Y-102210978D01*
X116006430Y-102210977D01*
X116006431Y-102210976D01*
X116128900Y-102145515D01*
X116128903Y-102145514D01*
X116261796Y-102105201D01*
X116365368Y-102095000D01*
X116434632Y-102095000D01*
X116538204Y-102105201D01*
X116538204Y-102105201D01*
G37*
G36*
X126912507Y-99572733D02*
G01*
X127078394Y-99623053D01*
X127231268Y-99704766D01*
X127365265Y-99814735D01*
X127475234Y-99948732D01*
X127556947Y-100101606D01*
X127607267Y-100267493D01*
X127624258Y-100440000D01*
X127607267Y-100612507D01*
X127556947Y-100778394D01*
X127475234Y-100931268D01*
X127365265Y-101065265D01*
X127231268Y-101175234D01*
X127078394Y-101256947D01*
X126912507Y-101307267D01*
X126783232Y-101320000D01*
X126696768Y-101320000D01*
X126567493Y-101307267D01*
X126401606Y-101256947D01*
X126248732Y-101175234D01*
X126114735Y-101065265D01*
X126004766Y-100931268D01*
X125923053Y-100778394D01*
X125872733Y-100612507D01*
X125855742Y-100440000D01*
X125872733Y-100267493D01*
X125923053Y-100101606D01*
X126004766Y-99948732D01*
X126114735Y-99814735D01*
X126248732Y-99704766D01*
X126401606Y-99623053D01*
X126567493Y-99572733D01*
X126696768Y-99560000D01*
X126783232Y-99560000D01*
X126912507Y-99572733D01*
X126912507Y-99572733D01*
G37*
G36*
X124372507Y-99572733D02*
G01*
X124538394Y-99623053D01*
X124691268Y-99704766D01*
X124825265Y-99814735D01*
X124935234Y-99948732D01*
X125016947Y-100101606D01*
X125067267Y-100267493D01*
X125084258Y-100440000D01*
X125067267Y-100612507D01*
X125016947Y-100778394D01*
X124935234Y-100931268D01*
X124825265Y-101065265D01*
X124691268Y-101175234D01*
X124538394Y-101256947D01*
X124372507Y-101307267D01*
X124243232Y-101320000D01*
X124156768Y-101320000D01*
X124027493Y-101307267D01*
X123861606Y-101256947D01*
X123708732Y-101175234D01*
X123574735Y-101065265D01*
X123464766Y-100931268D01*
X123383053Y-100778394D01*
X123332733Y-100612507D01*
X123315742Y-100440000D01*
X123332733Y-100267493D01*
X123383053Y-100101606D01*
X123464766Y-99948732D01*
X123574735Y-99814735D01*
X123708732Y-99704766D01*
X123861606Y-99623053D01*
X124027493Y-99572733D01*
X124156768Y-99560000D01*
X124243232Y-99560000D01*
X124372507Y-99572733D01*
X124372507Y-99572733D01*
G37*
G36*
X126912507Y-97032733D02*
G01*
X127078394Y-97083053D01*
X127231268Y-97164766D01*
X127365265Y-97274735D01*
X127475234Y-97408732D01*
X127556947Y-97561606D01*
X127607267Y-97727493D01*
X127624258Y-97900000D01*
X127607267Y-98072507D01*
X127556947Y-98238394D01*
X127475234Y-98391268D01*
X127365265Y-98525265D01*
X127231268Y-98635234D01*
X127078394Y-98716947D01*
X126912507Y-98767267D01*
X126783232Y-98780000D01*
X126696768Y-98780000D01*
X126567493Y-98767267D01*
X126401606Y-98716947D01*
X126248732Y-98635234D01*
X126114735Y-98525265D01*
X126004766Y-98391268D01*
X125923053Y-98238394D01*
X125872733Y-98072507D01*
X125855742Y-97900000D01*
X125872733Y-97727493D01*
X125923053Y-97561606D01*
X126004766Y-97408732D01*
X126114735Y-97274735D01*
X126248732Y-97164766D01*
X126401606Y-97083053D01*
X126567493Y-97032733D01*
X126696768Y-97020000D01*
X126783232Y-97020000D01*
X126912507Y-97032733D01*
X126912507Y-97032733D01*
G37*
G36*
X124372507Y-97032733D02*
G01*
X124538394Y-97083053D01*
X124691268Y-97164766D01*
X124825265Y-97274735D01*
X124935234Y-97408732D01*
X125016947Y-97561606D01*
X125067267Y-97727493D01*
X125084258Y-97900000D01*
X125067267Y-98072507D01*
X125016947Y-98238394D01*
X124935234Y-98391268D01*
X124825265Y-98525265D01*
X124691268Y-98635234D01*
X124538394Y-98716947D01*
X124372507Y-98767267D01*
X124243232Y-98780000D01*
X124156768Y-98780000D01*
X124027493Y-98767267D01*
X123861606Y-98716947D01*
X123708732Y-98635234D01*
X123574735Y-98525265D01*
X123464766Y-98391268D01*
X123383053Y-98238394D01*
X123332733Y-98072507D01*
X123315742Y-97900000D01*
X123332733Y-97727493D01*
X123383053Y-97561606D01*
X123464766Y-97408732D01*
X123574735Y-97274735D01*
X123708732Y-97164766D01*
X123861606Y-97083053D01*
X124027493Y-97032733D01*
X124156768Y-97020000D01*
X124243232Y-97020000D01*
X124372507Y-97032733D01*
X124372507Y-97032733D01*
G37*
G36*
X124372507Y-94492733D02*
G01*
X124538394Y-94543053D01*
X124691268Y-94624766D01*
X124825265Y-94734735D01*
X124935234Y-94868732D01*
X125016947Y-95021606D01*
X125067267Y-95187493D01*
X125084258Y-95360000D01*
X125067267Y-95532507D01*
X125016947Y-95698394D01*
X124935234Y-95851268D01*
X124825265Y-95985265D01*
X124691268Y-96095234D01*
X124538394Y-96176947D01*
X124372507Y-96227267D01*
X124243232Y-96240000D01*
X124156768Y-96240000D01*
X124027493Y-96227267D01*
X123861606Y-96176947D01*
X123708732Y-96095234D01*
X123574735Y-95985265D01*
X123464766Y-95851268D01*
X123383053Y-95698394D01*
X123332733Y-95532507D01*
X123315742Y-95360000D01*
X123332733Y-95187493D01*
X123383053Y-95021606D01*
X123464766Y-94868732D01*
X123574735Y-94734735D01*
X123708732Y-94624766D01*
X123861606Y-94543053D01*
X124027493Y-94492733D01*
X124156768Y-94480000D01*
X124243232Y-94480000D01*
X124372507Y-94492733D01*
X124372507Y-94492733D01*
G37*
G36*
X126912507Y-94492733D02*
G01*
X127078394Y-94543053D01*
X127231268Y-94624766D01*
X127365265Y-94734735D01*
X127475234Y-94868732D01*
X127556947Y-95021606D01*
X127607267Y-95187493D01*
X127624258Y-95360000D01*
X127607267Y-95532507D01*
X127556947Y-95698394D01*
X127475234Y-95851268D01*
X127365265Y-95985265D01*
X127231268Y-96095234D01*
X127078394Y-96176947D01*
X126912507Y-96227267D01*
X126783232Y-96240000D01*
X126696768Y-96240000D01*
X126567493Y-96227267D01*
X126401606Y-96176947D01*
X126248732Y-96095234D01*
X126114735Y-95985265D01*
X126004766Y-95851268D01*
X125923053Y-95698394D01*
X125872733Y-95532507D01*
X125855742Y-95360000D01*
X125872733Y-95187493D01*
X125923053Y-95021606D01*
X126004766Y-94868732D01*
X126114735Y-94734735D01*
X126248732Y-94624766D01*
X126401606Y-94543053D01*
X126567493Y-94492733D01*
X126696768Y-94480000D01*
X126783232Y-94480000D01*
X126912507Y-94492733D01*
X126912507Y-94492733D01*
G37*
G36*
X113032121Y-94701499D02*
G01*
X113096727Y-94728260D01*
X113154871Y-94767110D01*
X113204318Y-94816557D01*
X113243168Y-94874701D01*
X113269929Y-94939307D01*
X113283571Y-95007893D01*
X113283571Y-95077821D01*
X113269929Y-95146407D01*
X113243168Y-95211013D01*
X113204318Y-95269157D01*
X113154871Y-95318604D01*
X113096727Y-95357454D01*
X113096726Y-95357455D01*
X113096725Y-95357455D01*
X113082090Y-95363517D01*
X113032121Y-95384215D01*
X112963535Y-95397857D01*
X112893607Y-95397857D01*
X112825021Y-95384215D01*
X112775052Y-95363517D01*
X112760417Y-95357455D01*
X112760416Y-95357455D01*
X112760415Y-95357454D01*
X112702271Y-95318604D01*
X112652824Y-95269157D01*
X112613974Y-95211013D01*
X112587213Y-95146407D01*
X112573571Y-95077821D01*
X112573571Y-95007893D01*
X112587213Y-94939307D01*
X112613974Y-94874701D01*
X112652824Y-94816557D01*
X112702271Y-94767110D01*
X112760415Y-94728260D01*
X112825021Y-94701499D01*
X112893607Y-94687857D01*
X112963535Y-94687857D01*
X113032121Y-94701499D01*
X113032121Y-94701499D01*
G37*
G36*
X108746408Y-94701499D02*
G01*
X108811014Y-94728260D01*
X108869158Y-94767110D01*
X108918605Y-94816557D01*
X108957455Y-94874701D01*
X108984216Y-94939307D01*
X108997858Y-95007893D01*
X108997858Y-95077821D01*
X108984216Y-95146407D01*
X108957455Y-95211013D01*
X108918605Y-95269157D01*
X108869158Y-95318604D01*
X108811014Y-95357454D01*
X108811013Y-95357455D01*
X108811012Y-95357455D01*
X108796377Y-95363517D01*
X108746408Y-95384215D01*
X108677822Y-95397857D01*
X108607894Y-95397857D01*
X108539308Y-95384215D01*
X108489339Y-95363517D01*
X108474704Y-95357455D01*
X108474703Y-95357455D01*
X108474702Y-95357454D01*
X108416558Y-95318604D01*
X108367111Y-95269157D01*
X108328261Y-95211013D01*
X108301500Y-95146407D01*
X108287858Y-95077821D01*
X108287858Y-95007893D01*
X108301500Y-94939307D01*
X108328261Y-94874701D01*
X108367111Y-94816557D01*
X108416558Y-94767110D01*
X108474702Y-94728260D01*
X108539308Y-94701499D01*
X108607894Y-94687857D01*
X108677822Y-94687857D01*
X108746408Y-94701499D01*
X108746408Y-94701499D01*
G37*
G36*
X109817836Y-94701499D02*
G01*
X109882442Y-94728260D01*
X109940586Y-94767110D01*
X109990033Y-94816557D01*
X110028883Y-94874701D01*
X110055644Y-94939307D01*
X110069286Y-95007893D01*
X110069286Y-95077821D01*
X110055644Y-95146407D01*
X110028883Y-95211013D01*
X109990033Y-95269157D01*
X109940586Y-95318604D01*
X109882442Y-95357454D01*
X109882441Y-95357455D01*
X109882440Y-95357455D01*
X109867805Y-95363517D01*
X109817836Y-95384215D01*
X109749250Y-95397857D01*
X109679322Y-95397857D01*
X109610736Y-95384215D01*
X109560767Y-95363517D01*
X109546132Y-95357455D01*
X109546131Y-95357455D01*
X109546130Y-95357454D01*
X109487986Y-95318604D01*
X109438539Y-95269157D01*
X109399689Y-95211013D01*
X109372928Y-95146407D01*
X109359286Y-95077821D01*
X109359286Y-95007893D01*
X109372928Y-94939307D01*
X109399689Y-94874701D01*
X109438539Y-94816557D01*
X109487986Y-94767110D01*
X109546130Y-94728260D01*
X109610736Y-94701499D01*
X109679322Y-94687857D01*
X109749250Y-94687857D01*
X109817836Y-94701499D01*
X109817836Y-94701499D01*
G37*
G36*
X110889265Y-94701499D02*
G01*
X110953871Y-94728260D01*
X111012015Y-94767110D01*
X111061462Y-94816557D01*
X111100312Y-94874701D01*
X111127073Y-94939307D01*
X111140715Y-95007893D01*
X111140715Y-95077821D01*
X111127073Y-95146407D01*
X111100312Y-95211013D01*
X111061462Y-95269157D01*
X111012015Y-95318604D01*
X110953871Y-95357454D01*
X110953870Y-95357455D01*
X110953869Y-95357455D01*
X110939234Y-95363517D01*
X110889265Y-95384215D01*
X110820679Y-95397857D01*
X110750751Y-95397857D01*
X110682165Y-95384215D01*
X110632196Y-95363517D01*
X110617561Y-95357455D01*
X110617560Y-95357455D01*
X110617559Y-95357454D01*
X110559415Y-95318604D01*
X110509968Y-95269157D01*
X110471118Y-95211013D01*
X110444357Y-95146407D01*
X110430715Y-95077821D01*
X110430715Y-95007893D01*
X110444357Y-94939307D01*
X110471118Y-94874701D01*
X110509968Y-94816557D01*
X110559415Y-94767110D01*
X110617559Y-94728260D01*
X110682165Y-94701499D01*
X110750751Y-94687857D01*
X110820679Y-94687857D01*
X110889265Y-94701499D01*
X110889265Y-94701499D01*
G37*
G36*
X114103550Y-94701499D02*
G01*
X114168156Y-94728260D01*
X114226300Y-94767110D01*
X114275747Y-94816557D01*
X114314597Y-94874701D01*
X114341358Y-94939307D01*
X114355000Y-95007893D01*
X114355000Y-95077821D01*
X114341358Y-95146407D01*
X114314597Y-95211013D01*
X114275747Y-95269157D01*
X114226300Y-95318604D01*
X114168156Y-95357454D01*
X114168155Y-95357455D01*
X114168154Y-95357455D01*
X114153519Y-95363517D01*
X114103550Y-95384215D01*
X114034964Y-95397857D01*
X113965036Y-95397857D01*
X113896450Y-95384215D01*
X113846481Y-95363517D01*
X113831846Y-95357455D01*
X113831845Y-95357455D01*
X113831844Y-95357454D01*
X113773700Y-95318604D01*
X113724253Y-95269157D01*
X113685403Y-95211013D01*
X113658642Y-95146407D01*
X113645000Y-95077821D01*
X113645000Y-95007893D01*
X113658642Y-94939307D01*
X113685403Y-94874701D01*
X113724253Y-94816557D01*
X113773700Y-94767110D01*
X113831844Y-94728260D01*
X113896450Y-94701499D01*
X113965036Y-94687857D01*
X114034964Y-94687857D01*
X114103550Y-94701499D01*
X114103550Y-94701499D01*
G37*
G36*
X115174978Y-94701499D02*
G01*
X115239584Y-94728260D01*
X115297728Y-94767110D01*
X115347175Y-94816557D01*
X115386025Y-94874701D01*
X115412786Y-94939307D01*
X115426428Y-95007893D01*
X115426428Y-95077821D01*
X115412786Y-95146407D01*
X115386025Y-95211013D01*
X115347175Y-95269157D01*
X115297728Y-95318604D01*
X115239584Y-95357454D01*
X115239583Y-95357455D01*
X115239582Y-95357455D01*
X115224947Y-95363517D01*
X115174978Y-95384215D01*
X115106392Y-95397857D01*
X115036464Y-95397857D01*
X114967878Y-95384215D01*
X114917909Y-95363517D01*
X114903274Y-95357455D01*
X114903273Y-95357455D01*
X114903272Y-95357454D01*
X114845128Y-95318604D01*
X114795681Y-95269157D01*
X114756831Y-95211013D01*
X114730070Y-95146407D01*
X114716428Y-95077821D01*
X114716428Y-95007893D01*
X114730070Y-94939307D01*
X114756831Y-94874701D01*
X114795681Y-94816557D01*
X114845128Y-94767110D01*
X114903272Y-94728260D01*
X114967878Y-94701499D01*
X115036464Y-94687857D01*
X115106392Y-94687857D01*
X115174978Y-94701499D01*
X115174978Y-94701499D01*
G37*
G36*
X111960693Y-94701499D02*
G01*
X112025299Y-94728260D01*
X112083443Y-94767110D01*
X112132890Y-94816557D01*
X112171740Y-94874701D01*
X112198501Y-94939307D01*
X112212143Y-95007893D01*
X112212143Y-95077821D01*
X112198501Y-95146407D01*
X112171740Y-95211013D01*
X112132890Y-95269157D01*
X112083443Y-95318604D01*
X112025299Y-95357454D01*
X112025298Y-95357455D01*
X112025297Y-95357455D01*
X112010662Y-95363517D01*
X111960693Y-95384215D01*
X111892107Y-95397857D01*
X111822179Y-95397857D01*
X111753593Y-95384215D01*
X111703624Y-95363517D01*
X111688989Y-95357455D01*
X111688988Y-95357455D01*
X111688987Y-95357454D01*
X111630843Y-95318604D01*
X111581396Y-95269157D01*
X111542546Y-95211013D01*
X111515785Y-95146407D01*
X111502143Y-95077821D01*
X111502143Y-95007893D01*
X111515785Y-94939307D01*
X111542546Y-94874701D01*
X111581396Y-94816557D01*
X111630843Y-94767110D01*
X111688987Y-94728260D01*
X111753593Y-94701499D01*
X111822179Y-94687857D01*
X111892107Y-94687857D01*
X111960693Y-94701499D01*
X111960693Y-94701499D01*
G37*
G36*
X109817836Y-93630071D02*
G01*
X109882442Y-93656832D01*
X109940586Y-93695682D01*
X109990033Y-93745129D01*
X110028883Y-93803273D01*
X110055644Y-93867879D01*
X110069286Y-93936465D01*
X110069286Y-94006393D01*
X110055644Y-94074979D01*
X110028883Y-94139585D01*
X109990033Y-94197729D01*
X109940586Y-94247176D01*
X109882442Y-94286026D01*
X109817836Y-94312787D01*
X109749250Y-94326429D01*
X109679322Y-94326429D01*
X109610736Y-94312787D01*
X109546130Y-94286026D01*
X109487986Y-94247176D01*
X109438539Y-94197729D01*
X109399689Y-94139585D01*
X109372928Y-94074979D01*
X109359286Y-94006393D01*
X109359286Y-93936465D01*
X109372928Y-93867879D01*
X109399689Y-93803273D01*
X109438539Y-93745129D01*
X109487986Y-93695682D01*
X109546130Y-93656832D01*
X109610736Y-93630071D01*
X109679322Y-93616429D01*
X109749250Y-93616429D01*
X109817836Y-93630071D01*
X109817836Y-93630071D01*
G37*
G36*
X108746408Y-93630071D02*
G01*
X108811014Y-93656832D01*
X108869158Y-93695682D01*
X108918605Y-93745129D01*
X108957455Y-93803273D01*
X108984216Y-93867879D01*
X108997858Y-93936465D01*
X108997858Y-94006393D01*
X108984216Y-94074979D01*
X108957455Y-94139585D01*
X108918605Y-94197729D01*
X108869158Y-94247176D01*
X108811014Y-94286026D01*
X108746408Y-94312787D01*
X108677822Y-94326429D01*
X108607894Y-94326429D01*
X108539308Y-94312787D01*
X108474702Y-94286026D01*
X108416558Y-94247176D01*
X108367111Y-94197729D01*
X108328261Y-94139585D01*
X108301500Y-94074979D01*
X108287858Y-94006393D01*
X108287858Y-93936465D01*
X108301500Y-93867879D01*
X108328261Y-93803273D01*
X108367111Y-93745129D01*
X108416558Y-93695682D01*
X108474702Y-93656832D01*
X108539308Y-93630071D01*
X108607894Y-93616429D01*
X108677822Y-93616429D01*
X108746408Y-93630071D01*
X108746408Y-93630071D01*
G37*
G36*
X110889265Y-93630071D02*
G01*
X110953871Y-93656832D01*
X111012015Y-93695682D01*
X111061462Y-93745129D01*
X111100312Y-93803273D01*
X111127073Y-93867879D01*
X111140715Y-93936465D01*
X111140715Y-94006393D01*
X111127073Y-94074979D01*
X111100312Y-94139585D01*
X111061462Y-94197729D01*
X111012015Y-94247176D01*
X110953871Y-94286026D01*
X110889265Y-94312787D01*
X110820679Y-94326429D01*
X110750751Y-94326429D01*
X110682165Y-94312787D01*
X110617559Y-94286026D01*
X110559415Y-94247176D01*
X110509968Y-94197729D01*
X110471118Y-94139585D01*
X110444357Y-94074979D01*
X110430715Y-94006393D01*
X110430715Y-93936465D01*
X110444357Y-93867879D01*
X110471118Y-93803273D01*
X110509968Y-93745129D01*
X110559415Y-93695682D01*
X110617559Y-93656832D01*
X110682165Y-93630071D01*
X110750751Y-93616429D01*
X110820679Y-93616429D01*
X110889265Y-93630071D01*
X110889265Y-93630071D01*
G37*
G36*
X111960693Y-93630071D02*
G01*
X112025299Y-93656832D01*
X112083443Y-93695682D01*
X112132890Y-93745129D01*
X112171740Y-93803273D01*
X112198501Y-93867879D01*
X112212143Y-93936465D01*
X112212143Y-94006393D01*
X112198501Y-94074979D01*
X112171740Y-94139585D01*
X112132890Y-94197729D01*
X112083443Y-94247176D01*
X112025299Y-94286026D01*
X111960693Y-94312787D01*
X111892107Y-94326429D01*
X111822179Y-94326429D01*
X111753593Y-94312787D01*
X111688987Y-94286026D01*
X111630843Y-94247176D01*
X111581396Y-94197729D01*
X111542546Y-94139585D01*
X111515785Y-94074979D01*
X111502143Y-94006393D01*
X111502143Y-93936465D01*
X111515785Y-93867879D01*
X111542546Y-93803273D01*
X111581396Y-93745129D01*
X111630843Y-93695682D01*
X111688987Y-93656832D01*
X111753593Y-93630071D01*
X111822179Y-93616429D01*
X111892107Y-93616429D01*
X111960693Y-93630071D01*
X111960693Y-93630071D01*
G37*
G36*
X113032121Y-93630071D02*
G01*
X113096727Y-93656832D01*
X113154871Y-93695682D01*
X113204318Y-93745129D01*
X113243168Y-93803273D01*
X113269929Y-93867879D01*
X113283571Y-93936465D01*
X113283571Y-94006393D01*
X113269929Y-94074979D01*
X113243168Y-94139585D01*
X113204318Y-94197729D01*
X113154871Y-94247176D01*
X113096727Y-94286026D01*
X113032121Y-94312787D01*
X112963535Y-94326429D01*
X112893607Y-94326429D01*
X112825021Y-94312787D01*
X112760415Y-94286026D01*
X112702271Y-94247176D01*
X112652824Y-94197729D01*
X112613974Y-94139585D01*
X112587213Y-94074979D01*
X112573571Y-94006393D01*
X112573571Y-93936465D01*
X112587213Y-93867879D01*
X112613974Y-93803273D01*
X112652824Y-93745129D01*
X112702271Y-93695682D01*
X112760415Y-93656832D01*
X112825021Y-93630071D01*
X112893607Y-93616429D01*
X112963535Y-93616429D01*
X113032121Y-93630071D01*
X113032121Y-93630071D01*
G37*
G36*
X114103550Y-93630071D02*
G01*
X114168156Y-93656832D01*
X114226300Y-93695682D01*
X114275747Y-93745129D01*
X114314597Y-93803273D01*
X114341358Y-93867879D01*
X114355000Y-93936465D01*
X114355000Y-94006393D01*
X114341358Y-94074979D01*
X114314597Y-94139585D01*
X114275747Y-94197729D01*
X114226300Y-94247176D01*
X114168156Y-94286026D01*
X114103550Y-94312787D01*
X114034964Y-94326429D01*
X113965036Y-94326429D01*
X113896450Y-94312787D01*
X113831844Y-94286026D01*
X113773700Y-94247176D01*
X113724253Y-94197729D01*
X113685403Y-94139585D01*
X113658642Y-94074979D01*
X113645000Y-94006393D01*
X113645000Y-93936465D01*
X113658642Y-93867879D01*
X113685403Y-93803273D01*
X113724253Y-93745129D01*
X113773700Y-93695682D01*
X113831844Y-93656832D01*
X113896450Y-93630071D01*
X113965036Y-93616429D01*
X114034964Y-93616429D01*
X114103550Y-93630071D01*
X114103550Y-93630071D01*
G37*
G36*
X115174978Y-93630071D02*
G01*
X115239584Y-93656832D01*
X115297728Y-93695682D01*
X115347175Y-93745129D01*
X115386025Y-93803273D01*
X115412786Y-93867879D01*
X115426428Y-93936465D01*
X115426428Y-94006393D01*
X115412786Y-94074979D01*
X115386025Y-94139585D01*
X115347175Y-94197729D01*
X115297728Y-94247176D01*
X115239584Y-94286026D01*
X115174978Y-94312787D01*
X115106392Y-94326429D01*
X115036464Y-94326429D01*
X114967878Y-94312787D01*
X114903272Y-94286026D01*
X114845128Y-94247176D01*
X114795681Y-94197729D01*
X114756831Y-94139585D01*
X114730070Y-94074979D01*
X114716428Y-94006393D01*
X114716428Y-93936465D01*
X114730070Y-93867879D01*
X114756831Y-93803273D01*
X114795681Y-93745129D01*
X114845128Y-93695682D01*
X114903272Y-93656832D01*
X114967878Y-93630071D01*
X115036464Y-93616429D01*
X115106392Y-93616429D01*
X115174978Y-93630071D01*
X115174978Y-93630071D01*
G37*
G36*
X124372507Y-91952733D02*
G01*
X124538394Y-92003053D01*
X124691268Y-92084766D01*
X124825265Y-92194735D01*
X124935234Y-92328732D01*
X125016947Y-92481606D01*
X125067267Y-92647493D01*
X125084258Y-92820000D01*
X125067267Y-92992507D01*
X125016947Y-93158394D01*
X124935234Y-93311268D01*
X124825265Y-93445265D01*
X124691268Y-93555234D01*
X124538394Y-93636947D01*
X124372507Y-93687267D01*
X124243232Y-93700000D01*
X124156768Y-93700000D01*
X124027493Y-93687267D01*
X123861606Y-93636947D01*
X123708732Y-93555234D01*
X123574735Y-93445265D01*
X123464766Y-93311268D01*
X123383053Y-93158394D01*
X123332733Y-92992507D01*
X123315742Y-92820000D01*
X123332733Y-92647493D01*
X123383053Y-92481606D01*
X123464766Y-92328732D01*
X123574735Y-92194735D01*
X123708732Y-92084766D01*
X123861606Y-92003053D01*
X124027493Y-91952733D01*
X124156768Y-91940000D01*
X124243232Y-91940000D01*
X124372507Y-91952733D01*
X124372507Y-91952733D01*
G37*
G36*
X126912507Y-91952733D02*
G01*
X127078394Y-92003053D01*
X127231268Y-92084766D01*
X127365265Y-92194735D01*
X127475234Y-92328732D01*
X127556947Y-92481606D01*
X127607267Y-92647493D01*
X127624258Y-92820000D01*
X127607267Y-92992507D01*
X127556947Y-93158394D01*
X127475234Y-93311268D01*
X127365265Y-93445265D01*
X127231268Y-93555234D01*
X127078394Y-93636947D01*
X126912507Y-93687267D01*
X126783232Y-93700000D01*
X126696768Y-93700000D01*
X126567493Y-93687267D01*
X126401606Y-93636947D01*
X126248732Y-93555234D01*
X126114735Y-93445265D01*
X126004766Y-93311268D01*
X125923053Y-93158394D01*
X125872733Y-92992507D01*
X125855742Y-92820000D01*
X125872733Y-92647493D01*
X125923053Y-92481606D01*
X126004766Y-92328732D01*
X126114735Y-92194735D01*
X126248732Y-92084766D01*
X126401606Y-92003053D01*
X126567493Y-91952733D01*
X126696768Y-91940000D01*
X126783232Y-91940000D01*
X126912507Y-91952733D01*
X126912507Y-91952733D01*
G37*
G36*
X109817836Y-92558642D02*
G01*
X109882442Y-92585403D01*
X109940586Y-92624253D01*
X109990033Y-92673700D01*
X110028883Y-92731844D01*
X110055644Y-92796450D01*
X110069286Y-92865036D01*
X110069286Y-92934964D01*
X110055644Y-93003550D01*
X110028883Y-93068156D01*
X109990033Y-93126300D01*
X109940586Y-93175747D01*
X109882442Y-93214597D01*
X109817836Y-93241358D01*
X109749250Y-93255000D01*
X109679322Y-93255000D01*
X109610736Y-93241358D01*
X109546130Y-93214597D01*
X109487986Y-93175747D01*
X109438539Y-93126300D01*
X109399689Y-93068156D01*
X109372928Y-93003550D01*
X109359286Y-92934964D01*
X109359286Y-92865036D01*
X109372928Y-92796450D01*
X109399689Y-92731844D01*
X109438539Y-92673700D01*
X109487986Y-92624253D01*
X109546130Y-92585403D01*
X109610736Y-92558642D01*
X109679322Y-92545000D01*
X109749250Y-92545000D01*
X109817836Y-92558642D01*
X109817836Y-92558642D01*
G37*
G36*
X113032121Y-92558642D02*
G01*
X113096727Y-92585403D01*
X113154871Y-92624253D01*
X113204318Y-92673700D01*
X113243168Y-92731844D01*
X113269929Y-92796450D01*
X113283571Y-92865036D01*
X113283571Y-92934964D01*
X113269929Y-93003550D01*
X113243168Y-93068156D01*
X113204318Y-93126300D01*
X113154871Y-93175747D01*
X113096727Y-93214597D01*
X113032121Y-93241358D01*
X112963535Y-93255000D01*
X112893607Y-93255000D01*
X112825021Y-93241358D01*
X112760415Y-93214597D01*
X112702271Y-93175747D01*
X112652824Y-93126300D01*
X112613974Y-93068156D01*
X112587213Y-93003550D01*
X112573571Y-92934964D01*
X112573571Y-92865036D01*
X112587213Y-92796450D01*
X112613974Y-92731844D01*
X112652824Y-92673700D01*
X112702271Y-92624253D01*
X112760415Y-92585403D01*
X112825021Y-92558642D01*
X112893607Y-92545000D01*
X112963535Y-92545000D01*
X113032121Y-92558642D01*
X113032121Y-92558642D01*
G37*
G36*
X114103550Y-92558642D02*
G01*
X114168156Y-92585403D01*
X114226300Y-92624253D01*
X114275747Y-92673700D01*
X114314597Y-92731844D01*
X114341358Y-92796450D01*
X114355000Y-92865036D01*
X114355000Y-92934964D01*
X114341358Y-93003550D01*
X114314597Y-93068156D01*
X114275747Y-93126300D01*
X114226300Y-93175747D01*
X114168156Y-93214597D01*
X114103550Y-93241358D01*
X114034964Y-93255000D01*
X113965036Y-93255000D01*
X113896450Y-93241358D01*
X113831844Y-93214597D01*
X113773700Y-93175747D01*
X113724253Y-93126300D01*
X113685403Y-93068156D01*
X113658642Y-93003550D01*
X113645000Y-92934964D01*
X113645000Y-92865036D01*
X113658642Y-92796450D01*
X113685403Y-92731844D01*
X113724253Y-92673700D01*
X113773700Y-92624253D01*
X113831844Y-92585403D01*
X113896450Y-92558642D01*
X113965036Y-92545000D01*
X114034964Y-92545000D01*
X114103550Y-92558642D01*
X114103550Y-92558642D01*
G37*
G36*
X111960693Y-92558642D02*
G01*
X112025299Y-92585403D01*
X112083443Y-92624253D01*
X112132890Y-92673700D01*
X112171740Y-92731844D01*
X112198501Y-92796450D01*
X112212143Y-92865036D01*
X112212143Y-92934964D01*
X112198501Y-93003550D01*
X112171740Y-93068156D01*
X112132890Y-93126300D01*
X112083443Y-93175747D01*
X112025299Y-93214597D01*
X111960693Y-93241358D01*
X111892107Y-93255000D01*
X111822179Y-93255000D01*
X111753593Y-93241358D01*
X111688987Y-93214597D01*
X111630843Y-93175747D01*
X111581396Y-93126300D01*
X111542546Y-93068156D01*
X111515785Y-93003550D01*
X111502143Y-92934964D01*
X111502143Y-92865036D01*
X111515785Y-92796450D01*
X111542546Y-92731844D01*
X111581396Y-92673700D01*
X111630843Y-92624253D01*
X111688987Y-92585403D01*
X111753593Y-92558642D01*
X111822179Y-92545000D01*
X111892107Y-92545000D01*
X111960693Y-92558642D01*
X111960693Y-92558642D01*
G37*
G36*
X110889265Y-92558642D02*
G01*
X110953871Y-92585403D01*
X111012015Y-92624253D01*
X111061462Y-92673700D01*
X111100312Y-92731844D01*
X111127073Y-92796450D01*
X111140715Y-92865036D01*
X111140715Y-92934964D01*
X111127073Y-93003550D01*
X111100312Y-93068156D01*
X111061462Y-93126300D01*
X111012015Y-93175747D01*
X110953871Y-93214597D01*
X110889265Y-93241358D01*
X110820679Y-93255000D01*
X110750751Y-93255000D01*
X110682165Y-93241358D01*
X110617559Y-93214597D01*
X110559415Y-93175747D01*
X110509968Y-93126300D01*
X110471118Y-93068156D01*
X110444357Y-93003550D01*
X110430715Y-92934964D01*
X110430715Y-92865036D01*
X110444357Y-92796450D01*
X110471118Y-92731844D01*
X110509968Y-92673700D01*
X110559415Y-92624253D01*
X110617559Y-92585403D01*
X110682165Y-92558642D01*
X110750751Y-92545000D01*
X110820679Y-92545000D01*
X110889265Y-92558642D01*
X110889265Y-92558642D01*
G37*
G36*
X108746408Y-92558642D02*
G01*
X108811014Y-92585403D01*
X108869158Y-92624253D01*
X108918605Y-92673700D01*
X108957455Y-92731844D01*
X108984216Y-92796450D01*
X108997858Y-92865036D01*
X108997858Y-92934964D01*
X108984216Y-93003550D01*
X108957455Y-93068156D01*
X108918605Y-93126300D01*
X108869158Y-93175747D01*
X108811014Y-93214597D01*
X108746408Y-93241358D01*
X108677822Y-93255000D01*
X108607894Y-93255000D01*
X108539308Y-93241358D01*
X108474702Y-93214597D01*
X108416558Y-93175747D01*
X108367111Y-93126300D01*
X108328261Y-93068156D01*
X108301500Y-93003550D01*
X108287858Y-92934964D01*
X108287858Y-92865036D01*
X108301500Y-92796450D01*
X108328261Y-92731844D01*
X108367111Y-92673700D01*
X108416558Y-92624253D01*
X108474702Y-92585403D01*
X108539308Y-92558642D01*
X108607894Y-92545000D01*
X108677822Y-92545000D01*
X108746408Y-92558642D01*
X108746408Y-92558642D01*
G37*
G36*
X115174978Y-92558642D02*
G01*
X115239584Y-92585403D01*
X115297728Y-92624253D01*
X115347175Y-92673700D01*
X115386025Y-92731844D01*
X115412786Y-92796450D01*
X115426428Y-92865036D01*
X115426428Y-92934964D01*
X115412786Y-93003550D01*
X115386025Y-93068156D01*
X115347175Y-93126300D01*
X115297728Y-93175747D01*
X115239584Y-93214597D01*
X115174978Y-93241358D01*
X115106392Y-93255000D01*
X115036464Y-93255000D01*
X114967878Y-93241358D01*
X114903272Y-93214597D01*
X114845128Y-93175747D01*
X114795681Y-93126300D01*
X114756831Y-93068156D01*
X114730070Y-93003550D01*
X114716428Y-92934964D01*
X114716428Y-92865036D01*
X114730070Y-92796450D01*
X114756831Y-92731844D01*
X114795681Y-92673700D01*
X114845128Y-92624253D01*
X114903272Y-92585403D01*
X114967878Y-92558642D01*
X115036464Y-92545000D01*
X115106392Y-92545000D01*
X115174978Y-92558642D01*
X115174978Y-92558642D01*
G37*
G36*
X108746408Y-91487214D02*
G01*
X108811014Y-91513975D01*
X108869158Y-91552825D01*
X108918605Y-91602272D01*
X108957455Y-91660416D01*
X108984216Y-91725022D01*
X108997858Y-91793608D01*
X108997858Y-91863536D01*
X108984216Y-91932122D01*
X108957455Y-91996728D01*
X108918605Y-92054872D01*
X108869158Y-92104319D01*
X108811014Y-92143169D01*
X108746408Y-92169930D01*
X108677822Y-92183572D01*
X108607894Y-92183572D01*
X108539308Y-92169930D01*
X108474702Y-92143169D01*
X108416558Y-92104319D01*
X108367111Y-92054872D01*
X108328261Y-91996728D01*
X108301500Y-91932122D01*
X108287858Y-91863536D01*
X108287858Y-91793608D01*
X108301500Y-91725022D01*
X108328261Y-91660416D01*
X108367111Y-91602272D01*
X108416558Y-91552825D01*
X108474702Y-91513975D01*
X108539308Y-91487214D01*
X108607894Y-91473572D01*
X108677822Y-91473572D01*
X108746408Y-91487214D01*
X108746408Y-91487214D01*
G37*
G36*
X115174978Y-91487214D02*
G01*
X115239584Y-91513975D01*
X115297728Y-91552825D01*
X115347175Y-91602272D01*
X115386025Y-91660416D01*
X115412786Y-91725022D01*
X115426428Y-91793608D01*
X115426428Y-91863536D01*
X115412786Y-91932122D01*
X115386025Y-91996728D01*
X115347175Y-92054872D01*
X115297728Y-92104319D01*
X115239584Y-92143169D01*
X115174978Y-92169930D01*
X115106392Y-92183572D01*
X115036464Y-92183572D01*
X114967878Y-92169930D01*
X114903272Y-92143169D01*
X114845128Y-92104319D01*
X114795681Y-92054872D01*
X114756831Y-91996728D01*
X114730070Y-91932122D01*
X114716428Y-91863536D01*
X114716428Y-91793608D01*
X114730070Y-91725022D01*
X114756831Y-91660416D01*
X114795681Y-91602272D01*
X114845128Y-91552825D01*
X114903272Y-91513975D01*
X114967878Y-91487214D01*
X115036464Y-91473572D01*
X115106392Y-91473572D01*
X115174978Y-91487214D01*
X115174978Y-91487214D01*
G37*
G36*
X114103550Y-91487214D02*
G01*
X114168156Y-91513975D01*
X114226300Y-91552825D01*
X114275747Y-91602272D01*
X114314597Y-91660416D01*
X114341358Y-91725022D01*
X114355000Y-91793608D01*
X114355000Y-91863536D01*
X114341358Y-91932122D01*
X114314597Y-91996728D01*
X114275747Y-92054872D01*
X114226300Y-92104319D01*
X114168156Y-92143169D01*
X114103550Y-92169930D01*
X114034964Y-92183572D01*
X113965036Y-92183572D01*
X113896450Y-92169930D01*
X113831844Y-92143169D01*
X113773700Y-92104319D01*
X113724253Y-92054872D01*
X113685403Y-91996728D01*
X113658642Y-91932122D01*
X113645000Y-91863536D01*
X113645000Y-91793608D01*
X113658642Y-91725022D01*
X113685403Y-91660416D01*
X113724253Y-91602272D01*
X113773700Y-91552825D01*
X113831844Y-91513975D01*
X113896450Y-91487214D01*
X113965036Y-91473572D01*
X114034964Y-91473572D01*
X114103550Y-91487214D01*
X114103550Y-91487214D01*
G37*
G36*
X113032121Y-91487214D02*
G01*
X113096727Y-91513975D01*
X113154871Y-91552825D01*
X113204318Y-91602272D01*
X113243168Y-91660416D01*
X113269929Y-91725022D01*
X113283571Y-91793608D01*
X113283571Y-91863536D01*
X113269929Y-91932122D01*
X113243168Y-91996728D01*
X113204318Y-92054872D01*
X113154871Y-92104319D01*
X113096727Y-92143169D01*
X113032121Y-92169930D01*
X112963535Y-92183572D01*
X112893607Y-92183572D01*
X112825021Y-92169930D01*
X112760415Y-92143169D01*
X112702271Y-92104319D01*
X112652824Y-92054872D01*
X112613974Y-91996728D01*
X112587213Y-91932122D01*
X112573571Y-91863536D01*
X112573571Y-91793608D01*
X112587213Y-91725022D01*
X112613974Y-91660416D01*
X112652824Y-91602272D01*
X112702271Y-91552825D01*
X112760415Y-91513975D01*
X112825021Y-91487214D01*
X112893607Y-91473572D01*
X112963535Y-91473572D01*
X113032121Y-91487214D01*
X113032121Y-91487214D01*
G37*
G36*
X111960693Y-91487214D02*
G01*
X112025299Y-91513975D01*
X112083443Y-91552825D01*
X112132890Y-91602272D01*
X112171740Y-91660416D01*
X112198501Y-91725022D01*
X112212143Y-91793608D01*
X112212143Y-91863536D01*
X112198501Y-91932122D01*
X112171740Y-91996728D01*
X112132890Y-92054872D01*
X112083443Y-92104319D01*
X112025299Y-92143169D01*
X111960693Y-92169930D01*
X111892107Y-92183572D01*
X111822179Y-92183572D01*
X111753593Y-92169930D01*
X111688987Y-92143169D01*
X111630843Y-92104319D01*
X111581396Y-92054872D01*
X111542546Y-91996728D01*
X111515785Y-91932122D01*
X111502143Y-91863536D01*
X111502143Y-91793608D01*
X111515785Y-91725022D01*
X111542546Y-91660416D01*
X111581396Y-91602272D01*
X111630843Y-91552825D01*
X111688987Y-91513975D01*
X111753593Y-91487214D01*
X111822179Y-91473572D01*
X111892107Y-91473572D01*
X111960693Y-91487214D01*
X111960693Y-91487214D01*
G37*
G36*
X110889265Y-91487214D02*
G01*
X110953871Y-91513975D01*
X111012015Y-91552825D01*
X111061462Y-91602272D01*
X111100312Y-91660416D01*
X111127073Y-91725022D01*
X111140715Y-91793608D01*
X111140715Y-91863536D01*
X111127073Y-91932122D01*
X111100312Y-91996728D01*
X111061462Y-92054872D01*
X111012015Y-92104319D01*
X110953871Y-92143169D01*
X110889265Y-92169930D01*
X110820679Y-92183572D01*
X110750751Y-92183572D01*
X110682165Y-92169930D01*
X110617559Y-92143169D01*
X110559415Y-92104319D01*
X110509968Y-92054872D01*
X110471118Y-91996728D01*
X110444357Y-91932122D01*
X110430715Y-91863536D01*
X110430715Y-91793608D01*
X110444357Y-91725022D01*
X110471118Y-91660416D01*
X110509968Y-91602272D01*
X110559415Y-91552825D01*
X110617559Y-91513975D01*
X110682165Y-91487214D01*
X110750751Y-91473572D01*
X110820679Y-91473572D01*
X110889265Y-91487214D01*
X110889265Y-91487214D01*
G37*
G36*
X109817836Y-91487214D02*
G01*
X109882442Y-91513975D01*
X109940586Y-91552825D01*
X109990033Y-91602272D01*
X110028883Y-91660416D01*
X110055644Y-91725022D01*
X110069286Y-91793608D01*
X110069286Y-91863536D01*
X110055644Y-91932122D01*
X110028883Y-91996728D01*
X109990033Y-92054872D01*
X109940586Y-92104319D01*
X109882442Y-92143169D01*
X109817836Y-92169930D01*
X109749250Y-92183572D01*
X109679322Y-92183572D01*
X109610736Y-92169930D01*
X109546130Y-92143169D01*
X109487986Y-92104319D01*
X109438539Y-92054872D01*
X109399689Y-91996728D01*
X109372928Y-91932122D01*
X109359286Y-91863536D01*
X109359286Y-91793608D01*
X109372928Y-91725022D01*
X109399689Y-91660416D01*
X109438539Y-91602272D01*
X109487986Y-91552825D01*
X109546130Y-91513975D01*
X109610736Y-91487214D01*
X109679322Y-91473572D01*
X109749250Y-91473572D01*
X109817836Y-91487214D01*
X109817836Y-91487214D01*
G37*
G36*
X124372507Y-89412733D02*
G01*
X124538394Y-89463053D01*
X124691268Y-89544766D01*
X124825265Y-89654735D01*
X124935234Y-89788732D01*
X125016947Y-89941606D01*
X125067267Y-90107493D01*
X125084258Y-90280000D01*
X125067267Y-90452507D01*
X125016947Y-90618394D01*
X124935234Y-90771268D01*
X124825265Y-90905265D01*
X124691268Y-91015234D01*
X124538394Y-91096947D01*
X124372507Y-91147267D01*
X124243232Y-91160000D01*
X124156768Y-91160000D01*
X124027493Y-91147267D01*
X123861606Y-91096947D01*
X123708732Y-91015234D01*
X123574735Y-90905265D01*
X123464766Y-90771268D01*
X123383053Y-90618394D01*
X123332733Y-90452507D01*
X123315742Y-90280000D01*
X123332733Y-90107493D01*
X123383053Y-89941606D01*
X123464766Y-89788732D01*
X123574735Y-89654735D01*
X123708732Y-89544766D01*
X123861606Y-89463053D01*
X124027493Y-89412733D01*
X124156768Y-89400000D01*
X124243232Y-89400000D01*
X124372507Y-89412733D01*
X124372507Y-89412733D01*
G37*
G36*
X126912507Y-89412733D02*
G01*
X127078394Y-89463053D01*
X127231268Y-89544766D01*
X127365265Y-89654735D01*
X127475234Y-89788732D01*
X127556947Y-89941606D01*
X127607267Y-90107493D01*
X127624258Y-90280000D01*
X127607267Y-90452507D01*
X127556947Y-90618394D01*
X127475234Y-90771268D01*
X127365265Y-90905265D01*
X127231268Y-91015234D01*
X127078394Y-91096947D01*
X126912507Y-91147267D01*
X126783232Y-91160000D01*
X126696768Y-91160000D01*
X126567493Y-91147267D01*
X126401606Y-91096947D01*
X126248732Y-91015234D01*
X126114735Y-90905265D01*
X126004766Y-90771268D01*
X125923053Y-90618394D01*
X125872733Y-90452507D01*
X125855742Y-90280000D01*
X125872733Y-90107493D01*
X125923053Y-89941606D01*
X126004766Y-89788732D01*
X126114735Y-89654735D01*
X126248732Y-89544766D01*
X126401606Y-89463053D01*
X126567493Y-89412733D01*
X126696768Y-89400000D01*
X126783232Y-89400000D01*
X126912507Y-89412733D01*
X126912507Y-89412733D01*
G37*
G36*
X108746408Y-90415786D02*
G01*
X108811014Y-90442547D01*
X108869158Y-90481397D01*
X108918605Y-90530844D01*
X108957455Y-90588988D01*
X108984216Y-90653594D01*
X108997858Y-90722180D01*
X108997858Y-90792108D01*
X108984216Y-90860694D01*
X108957455Y-90925300D01*
X108918605Y-90983444D01*
X108869158Y-91032891D01*
X108811014Y-91071741D01*
X108746408Y-91098502D01*
X108677822Y-91112144D01*
X108607894Y-91112144D01*
X108539308Y-91098502D01*
X108474702Y-91071741D01*
X108416558Y-91032891D01*
X108367111Y-90983444D01*
X108328261Y-90925300D01*
X108301500Y-90860694D01*
X108287858Y-90792108D01*
X108287858Y-90722180D01*
X108301500Y-90653594D01*
X108328261Y-90588988D01*
X108367111Y-90530844D01*
X108416558Y-90481397D01*
X108474702Y-90442547D01*
X108539308Y-90415786D01*
X108607894Y-90402144D01*
X108677822Y-90402144D01*
X108746408Y-90415786D01*
X108746408Y-90415786D01*
G37*
G36*
X109817836Y-90415786D02*
G01*
X109882442Y-90442547D01*
X109940586Y-90481397D01*
X109990033Y-90530844D01*
X110028883Y-90588988D01*
X110055644Y-90653594D01*
X110069286Y-90722180D01*
X110069286Y-90792108D01*
X110055644Y-90860694D01*
X110028883Y-90925300D01*
X109990033Y-90983444D01*
X109940586Y-91032891D01*
X109882442Y-91071741D01*
X109817836Y-91098502D01*
X109749250Y-91112144D01*
X109679322Y-91112144D01*
X109610736Y-91098502D01*
X109546130Y-91071741D01*
X109487986Y-91032891D01*
X109438539Y-90983444D01*
X109399689Y-90925300D01*
X109372928Y-90860694D01*
X109359286Y-90792108D01*
X109359286Y-90722180D01*
X109372928Y-90653594D01*
X109399689Y-90588988D01*
X109438539Y-90530844D01*
X109487986Y-90481397D01*
X109546130Y-90442547D01*
X109610736Y-90415786D01*
X109679322Y-90402144D01*
X109749250Y-90402144D01*
X109817836Y-90415786D01*
X109817836Y-90415786D01*
G37*
G36*
X114103550Y-90415786D02*
G01*
X114168156Y-90442547D01*
X114226300Y-90481397D01*
X114275747Y-90530844D01*
X114314597Y-90588988D01*
X114341358Y-90653594D01*
X114355000Y-90722180D01*
X114355000Y-90792108D01*
X114341358Y-90860694D01*
X114314597Y-90925300D01*
X114275747Y-90983444D01*
X114226300Y-91032891D01*
X114168156Y-91071741D01*
X114103550Y-91098502D01*
X114034964Y-91112144D01*
X113965036Y-91112144D01*
X113896450Y-91098502D01*
X113831844Y-91071741D01*
X113773700Y-91032891D01*
X113724253Y-90983444D01*
X113685403Y-90925300D01*
X113658642Y-90860694D01*
X113645000Y-90792108D01*
X113645000Y-90722180D01*
X113658642Y-90653594D01*
X113685403Y-90588988D01*
X113724253Y-90530844D01*
X113773700Y-90481397D01*
X113831844Y-90442547D01*
X113896450Y-90415786D01*
X113965036Y-90402144D01*
X114034964Y-90402144D01*
X114103550Y-90415786D01*
X114103550Y-90415786D01*
G37*
G36*
X113032121Y-90415786D02*
G01*
X113096727Y-90442547D01*
X113154871Y-90481397D01*
X113204318Y-90530844D01*
X113243168Y-90588988D01*
X113269929Y-90653594D01*
X113283571Y-90722180D01*
X113283571Y-90792108D01*
X113269929Y-90860694D01*
X113243168Y-90925300D01*
X113204318Y-90983444D01*
X113154871Y-91032891D01*
X113096727Y-91071741D01*
X113032121Y-91098502D01*
X112963535Y-91112144D01*
X112893607Y-91112144D01*
X112825021Y-91098502D01*
X112760415Y-91071741D01*
X112702271Y-91032891D01*
X112652824Y-90983444D01*
X112613974Y-90925300D01*
X112587213Y-90860694D01*
X112573571Y-90792108D01*
X112573571Y-90722180D01*
X112587213Y-90653594D01*
X112613974Y-90588988D01*
X112652824Y-90530844D01*
X112702271Y-90481397D01*
X112760415Y-90442547D01*
X112825021Y-90415786D01*
X112893607Y-90402144D01*
X112963535Y-90402144D01*
X113032121Y-90415786D01*
X113032121Y-90415786D01*
G37*
G36*
X111960693Y-90415786D02*
G01*
X112025299Y-90442547D01*
X112083443Y-90481397D01*
X112132890Y-90530844D01*
X112171740Y-90588988D01*
X112198501Y-90653594D01*
X112212143Y-90722180D01*
X112212143Y-90792108D01*
X112198501Y-90860694D01*
X112171740Y-90925300D01*
X112132890Y-90983444D01*
X112083443Y-91032891D01*
X112025299Y-91071741D01*
X111960693Y-91098502D01*
X111892107Y-91112144D01*
X111822179Y-91112144D01*
X111753593Y-91098502D01*
X111688987Y-91071741D01*
X111630843Y-91032891D01*
X111581396Y-90983444D01*
X111542546Y-90925300D01*
X111515785Y-90860694D01*
X111502143Y-90792108D01*
X111502143Y-90722180D01*
X111515785Y-90653594D01*
X111542546Y-90588988D01*
X111581396Y-90530844D01*
X111630843Y-90481397D01*
X111688987Y-90442547D01*
X111753593Y-90415786D01*
X111822179Y-90402144D01*
X111892107Y-90402144D01*
X111960693Y-90415786D01*
X111960693Y-90415786D01*
G37*
G36*
X110889265Y-90415786D02*
G01*
X110953871Y-90442547D01*
X111012015Y-90481397D01*
X111061462Y-90530844D01*
X111100312Y-90588988D01*
X111127073Y-90653594D01*
X111140715Y-90722180D01*
X111140715Y-90792108D01*
X111127073Y-90860694D01*
X111100312Y-90925300D01*
X111061462Y-90983444D01*
X111012015Y-91032891D01*
X110953871Y-91071741D01*
X110889265Y-91098502D01*
X110820679Y-91112144D01*
X110750751Y-91112144D01*
X110682165Y-91098502D01*
X110617559Y-91071741D01*
X110559415Y-91032891D01*
X110509968Y-90983444D01*
X110471118Y-90925300D01*
X110444357Y-90860694D01*
X110430715Y-90792108D01*
X110430715Y-90722180D01*
X110444357Y-90653594D01*
X110471118Y-90588988D01*
X110509968Y-90530844D01*
X110559415Y-90481397D01*
X110617559Y-90442547D01*
X110682165Y-90415786D01*
X110750751Y-90402144D01*
X110820679Y-90402144D01*
X110889265Y-90415786D01*
X110889265Y-90415786D01*
G37*
G36*
X115174978Y-90415786D02*
G01*
X115239584Y-90442547D01*
X115297728Y-90481397D01*
X115347175Y-90530844D01*
X115386025Y-90588988D01*
X115412786Y-90653594D01*
X115426428Y-90722180D01*
X115426428Y-90792108D01*
X115412786Y-90860694D01*
X115386025Y-90925300D01*
X115347175Y-90983444D01*
X115297728Y-91032891D01*
X115239584Y-91071741D01*
X115174978Y-91098502D01*
X115106392Y-91112144D01*
X115036464Y-91112144D01*
X114967878Y-91098502D01*
X114903272Y-91071741D01*
X114845128Y-91032891D01*
X114795681Y-90983444D01*
X114756831Y-90925300D01*
X114730070Y-90860694D01*
X114716428Y-90792108D01*
X114716428Y-90722180D01*
X114730070Y-90653594D01*
X114756831Y-90588988D01*
X114795681Y-90530844D01*
X114845128Y-90481397D01*
X114903272Y-90442547D01*
X114967878Y-90415786D01*
X115036464Y-90402144D01*
X115106392Y-90402144D01*
X115174978Y-90415786D01*
X115174978Y-90415786D01*
G37*
G36*
X108746408Y-89344357D02*
G01*
X108811014Y-89371118D01*
X108869158Y-89409968D01*
X108918605Y-89459415D01*
X108957455Y-89517559D01*
X108984216Y-89582165D01*
X108997858Y-89650751D01*
X108997858Y-89720679D01*
X108984216Y-89789265D01*
X108957455Y-89853871D01*
X108918605Y-89912015D01*
X108869158Y-89961462D01*
X108811014Y-90000312D01*
X108746408Y-90027073D01*
X108677822Y-90040715D01*
X108607894Y-90040715D01*
X108539308Y-90027073D01*
X108474702Y-90000312D01*
X108416558Y-89961462D01*
X108367111Y-89912015D01*
X108328261Y-89853871D01*
X108301500Y-89789265D01*
X108287858Y-89720679D01*
X108287858Y-89650751D01*
X108301500Y-89582165D01*
X108328261Y-89517559D01*
X108367111Y-89459415D01*
X108416558Y-89409968D01*
X108474702Y-89371118D01*
X108539308Y-89344357D01*
X108607894Y-89330715D01*
X108677822Y-89330715D01*
X108746408Y-89344357D01*
X108746408Y-89344357D01*
G37*
G36*
X109817836Y-89344357D02*
G01*
X109882442Y-89371118D01*
X109940586Y-89409968D01*
X109990033Y-89459415D01*
X110028883Y-89517559D01*
X110055644Y-89582165D01*
X110069286Y-89650751D01*
X110069286Y-89720679D01*
X110055644Y-89789265D01*
X110028883Y-89853871D01*
X109990033Y-89912015D01*
X109940586Y-89961462D01*
X109882442Y-90000312D01*
X109817836Y-90027073D01*
X109749250Y-90040715D01*
X109679322Y-90040715D01*
X109610736Y-90027073D01*
X109546130Y-90000312D01*
X109487986Y-89961462D01*
X109438539Y-89912015D01*
X109399689Y-89853871D01*
X109372928Y-89789265D01*
X109359286Y-89720679D01*
X109359286Y-89650751D01*
X109372928Y-89582165D01*
X109399689Y-89517559D01*
X109438539Y-89459415D01*
X109487986Y-89409968D01*
X109546130Y-89371118D01*
X109610736Y-89344357D01*
X109679322Y-89330715D01*
X109749250Y-89330715D01*
X109817836Y-89344357D01*
X109817836Y-89344357D01*
G37*
G36*
X115174978Y-89344357D02*
G01*
X115239584Y-89371118D01*
X115297728Y-89409968D01*
X115347175Y-89459415D01*
X115386025Y-89517559D01*
X115412786Y-89582165D01*
X115426428Y-89650751D01*
X115426428Y-89720679D01*
X115412786Y-89789265D01*
X115386025Y-89853871D01*
X115347175Y-89912015D01*
X115297728Y-89961462D01*
X115239584Y-90000312D01*
X115174978Y-90027073D01*
X115106392Y-90040715D01*
X115036464Y-90040715D01*
X114967878Y-90027073D01*
X114903272Y-90000312D01*
X114845128Y-89961462D01*
X114795681Y-89912015D01*
X114756831Y-89853871D01*
X114730070Y-89789265D01*
X114716428Y-89720679D01*
X114716428Y-89650751D01*
X114730070Y-89582165D01*
X114756831Y-89517559D01*
X114795681Y-89459415D01*
X114845128Y-89409968D01*
X114903272Y-89371118D01*
X114967878Y-89344357D01*
X115036464Y-89330715D01*
X115106392Y-89330715D01*
X115174978Y-89344357D01*
X115174978Y-89344357D01*
G37*
G36*
X113032121Y-89344357D02*
G01*
X113096727Y-89371118D01*
X113154871Y-89409968D01*
X113204318Y-89459415D01*
X113243168Y-89517559D01*
X113269929Y-89582165D01*
X113283571Y-89650751D01*
X113283571Y-89720679D01*
X113269929Y-89789265D01*
X113243168Y-89853871D01*
X113204318Y-89912015D01*
X113154871Y-89961462D01*
X113096727Y-90000312D01*
X113032121Y-90027073D01*
X112963535Y-90040715D01*
X112893607Y-90040715D01*
X112825021Y-90027073D01*
X112760415Y-90000312D01*
X112702271Y-89961462D01*
X112652824Y-89912015D01*
X112613974Y-89853871D01*
X112587213Y-89789265D01*
X112573571Y-89720679D01*
X112573571Y-89650751D01*
X112587213Y-89582165D01*
X112613974Y-89517559D01*
X112652824Y-89459415D01*
X112702271Y-89409968D01*
X112760415Y-89371118D01*
X112825021Y-89344357D01*
X112893607Y-89330715D01*
X112963535Y-89330715D01*
X113032121Y-89344357D01*
X113032121Y-89344357D01*
G37*
G36*
X114103550Y-89344357D02*
G01*
X114168156Y-89371118D01*
X114226300Y-89409968D01*
X114275747Y-89459415D01*
X114314597Y-89517559D01*
X114341358Y-89582165D01*
X114355000Y-89650751D01*
X114355000Y-89720679D01*
X114341358Y-89789265D01*
X114314597Y-89853871D01*
X114275747Y-89912015D01*
X114226300Y-89961462D01*
X114168156Y-90000312D01*
X114103550Y-90027073D01*
X114034964Y-90040715D01*
X113965036Y-90040715D01*
X113896450Y-90027073D01*
X113831844Y-90000312D01*
X113773700Y-89961462D01*
X113724253Y-89912015D01*
X113685403Y-89853871D01*
X113658642Y-89789265D01*
X113645000Y-89720679D01*
X113645000Y-89650751D01*
X113658642Y-89582165D01*
X113685403Y-89517559D01*
X113724253Y-89459415D01*
X113773700Y-89409968D01*
X113831844Y-89371118D01*
X113896450Y-89344357D01*
X113965036Y-89330715D01*
X114034964Y-89330715D01*
X114103550Y-89344357D01*
X114103550Y-89344357D01*
G37*
G36*
X110889265Y-89344357D02*
G01*
X110953871Y-89371118D01*
X111012015Y-89409968D01*
X111061462Y-89459415D01*
X111100312Y-89517559D01*
X111127073Y-89582165D01*
X111140715Y-89650751D01*
X111140715Y-89720679D01*
X111127073Y-89789265D01*
X111100312Y-89853871D01*
X111061462Y-89912015D01*
X111012015Y-89961462D01*
X110953871Y-90000312D01*
X110889265Y-90027073D01*
X110820679Y-90040715D01*
X110750751Y-90040715D01*
X110682165Y-90027073D01*
X110617559Y-90000312D01*
X110559415Y-89961462D01*
X110509968Y-89912015D01*
X110471118Y-89853871D01*
X110444357Y-89789265D01*
X110430715Y-89720679D01*
X110430715Y-89650751D01*
X110444357Y-89582165D01*
X110471118Y-89517559D01*
X110509968Y-89459415D01*
X110559415Y-89409968D01*
X110617559Y-89371118D01*
X110682165Y-89344357D01*
X110750751Y-89330715D01*
X110820679Y-89330715D01*
X110889265Y-89344357D01*
X110889265Y-89344357D01*
G37*
G36*
X111960693Y-89344357D02*
G01*
X112025299Y-89371118D01*
X112083443Y-89409968D01*
X112132890Y-89459415D01*
X112171740Y-89517559D01*
X112198501Y-89582165D01*
X112212143Y-89650751D01*
X112212143Y-89720679D01*
X112198501Y-89789265D01*
X112171740Y-89853871D01*
X112132890Y-89912015D01*
X112083443Y-89961462D01*
X112025299Y-90000312D01*
X111960693Y-90027073D01*
X111892107Y-90040715D01*
X111822179Y-90040715D01*
X111753593Y-90027073D01*
X111688987Y-90000312D01*
X111630843Y-89961462D01*
X111581396Y-89912015D01*
X111542546Y-89853871D01*
X111515785Y-89789265D01*
X111502143Y-89720679D01*
X111502143Y-89650751D01*
X111515785Y-89582165D01*
X111542546Y-89517559D01*
X111581396Y-89459415D01*
X111630843Y-89409968D01*
X111688987Y-89371118D01*
X111753593Y-89344357D01*
X111822179Y-89330715D01*
X111892107Y-89330715D01*
X111960693Y-89344357D01*
X111960693Y-89344357D01*
G37*
G36*
X114103550Y-88272929D02*
G01*
X114168156Y-88299690D01*
X114226300Y-88338540D01*
X114275747Y-88387987D01*
X114314597Y-88446131D01*
X114341358Y-88510737D01*
X114355000Y-88579323D01*
X114355000Y-88649251D01*
X114341358Y-88717837D01*
X114314597Y-88782443D01*
X114275747Y-88840587D01*
X114226300Y-88890034D01*
X114168156Y-88928884D01*
X114103550Y-88955645D01*
X114034964Y-88969287D01*
X113965036Y-88969287D01*
X113896450Y-88955645D01*
X113831844Y-88928884D01*
X113773700Y-88890034D01*
X113724253Y-88840587D01*
X113685403Y-88782443D01*
X113658642Y-88717837D01*
X113645000Y-88649251D01*
X113645000Y-88579323D01*
X113658642Y-88510737D01*
X113685403Y-88446131D01*
X113724253Y-88387987D01*
X113773700Y-88338540D01*
X113831844Y-88299690D01*
X113896450Y-88272929D01*
X113965036Y-88259287D01*
X114034964Y-88259287D01*
X114103550Y-88272929D01*
X114103550Y-88272929D01*
G37*
G36*
X115174978Y-88272929D02*
G01*
X115239584Y-88299690D01*
X115297728Y-88338540D01*
X115347175Y-88387987D01*
X115386025Y-88446131D01*
X115412786Y-88510737D01*
X115426428Y-88579323D01*
X115426428Y-88649251D01*
X115412786Y-88717837D01*
X115386025Y-88782443D01*
X115347175Y-88840587D01*
X115297728Y-88890034D01*
X115239584Y-88928884D01*
X115174978Y-88955645D01*
X115106392Y-88969287D01*
X115036464Y-88969287D01*
X114967878Y-88955645D01*
X114903272Y-88928884D01*
X114845128Y-88890034D01*
X114795681Y-88840587D01*
X114756831Y-88782443D01*
X114730070Y-88717837D01*
X114716428Y-88649251D01*
X114716428Y-88579323D01*
X114730070Y-88510737D01*
X114756831Y-88446131D01*
X114795681Y-88387987D01*
X114845128Y-88338540D01*
X114903272Y-88299690D01*
X114967878Y-88272929D01*
X115036464Y-88259287D01*
X115106392Y-88259287D01*
X115174978Y-88272929D01*
X115174978Y-88272929D01*
G37*
G36*
X108746408Y-88272929D02*
G01*
X108811014Y-88299690D01*
X108869158Y-88338540D01*
X108918605Y-88387987D01*
X108957455Y-88446131D01*
X108984216Y-88510737D01*
X108997858Y-88579323D01*
X108997858Y-88649251D01*
X108984216Y-88717837D01*
X108957455Y-88782443D01*
X108918605Y-88840587D01*
X108869158Y-88890034D01*
X108811014Y-88928884D01*
X108746408Y-88955645D01*
X108677822Y-88969287D01*
X108607894Y-88969287D01*
X108539308Y-88955645D01*
X108474702Y-88928884D01*
X108416558Y-88890034D01*
X108367111Y-88840587D01*
X108328261Y-88782443D01*
X108301500Y-88717837D01*
X108287858Y-88649251D01*
X108287858Y-88579323D01*
X108301500Y-88510737D01*
X108328261Y-88446131D01*
X108367111Y-88387987D01*
X108416558Y-88338540D01*
X108474702Y-88299690D01*
X108539308Y-88272929D01*
X108607894Y-88259287D01*
X108677822Y-88259287D01*
X108746408Y-88272929D01*
X108746408Y-88272929D01*
G37*
G36*
X109817836Y-88272929D02*
G01*
X109882442Y-88299690D01*
X109940586Y-88338540D01*
X109990033Y-88387987D01*
X110028883Y-88446131D01*
X110055644Y-88510737D01*
X110069286Y-88579323D01*
X110069286Y-88649251D01*
X110055644Y-88717837D01*
X110028883Y-88782443D01*
X109990033Y-88840587D01*
X109940586Y-88890034D01*
X109882442Y-88928884D01*
X109817836Y-88955645D01*
X109749250Y-88969287D01*
X109679322Y-88969287D01*
X109610736Y-88955645D01*
X109546130Y-88928884D01*
X109487986Y-88890034D01*
X109438539Y-88840587D01*
X109399689Y-88782443D01*
X109372928Y-88717837D01*
X109359286Y-88649251D01*
X109359286Y-88579323D01*
X109372928Y-88510737D01*
X109399689Y-88446131D01*
X109438539Y-88387987D01*
X109487986Y-88338540D01*
X109546130Y-88299690D01*
X109610736Y-88272929D01*
X109679322Y-88259287D01*
X109749250Y-88259287D01*
X109817836Y-88272929D01*
X109817836Y-88272929D01*
G37*
G36*
X110889265Y-88272929D02*
G01*
X110953871Y-88299690D01*
X111012015Y-88338540D01*
X111061462Y-88387987D01*
X111100312Y-88446131D01*
X111127073Y-88510737D01*
X111140715Y-88579323D01*
X111140715Y-88649251D01*
X111127073Y-88717837D01*
X111100312Y-88782443D01*
X111061462Y-88840587D01*
X111012015Y-88890034D01*
X110953871Y-88928884D01*
X110889265Y-88955645D01*
X110820679Y-88969287D01*
X110750751Y-88969287D01*
X110682165Y-88955645D01*
X110617559Y-88928884D01*
X110559415Y-88890034D01*
X110509968Y-88840587D01*
X110471118Y-88782443D01*
X110444357Y-88717837D01*
X110430715Y-88649251D01*
X110430715Y-88579323D01*
X110444357Y-88510737D01*
X110471118Y-88446131D01*
X110509968Y-88387987D01*
X110559415Y-88338540D01*
X110617559Y-88299690D01*
X110682165Y-88272929D01*
X110750751Y-88259287D01*
X110820679Y-88259287D01*
X110889265Y-88272929D01*
X110889265Y-88272929D01*
G37*
G36*
X111960693Y-88272929D02*
G01*
X112025299Y-88299690D01*
X112083443Y-88338540D01*
X112132890Y-88387987D01*
X112171740Y-88446131D01*
X112198501Y-88510737D01*
X112212143Y-88579323D01*
X112212143Y-88649251D01*
X112198501Y-88717837D01*
X112171740Y-88782443D01*
X112132890Y-88840587D01*
X112083443Y-88890034D01*
X112025299Y-88928884D01*
X111960693Y-88955645D01*
X111892107Y-88969287D01*
X111822179Y-88969287D01*
X111753593Y-88955645D01*
X111688987Y-88928884D01*
X111630843Y-88890034D01*
X111581396Y-88840587D01*
X111542546Y-88782443D01*
X111515785Y-88717837D01*
X111502143Y-88649251D01*
X111502143Y-88579323D01*
X111515785Y-88510737D01*
X111542546Y-88446131D01*
X111581396Y-88387987D01*
X111630843Y-88338540D01*
X111688987Y-88299690D01*
X111753593Y-88272929D01*
X111822179Y-88259287D01*
X111892107Y-88259287D01*
X111960693Y-88272929D01*
X111960693Y-88272929D01*
G37*
G36*
X113032121Y-88272929D02*
G01*
X113096727Y-88299690D01*
X113154871Y-88338540D01*
X113204318Y-88387987D01*
X113243168Y-88446131D01*
X113269929Y-88510737D01*
X113283571Y-88579323D01*
X113283571Y-88649251D01*
X113269929Y-88717837D01*
X113243168Y-88782443D01*
X113204318Y-88840587D01*
X113154871Y-88890034D01*
X113096727Y-88928884D01*
X113032121Y-88955645D01*
X112963535Y-88969287D01*
X112893607Y-88969287D01*
X112825021Y-88955645D01*
X112760415Y-88928884D01*
X112702271Y-88890034D01*
X112652824Y-88840587D01*
X112613974Y-88782443D01*
X112587213Y-88717837D01*
X112573571Y-88649251D01*
X112573571Y-88579323D01*
X112587213Y-88510737D01*
X112613974Y-88446131D01*
X112652824Y-88387987D01*
X112702271Y-88338540D01*
X112760415Y-88299690D01*
X112825021Y-88272929D01*
X112893607Y-88259287D01*
X112963535Y-88259287D01*
X113032121Y-88272929D01*
X113032121Y-88272929D01*
G37*
G36*
X126912507Y-86872733D02*
G01*
X127078394Y-86923053D01*
X127231268Y-87004766D01*
X127365265Y-87114735D01*
X127475234Y-87248732D01*
X127556947Y-87401606D01*
X127607267Y-87567493D01*
X127624258Y-87740000D01*
X127607267Y-87912507D01*
X127556947Y-88078394D01*
X127475234Y-88231268D01*
X127365265Y-88365265D01*
X127231268Y-88475234D01*
X127078394Y-88556947D01*
X126912507Y-88607267D01*
X126783232Y-88620000D01*
X126696768Y-88620000D01*
X126567493Y-88607267D01*
X126401606Y-88556947D01*
X126248732Y-88475234D01*
X126114735Y-88365265D01*
X126004766Y-88231268D01*
X125923053Y-88078394D01*
X125872733Y-87912507D01*
X125855742Y-87740000D01*
X125872733Y-87567493D01*
X125923053Y-87401606D01*
X126004766Y-87248732D01*
X126114735Y-87114735D01*
X126248732Y-87004766D01*
X126401606Y-86923053D01*
X126567493Y-86872733D01*
X126696768Y-86860000D01*
X126783232Y-86860000D01*
X126912507Y-86872733D01*
X126912507Y-86872733D01*
G37*
G36*
X124372507Y-86872733D02*
G01*
X124538394Y-86923053D01*
X124691268Y-87004766D01*
X124825265Y-87114735D01*
X124935234Y-87248732D01*
X125016947Y-87401606D01*
X125067267Y-87567493D01*
X125084258Y-87740000D01*
X125067267Y-87912507D01*
X125016947Y-88078394D01*
X124935234Y-88231268D01*
X124825265Y-88365265D01*
X124691268Y-88475234D01*
X124538394Y-88556947D01*
X124372507Y-88607267D01*
X124243232Y-88620000D01*
X124156768Y-88620000D01*
X124027493Y-88607267D01*
X123861606Y-88556947D01*
X123708732Y-88475234D01*
X123574735Y-88365265D01*
X123464766Y-88231268D01*
X123383053Y-88078394D01*
X123332733Y-87912507D01*
X123315742Y-87740000D01*
X123332733Y-87567493D01*
X123383053Y-87401606D01*
X123464766Y-87248732D01*
X123574735Y-87114735D01*
X123708732Y-87004766D01*
X123861606Y-86923053D01*
X124027493Y-86872733D01*
X124156768Y-86860000D01*
X124243232Y-86860000D01*
X124372507Y-86872733D01*
X124372507Y-86872733D01*
G37*
G36*
X126912507Y-84332733D02*
G01*
X127078394Y-84383053D01*
X127231268Y-84464766D01*
X127365265Y-84574735D01*
X127475234Y-84708732D01*
X127556947Y-84861606D01*
X127607267Y-85027493D01*
X127624258Y-85200000D01*
X127607267Y-85372507D01*
X127556947Y-85538394D01*
X127475234Y-85691268D01*
X127365265Y-85825265D01*
X127231268Y-85935234D01*
X127078394Y-86016947D01*
X126912507Y-86067267D01*
X126783232Y-86080000D01*
X126696768Y-86080000D01*
X126567493Y-86067267D01*
X126401606Y-86016947D01*
X126248732Y-85935234D01*
X126114735Y-85825265D01*
X126004766Y-85691268D01*
X125923053Y-85538394D01*
X125872733Y-85372507D01*
X125855742Y-85200000D01*
X125872733Y-85027493D01*
X125923053Y-84861606D01*
X126004766Y-84708732D01*
X126114735Y-84574735D01*
X126248732Y-84464766D01*
X126401606Y-84383053D01*
X126567493Y-84332733D01*
X126696768Y-84320000D01*
X126783232Y-84320000D01*
X126912507Y-84332733D01*
X126912507Y-84332733D01*
G37*
G36*
X125080000Y-86080000D02*
G01*
X123320000Y-86080000D01*
X123320000Y-84320000D01*
X125080000Y-84320000D01*
X125080000Y-86080000D01*
X125080000Y-86080000D01*
G37*
G36*
X102025000Y-83330000D02*
G01*
X101065000Y-83330000D01*
X101065000Y-81270000D01*
X102025000Y-81270000D01*
X102025000Y-83330000D01*
X102025000Y-83330000D01*
G37*
G36*
X113455000Y-83330000D02*
G01*
X112495000Y-83330000D01*
X112495000Y-81270000D01*
X113455000Y-81270000D01*
X113455000Y-83330000D01*
X113455000Y-83330000D01*
G37*
G36*
X115995000Y-83330000D02*
G01*
X115035000Y-83330000D01*
X115035000Y-81270000D01*
X115995000Y-81270000D01*
X115995000Y-83330000D01*
X115995000Y-83330000D01*
G37*
G36*
X117265000Y-83330000D02*
G01*
X116305000Y-83330000D01*
X116305000Y-81270000D01*
X117265000Y-81270000D01*
X117265000Y-83330000D01*
X117265000Y-83330000D01*
G37*
G36*
X112185000Y-83330000D02*
G01*
X111225000Y-83330000D01*
X111225000Y-81270000D01*
X112185000Y-81270000D01*
X112185000Y-83330000D01*
X112185000Y-83330000D01*
G37*
G36*
X118535000Y-83330000D02*
G01*
X117575000Y-83330000D01*
X117575000Y-81270000D01*
X118535000Y-81270000D01*
X118535000Y-83330000D01*
X118535000Y-83330000D01*
G37*
G36*
X103295000Y-83330000D02*
G01*
X102335000Y-83330000D01*
X102335000Y-81270000D01*
X103295000Y-81270000D01*
X103295000Y-83330000D01*
X103295000Y-83330000D01*
G37*
G36*
X105835000Y-83330000D02*
G01*
X104875000Y-83330000D01*
X104875000Y-81270000D01*
X105835000Y-81270000D01*
X105835000Y-83330000D01*
X105835000Y-83330000D01*
G37*
G36*
X107105000Y-83330000D02*
G01*
X106145000Y-83330000D01*
X106145000Y-81270000D01*
X107105000Y-81270000D01*
X107105000Y-83330000D01*
X107105000Y-83330000D01*
G37*
G36*
X108375000Y-83330000D02*
G01*
X107415000Y-83330000D01*
X107415000Y-81270000D01*
X108375000Y-81270000D01*
X108375000Y-83330000D01*
X108375000Y-83330000D01*
G37*
G36*
X109645000Y-83330000D02*
G01*
X108685000Y-83330000D01*
X108685000Y-81270000D01*
X109645000Y-81270000D01*
X109645000Y-83330000D01*
X109645000Y-83330000D01*
G37*
G36*
X114725000Y-83330000D02*
G01*
X113765000Y-83330000D01*
X113765000Y-81270000D01*
X114725000Y-81270000D01*
X114725000Y-83330000D01*
X114725000Y-83330000D01*
G37*
G36*
X110915000Y-83330000D02*
G01*
X109955000Y-83330000D01*
X109955000Y-81270000D01*
X110915000Y-81270000D01*
X110915000Y-83330000D01*
X110915000Y-83330000D01*
G37*
G36*
X104565000Y-83330000D02*
G01*
X103605000Y-83330000D01*
X103605000Y-81270000D01*
X104565000Y-81270000D01*
X104565000Y-83330000D01*
X104565000Y-83330000D01*
G37*
G36*
X100889195Y-79951584D02*
G01*
X100974963Y-79977601D01*
X100974965Y-79977602D01*
X101054008Y-80019851D01*
X101123290Y-80076710D01*
X101180149Y-80145992D01*
X101222398Y-80225035D01*
X101248416Y-80310806D01*
X101257201Y-80400000D01*
X101248416Y-80489194D01*
X101222398Y-80574965D01*
X101180149Y-80654008D01*
X101123290Y-80723290D01*
X101054008Y-80780149D01*
X100974965Y-80822398D01*
X100974963Y-80822399D01*
X100889195Y-80848416D01*
X100822347Y-80855000D01*
X100777653Y-80855000D01*
X100710805Y-80848416D01*
X100625037Y-80822399D01*
X100625035Y-80822398D01*
X100545992Y-80780149D01*
X100476710Y-80723290D01*
X100419851Y-80654008D01*
X100377602Y-80574965D01*
X100351584Y-80489194D01*
X100342799Y-80400000D01*
X100351584Y-80310806D01*
X100377602Y-80225035D01*
X100419851Y-80145992D01*
X100476710Y-80076710D01*
X100545992Y-80019851D01*
X100625035Y-79977602D01*
X100625037Y-79977601D01*
X100710805Y-79951584D01*
X100777653Y-79945000D01*
X100822347Y-79945000D01*
X100889195Y-79951584D01*
X100889195Y-79951584D01*
G37*
G36*
X125070344Y-79138442D02*
G01*
X125070346Y-79138443D01*
X125070347Y-79138443D01*
X125088572Y-79145992D01*
X125176627Y-79182465D01*
X125272279Y-79246378D01*
X125353622Y-79327721D01*
X125417535Y-79423373D01*
X125461558Y-79529656D01*
X125484000Y-79642479D01*
X125484000Y-79757521D01*
X125461558Y-79870344D01*
X125417535Y-79976627D01*
X125353622Y-80072279D01*
X125272279Y-80153622D01*
X125176627Y-80217535D01*
X125101473Y-80248664D01*
X125070347Y-80261557D01*
X125070346Y-80261557D01*
X125070344Y-80261558D01*
X124957521Y-80284000D01*
X124842479Y-80284000D01*
X124729656Y-80261558D01*
X124729654Y-80261557D01*
X124729653Y-80261557D01*
X124698527Y-80248664D01*
X124623373Y-80217535D01*
X124527721Y-80153622D01*
X124446378Y-80072279D01*
X124382465Y-79976627D01*
X124338442Y-79870344D01*
X124316000Y-79757521D01*
X124316000Y-79642479D01*
X124338442Y-79529656D01*
X124382465Y-79423373D01*
X124446378Y-79327721D01*
X124527721Y-79246378D01*
X124623373Y-79182465D01*
X124711428Y-79145992D01*
X124729653Y-79138443D01*
X124729654Y-79138443D01*
X124729656Y-79138442D01*
X124842479Y-79116000D01*
X124957521Y-79116000D01*
X125070344Y-79138442D01*
X125070344Y-79138442D01*
G37*
G36*
X120085000Y-79995000D02*
G01*
X118025000Y-79995000D01*
X118025000Y-79035000D01*
X120085000Y-79035000D01*
X120085000Y-79995000D01*
X120085000Y-79995000D01*
G37*
G36*
X100889195Y-78951584D02*
G01*
X100974963Y-78977601D01*
X100974965Y-78977602D01*
X101054008Y-79019851D01*
X101123290Y-79076710D01*
X101180149Y-79145992D01*
X101222398Y-79225035D01*
X101222399Y-79225037D01*
X101248416Y-79310805D01*
X101248416Y-79310806D01*
X101257201Y-79400000D01*
X101248416Y-79489194D01*
X101222398Y-79574965D01*
X101180149Y-79654008D01*
X101123290Y-79723290D01*
X101054008Y-79780149D01*
X100974965Y-79822398D01*
X100974963Y-79822399D01*
X100889195Y-79848416D01*
X100822347Y-79855000D01*
X100777653Y-79855000D01*
X100710805Y-79848416D01*
X100625037Y-79822399D01*
X100625035Y-79822398D01*
X100545992Y-79780149D01*
X100476710Y-79723290D01*
X100419851Y-79654008D01*
X100377602Y-79574965D01*
X100351584Y-79489194D01*
X100342799Y-79400000D01*
X100351584Y-79310806D01*
X100351584Y-79310805D01*
X100377601Y-79225037D01*
X100377602Y-79225035D01*
X100419851Y-79145992D01*
X100476710Y-79076710D01*
X100545992Y-79019851D01*
X100625035Y-78977602D01*
X100625037Y-78977601D01*
X100710805Y-78951584D01*
X100777653Y-78945000D01*
X100822347Y-78945000D01*
X100889195Y-78951584D01*
X100889195Y-78951584D01*
G37*
G36*
X125070344Y-77738442D02*
G01*
X125070346Y-77738443D01*
X125070347Y-77738443D01*
X125101473Y-77751336D01*
X125176627Y-77782465D01*
X125272279Y-77846378D01*
X125353622Y-77927721D01*
X125417535Y-78023373D01*
X125461558Y-78129656D01*
X125484000Y-78242479D01*
X125484000Y-78357521D01*
X125461558Y-78470344D01*
X125417535Y-78576627D01*
X125417534Y-78576628D01*
X125365831Y-78654008D01*
X125353622Y-78672279D01*
X125272279Y-78753622D01*
X125176627Y-78817535D01*
X125102072Y-78848416D01*
X125070347Y-78861557D01*
X125070346Y-78861557D01*
X125070344Y-78861558D01*
X124957521Y-78884000D01*
X124842479Y-78884000D01*
X124729656Y-78861558D01*
X124729654Y-78861557D01*
X124729653Y-78861557D01*
X124697928Y-78848416D01*
X124623373Y-78817535D01*
X124527721Y-78753622D01*
X124446378Y-78672279D01*
X124434170Y-78654008D01*
X124382466Y-78576628D01*
X124382465Y-78576627D01*
X124338442Y-78470344D01*
X124316000Y-78357521D01*
X124316000Y-78242479D01*
X124338442Y-78129656D01*
X124382465Y-78023373D01*
X124446378Y-77927721D01*
X124527721Y-77846378D01*
X124623373Y-77782465D01*
X124698527Y-77751336D01*
X124729653Y-77738443D01*
X124729654Y-77738443D01*
X124729656Y-77738442D01*
X124842479Y-77716000D01*
X124957521Y-77716000D01*
X125070344Y-77738442D01*
X125070344Y-77738442D01*
G37*
G36*
X100889195Y-77951584D02*
G01*
X100974963Y-77977601D01*
X100974965Y-77977602D01*
X101054008Y-78019851D01*
X101123290Y-78076710D01*
X101180149Y-78145992D01*
X101222398Y-78225035D01*
X101248416Y-78310806D01*
X101257201Y-78400000D01*
X101248416Y-78489194D01*
X101222398Y-78574965D01*
X101180149Y-78654008D01*
X101123290Y-78723290D01*
X101054008Y-78780149D01*
X100984065Y-78817534D01*
X100974963Y-78822399D01*
X100889195Y-78848416D01*
X100822347Y-78855000D01*
X100777653Y-78855000D01*
X100710805Y-78848416D01*
X100625037Y-78822399D01*
X100615935Y-78817534D01*
X100545992Y-78780149D01*
X100476710Y-78723290D01*
X100419851Y-78654008D01*
X100377602Y-78574965D01*
X100351584Y-78489194D01*
X100342799Y-78400000D01*
X100351584Y-78310806D01*
X100377602Y-78225035D01*
X100419851Y-78145992D01*
X100476710Y-78076710D01*
X100545992Y-78019851D01*
X100625035Y-77977602D01*
X100625037Y-77977601D01*
X100710805Y-77951584D01*
X100777653Y-77945000D01*
X100822347Y-77945000D01*
X100889195Y-77951584D01*
X100889195Y-77951584D01*
G37*
G36*
X120085000Y-78725000D02*
G01*
X118025000Y-78725000D01*
X118025000Y-77765000D01*
X120085000Y-77765000D01*
X120085000Y-78725000D01*
X120085000Y-78725000D01*
G37*
G36*
X100889195Y-76951584D02*
G01*
X100974963Y-76977601D01*
X100974965Y-76977602D01*
X101054008Y-77019851D01*
X101123290Y-77076710D01*
X101180149Y-77145992D01*
X101222398Y-77225035D01*
X101248416Y-77310806D01*
X101257201Y-77400000D01*
X101248416Y-77489194D01*
X101222398Y-77574965D01*
X101180149Y-77654008D01*
X101123290Y-77723290D01*
X101054008Y-77780149D01*
X100974965Y-77822398D01*
X100974963Y-77822399D01*
X100889195Y-77848416D01*
X100822347Y-77855000D01*
X100777653Y-77855000D01*
X100710805Y-77848416D01*
X100625037Y-77822399D01*
X100625035Y-77822398D01*
X100545992Y-77780149D01*
X100476710Y-77723290D01*
X100419851Y-77654008D01*
X100377602Y-77574965D01*
X100351584Y-77489194D01*
X100342799Y-77400000D01*
X100351584Y-77310806D01*
X100377602Y-77225035D01*
X100419851Y-77145992D01*
X100476710Y-77076710D01*
X100545992Y-77019851D01*
X100625035Y-76977602D01*
X100625037Y-76977601D01*
X100710805Y-76951584D01*
X100777653Y-76945000D01*
X100822347Y-76945000D01*
X100889195Y-76951584D01*
X100889195Y-76951584D01*
G37*
G36*
X120085000Y-77455000D02*
G01*
X118025000Y-77455000D01*
X118025000Y-76495000D01*
X120085000Y-76495000D01*
X120085000Y-77455000D01*
X120085000Y-77455000D01*
G37*
G36*
X100889195Y-75951584D02*
G01*
X100974963Y-75977601D01*
X100974965Y-75977602D01*
X101054008Y-76019851D01*
X101123290Y-76076710D01*
X101180149Y-76145992D01*
X101222398Y-76225035D01*
X101248416Y-76310806D01*
X101257201Y-76400000D01*
X101248416Y-76489194D01*
X101222398Y-76574965D01*
X101180149Y-76654008D01*
X101123290Y-76723290D01*
X101054008Y-76780149D01*
X100974965Y-76822398D01*
X100974963Y-76822399D01*
X100889195Y-76848416D01*
X100822347Y-76855000D01*
X100777653Y-76855000D01*
X100710805Y-76848416D01*
X100625037Y-76822399D01*
X100625035Y-76822398D01*
X100545992Y-76780149D01*
X100476710Y-76723290D01*
X100419851Y-76654008D01*
X100377602Y-76574965D01*
X100351584Y-76489194D01*
X100342799Y-76400000D01*
X100351584Y-76310806D01*
X100377602Y-76225035D01*
X100419851Y-76145992D01*
X100476710Y-76076710D01*
X100545992Y-76019851D01*
X100625035Y-75977602D01*
X100625037Y-75977601D01*
X100710805Y-75951584D01*
X100777653Y-75945000D01*
X100822347Y-75945000D01*
X100889195Y-75951584D01*
X100889195Y-75951584D01*
G37*
G36*
X120085000Y-76185000D02*
G01*
X118025000Y-76185000D01*
X118025000Y-75225000D01*
X120085000Y-75225000D01*
X120085000Y-76185000D01*
X120085000Y-76185000D01*
G37*
G36*
X101255000Y-75855000D02*
G01*
X100345000Y-75855000D01*
X100345000Y-74945000D01*
X101255000Y-74945000D01*
X101255000Y-75855000D01*
X101255000Y-75855000D01*
G37*
G36*
X111575000Y-75330000D02*
G01*
X106515000Y-75330000D01*
X106515000Y-70270000D01*
X111575000Y-70270000D01*
X111575000Y-75330000D01*
X111575000Y-75330000D01*
G37*
G36*
X120085000Y-74915000D02*
G01*
X118025000Y-74915000D01*
X118025000Y-73955000D01*
X120085000Y-73955000D01*
X120085000Y-74915000D01*
X120085000Y-74915000D01*
G37*
G36*
X125696285Y-71528797D02*
G01*
X125893174Y-71610351D01*
X125974728Y-71644132D01*
X126075100Y-71711199D01*
X126225318Y-71811571D01*
X126438429Y-72024682D01*
X126538801Y-72174900D01*
X126605868Y-72275272D01*
X126605868Y-72275273D01*
X126721203Y-72553715D01*
X126780000Y-72849308D01*
X126780000Y-73150692D01*
X126721203Y-73446285D01*
X126639649Y-73643174D01*
X126605868Y-73724728D01*
X126538801Y-73825100D01*
X126438429Y-73975318D01*
X126225318Y-74188429D01*
X126075100Y-74288801D01*
X125974728Y-74355868D01*
X125893174Y-74389649D01*
X125696285Y-74471203D01*
X125400692Y-74530000D01*
X125099308Y-74530000D01*
X124803715Y-74471203D01*
X124606826Y-74389649D01*
X124525272Y-74355868D01*
X124424900Y-74288801D01*
X124274682Y-74188429D01*
X124061571Y-73975318D01*
X123961199Y-73825100D01*
X123894132Y-73724728D01*
X123860351Y-73643174D01*
X123778797Y-73446285D01*
X123720000Y-73150692D01*
X123720000Y-72849308D01*
X123778797Y-72553715D01*
X123894132Y-72275273D01*
X123894132Y-72275272D01*
X123961199Y-72174900D01*
X124061571Y-72024682D01*
X124274682Y-71811571D01*
X124424900Y-71711199D01*
X124525272Y-71644132D01*
X124606826Y-71610351D01*
X124803715Y-71528797D01*
X125099308Y-71470000D01*
X125400692Y-71470000D01*
X125696285Y-71528797D01*
X125696285Y-71528797D01*
G37*
G36*
X120085000Y-73645000D02*
G01*
X118025000Y-73645000D01*
X118025000Y-72685000D01*
X120085000Y-72685000D01*
X120085000Y-73645000D01*
X120085000Y-73645000D01*
G37*
G36*
X120085000Y-72375000D02*
G01*
X118025000Y-72375000D01*
X118025000Y-71415000D01*
X120085000Y-71415000D01*
X120085000Y-72375000D01*
X120085000Y-72375000D01*
G37*
G36*
X120085000Y-71105000D02*
G01*
X118025000Y-71105000D01*
X118025000Y-70145000D01*
X120085000Y-70145000D01*
X120085000Y-71105000D01*
X120085000Y-71105000D01*
G37*
G36*
X120085000Y-69835000D02*
G01*
X118025000Y-69835000D01*
X118025000Y-68875000D01*
X120085000Y-68875000D01*
X120085000Y-69835000D01*
X120085000Y-69835000D01*
G37*
G36*
X120085000Y-68565000D02*
G01*
X118025000Y-68565000D01*
X118025000Y-67605000D01*
X120085000Y-67605000D01*
X120085000Y-68565000D01*
X120085000Y-68565000D01*
G37*
G36*
X102025000Y-66330000D02*
G01*
X101065000Y-66330000D01*
X101065000Y-64270000D01*
X102025000Y-64270000D01*
X102025000Y-66330000D01*
X102025000Y-66330000D01*
G37*
G36*
X118535000Y-66330000D02*
G01*
X117575000Y-66330000D01*
X117575000Y-64270000D01*
X118535000Y-64270000D01*
X118535000Y-66330000D01*
X118535000Y-66330000D01*
G37*
G36*
X109645000Y-66330000D02*
G01*
X108685000Y-66330000D01*
X108685000Y-64270000D01*
X109645000Y-64270000D01*
X109645000Y-66330000D01*
X109645000Y-66330000D01*
G37*
G36*
X108375000Y-66330000D02*
G01*
X107415000Y-66330000D01*
X107415000Y-64270000D01*
X108375000Y-64270000D01*
X108375000Y-66330000D01*
X108375000Y-66330000D01*
G37*
G36*
X107105000Y-66330000D02*
G01*
X106145000Y-66330000D01*
X106145000Y-64270000D01*
X107105000Y-64270000D01*
X107105000Y-66330000D01*
X107105000Y-66330000D01*
G37*
G36*
X105835000Y-66330000D02*
G01*
X104875000Y-66330000D01*
X104875000Y-64270000D01*
X105835000Y-64270000D01*
X105835000Y-66330000D01*
X105835000Y-66330000D01*
G37*
G36*
X104565000Y-66330000D02*
G01*
X103605000Y-66330000D01*
X103605000Y-64270000D01*
X104565000Y-64270000D01*
X104565000Y-66330000D01*
X104565000Y-66330000D01*
G37*
G36*
X103295000Y-66330000D02*
G01*
X102335000Y-66330000D01*
X102335000Y-64270000D01*
X103295000Y-64270000D01*
X103295000Y-66330000D01*
X103295000Y-66330000D01*
G37*
G36*
X110915000Y-66330000D02*
G01*
X109955000Y-66330000D01*
X109955000Y-64270000D01*
X110915000Y-64270000D01*
X110915000Y-66330000D01*
X110915000Y-66330000D01*
G37*
G36*
X112185000Y-66330000D02*
G01*
X111225000Y-66330000D01*
X111225000Y-64270000D01*
X112185000Y-64270000D01*
X112185000Y-66330000D01*
X112185000Y-66330000D01*
G37*
G36*
X114725000Y-66330000D02*
G01*
X113765000Y-66330000D01*
X113765000Y-64270000D01*
X114725000Y-64270000D01*
X114725000Y-66330000D01*
X114725000Y-66330000D01*
G37*
G36*
X113455000Y-66330000D02*
G01*
X112495000Y-66330000D01*
X112495000Y-64270000D01*
X113455000Y-64270000D01*
X113455000Y-66330000D01*
X113455000Y-66330000D01*
G37*
G36*
X115995000Y-66330000D02*
G01*
X115035000Y-66330000D01*
X115035000Y-64270000D01*
X115995000Y-64270000D01*
X115995000Y-66330000D01*
X115995000Y-66330000D01*
G37*
G36*
X117265000Y-66330000D02*
G01*
X116305000Y-66330000D01*
X116305000Y-64270000D01*
X117265000Y-64270000D01*
X117265000Y-66330000D01*
X117265000Y-66330000D01*
G37*
G36*
X105950000Y-63570000D02*
G01*
X103890000Y-63570000D01*
X103890000Y-61510000D01*
X105950000Y-61510000D01*
X105950000Y-63570000D01*
X105950000Y-63570000D01*
G37*
G36*
X111030000Y-63570000D02*
G01*
X108970000Y-63570000D01*
X108970000Y-61510000D01*
X111030000Y-61510000D01*
X111030000Y-63570000D01*
X111030000Y-63570000D01*
G37*
G36*
X113570000Y-63570000D02*
G01*
X111510000Y-63570000D01*
X111510000Y-61510000D01*
X113570000Y-61510000D01*
X113570000Y-63570000D01*
X113570000Y-63570000D01*
G37*
G36*
X108490000Y-63570000D02*
G01*
X106430000Y-63570000D01*
X106430000Y-61510000D01*
X108490000Y-61510000D01*
X108490000Y-63570000D01*
X108490000Y-63570000D01*
G37*
G36*
X126270000Y-61030000D02*
G01*
X124210000Y-61030000D01*
X124210000Y-58970000D01*
X126270000Y-58970000D01*
X126270000Y-61030000D01*
X126270000Y-61030000D01*
G37*
G36*
X123730000Y-61030000D02*
G01*
X121670000Y-61030000D01*
X121670000Y-58970000D01*
X123730000Y-58970000D01*
X123730000Y-61030000D01*
X123730000Y-61030000D01*
G37*
G36*
X118650000Y-61030000D02*
G01*
X116590000Y-61030000D01*
X116590000Y-58970000D01*
X118650000Y-58970000D01*
X118650000Y-61030000D01*
X118650000Y-61030000D01*
G37*
G36*
X116110000Y-61030000D02*
G01*
X114050000Y-61030000D01*
X114050000Y-58970000D01*
X116110000Y-58970000D01*
X116110000Y-61030000D01*
X116110000Y-61030000D01*
G37*
G36*
X112840440Y-59009582D02*
G01*
X112950245Y-59055065D01*
X113027889Y-59087226D01*
X113196587Y-59199947D01*
X113340053Y-59343413D01*
X113452774Y-59512111D01*
X113452774Y-59512112D01*
X113530418Y-59699560D01*
X113570000Y-59898554D01*
X113570000Y-60101446D01*
X113530418Y-60300440D01*
X113484935Y-60410245D01*
X113452774Y-60487889D01*
X113340053Y-60656587D01*
X113196587Y-60800053D01*
X113027889Y-60912774D01*
X112950245Y-60944935D01*
X112840440Y-60990418D01*
X112641446Y-61030000D01*
X112438554Y-61030000D01*
X112239560Y-60990418D01*
X112129755Y-60944935D01*
X112052111Y-60912774D01*
X111883413Y-60800053D01*
X111739947Y-60656587D01*
X111627226Y-60487889D01*
X111595065Y-60410245D01*
X111549582Y-60300440D01*
X111510000Y-60101446D01*
X111510000Y-59898554D01*
X111549582Y-59699560D01*
X111627226Y-59512112D01*
X111627226Y-59512111D01*
X111739947Y-59343413D01*
X111883413Y-59199947D01*
X112052111Y-59087226D01*
X112129755Y-59055065D01*
X112239560Y-59009582D01*
X112438554Y-58970000D01*
X112641446Y-58970000D01*
X112840440Y-59009582D01*
X112840440Y-59009582D01*
G37*
G36*
X110300440Y-59009582D02*
G01*
X110410245Y-59055065D01*
X110487889Y-59087226D01*
X110656587Y-59199947D01*
X110800053Y-59343413D01*
X110912774Y-59512111D01*
X110912774Y-59512112D01*
X110990418Y-59699560D01*
X111030000Y-59898554D01*
X111030000Y-60101446D01*
X110990418Y-60300440D01*
X110944935Y-60410245D01*
X110912774Y-60487889D01*
X110800053Y-60656587D01*
X110656587Y-60800053D01*
X110487889Y-60912774D01*
X110410245Y-60944935D01*
X110300440Y-60990418D01*
X110101446Y-61030000D01*
X109898554Y-61030000D01*
X109699560Y-60990418D01*
X109589755Y-60944935D01*
X109512111Y-60912774D01*
X109343413Y-60800053D01*
X109199947Y-60656587D01*
X109087226Y-60487889D01*
X109055065Y-60410245D01*
X109009582Y-60300440D01*
X108970000Y-60101446D01*
X108970000Y-59898554D01*
X109009582Y-59699560D01*
X109087226Y-59512112D01*
X109087226Y-59512111D01*
X109199947Y-59343413D01*
X109343413Y-59199947D01*
X109512111Y-59087226D01*
X109589755Y-59055065D01*
X109699560Y-59009582D01*
X109898554Y-58970000D01*
X110101446Y-58970000D01*
X110300440Y-59009582D01*
X110300440Y-59009582D01*
G37*
G36*
X107760440Y-59009582D02*
G01*
X107870245Y-59055065D01*
X107947889Y-59087226D01*
X108116587Y-59199947D01*
X108260053Y-59343413D01*
X108372774Y-59512111D01*
X108372774Y-59512112D01*
X108450418Y-59699560D01*
X108490000Y-59898554D01*
X108490000Y-60101446D01*
X108450418Y-60300440D01*
X108404935Y-60410245D01*
X108372774Y-60487889D01*
X108260053Y-60656587D01*
X108116587Y-60800053D01*
X107947889Y-60912774D01*
X107870245Y-60944935D01*
X107760440Y-60990418D01*
X107561446Y-61030000D01*
X107358554Y-61030000D01*
X107159560Y-60990418D01*
X107049755Y-60944935D01*
X106972111Y-60912774D01*
X106803413Y-60800053D01*
X106659947Y-60656587D01*
X106547226Y-60487889D01*
X106515065Y-60410245D01*
X106469582Y-60300440D01*
X106430000Y-60101446D01*
X106430000Y-59898554D01*
X106469582Y-59699560D01*
X106547226Y-59512112D01*
X106547226Y-59512111D01*
X106659947Y-59343413D01*
X106803413Y-59199947D01*
X106972111Y-59087226D01*
X107049755Y-59055065D01*
X107159560Y-59009582D01*
X107358554Y-58970000D01*
X107561446Y-58970000D01*
X107760440Y-59009582D01*
X107760440Y-59009582D01*
G37*
G36*
X105220440Y-59009582D02*
G01*
X105330245Y-59055065D01*
X105407889Y-59087226D01*
X105576587Y-59199947D01*
X105720053Y-59343413D01*
X105832774Y-59512111D01*
X105832774Y-59512112D01*
X105910418Y-59699560D01*
X105950000Y-59898554D01*
X105950000Y-60101446D01*
X105910418Y-60300440D01*
X105864935Y-60410245D01*
X105832774Y-60487889D01*
X105720053Y-60656587D01*
X105576587Y-60800053D01*
X105407889Y-60912774D01*
X105330245Y-60944935D01*
X105220440Y-60990418D01*
X105021446Y-61030000D01*
X104818554Y-61030000D01*
X104619560Y-60990418D01*
X104509755Y-60944935D01*
X104432111Y-60912774D01*
X104263413Y-60800053D01*
X104119947Y-60656587D01*
X104007226Y-60487889D01*
X103975065Y-60410245D01*
X103929582Y-60300440D01*
X103890000Y-60101446D01*
X103890000Y-59898554D01*
X103929582Y-59699560D01*
X104007226Y-59512112D01*
X104007226Y-59512111D01*
X104119947Y-59343413D01*
X104263413Y-59199947D01*
X104432111Y-59087226D01*
X104509755Y-59055065D01*
X104619560Y-59009582D01*
X104818554Y-58970000D01*
X105021446Y-58970000D01*
X105220440Y-59009582D01*
X105220440Y-59009582D01*
G37*
G36*
X121190000Y-61030000D02*
G01*
X119130000Y-61030000D01*
X119130000Y-58970000D01*
X121190000Y-58970000D01*
X121190000Y-61030000D01*
X121190000Y-61030000D01*
G37*
G36*
X105220440Y-56469582D02*
G01*
X105330245Y-56515065D01*
X105407889Y-56547226D01*
X105576587Y-56659947D01*
X105720053Y-56803413D01*
X105832774Y-56972111D01*
X105832774Y-56972112D01*
X105910418Y-57159560D01*
X105950000Y-57358554D01*
X105950000Y-57561446D01*
X105910418Y-57760440D01*
X105864935Y-57870245D01*
X105832774Y-57947889D01*
X105720053Y-58116587D01*
X105576587Y-58260053D01*
X105407889Y-58372774D01*
X105330245Y-58404935D01*
X105220440Y-58450418D01*
X105021446Y-58490000D01*
X104818554Y-58490000D01*
X104619560Y-58450418D01*
X104509755Y-58404935D01*
X104432111Y-58372774D01*
X104263413Y-58260053D01*
X104119947Y-58116587D01*
X104007226Y-57947889D01*
X103975065Y-57870245D01*
X103929582Y-57760440D01*
X103890000Y-57561446D01*
X103890000Y-57358554D01*
X103929582Y-57159560D01*
X104007226Y-56972112D01*
X104007226Y-56972111D01*
X104119947Y-56803413D01*
X104263413Y-56659947D01*
X104432111Y-56547226D01*
X104509755Y-56515065D01*
X104619560Y-56469582D01*
X104818554Y-56430000D01*
X105021446Y-56430000D01*
X105220440Y-56469582D01*
X105220440Y-56469582D01*
G37*
G36*
X123000440Y-56469582D02*
G01*
X123110245Y-56515065D01*
X123187889Y-56547226D01*
X123356587Y-56659947D01*
X123500053Y-56803413D01*
X123612774Y-56972111D01*
X123612774Y-56972112D01*
X123690418Y-57159560D01*
X123730000Y-57358554D01*
X123730000Y-57561446D01*
X123690418Y-57760440D01*
X123644935Y-57870245D01*
X123612774Y-57947889D01*
X123500053Y-58116587D01*
X123356587Y-58260053D01*
X123187889Y-58372774D01*
X123110245Y-58404935D01*
X123000440Y-58450418D01*
X122801446Y-58490000D01*
X122598554Y-58490000D01*
X122399560Y-58450418D01*
X122289755Y-58404935D01*
X122212111Y-58372774D01*
X122043413Y-58260053D01*
X121899947Y-58116587D01*
X121787226Y-57947889D01*
X121755065Y-57870245D01*
X121709582Y-57760440D01*
X121670000Y-57561446D01*
X121670000Y-57358554D01*
X121709582Y-57159560D01*
X121787226Y-56972112D01*
X121787226Y-56972111D01*
X121899947Y-56803413D01*
X122043413Y-56659947D01*
X122212111Y-56547226D01*
X122289755Y-56515065D01*
X122399560Y-56469582D01*
X122598554Y-56430000D01*
X122801446Y-56430000D01*
X123000440Y-56469582D01*
X123000440Y-56469582D01*
G37*
G36*
X120460440Y-56469582D02*
G01*
X120570245Y-56515065D01*
X120647889Y-56547226D01*
X120816587Y-56659947D01*
X120960053Y-56803413D01*
X121072774Y-56972111D01*
X121072774Y-56972112D01*
X121150418Y-57159560D01*
X121190000Y-57358554D01*
X121190000Y-57561446D01*
X121150418Y-57760440D01*
X121104935Y-57870245D01*
X121072774Y-57947889D01*
X120960053Y-58116587D01*
X120816587Y-58260053D01*
X120647889Y-58372774D01*
X120570245Y-58404935D01*
X120460440Y-58450418D01*
X120261446Y-58490000D01*
X120058554Y-58490000D01*
X119859560Y-58450418D01*
X119749755Y-58404935D01*
X119672111Y-58372774D01*
X119503413Y-58260053D01*
X119359947Y-58116587D01*
X119247226Y-57947889D01*
X119215065Y-57870245D01*
X119169582Y-57760440D01*
X119130000Y-57561446D01*
X119130000Y-57358554D01*
X119169582Y-57159560D01*
X119247226Y-56972112D01*
X119247226Y-56972111D01*
X119359947Y-56803413D01*
X119503413Y-56659947D01*
X119672111Y-56547226D01*
X119749755Y-56515065D01*
X119859560Y-56469582D01*
X120058554Y-56430000D01*
X120261446Y-56430000D01*
X120460440Y-56469582D01*
X120460440Y-56469582D01*
G37*
G36*
X117920440Y-56469582D02*
G01*
X118030245Y-56515065D01*
X118107889Y-56547226D01*
X118276587Y-56659947D01*
X118420053Y-56803413D01*
X118532774Y-56972111D01*
X118532774Y-56972112D01*
X118610418Y-57159560D01*
X118650000Y-57358554D01*
X118650000Y-57561446D01*
X118610418Y-57760440D01*
X118564935Y-57870245D01*
X118532774Y-57947889D01*
X118420053Y-58116587D01*
X118276587Y-58260053D01*
X118107889Y-58372774D01*
X118030245Y-58404935D01*
X117920440Y-58450418D01*
X117721446Y-58490000D01*
X117518554Y-58490000D01*
X117319560Y-58450418D01*
X117209755Y-58404935D01*
X117132111Y-58372774D01*
X116963413Y-58260053D01*
X116819947Y-58116587D01*
X116707226Y-57947889D01*
X116675065Y-57870245D01*
X116629582Y-57760440D01*
X116590000Y-57561446D01*
X116590000Y-57358554D01*
X116629582Y-57159560D01*
X116707226Y-56972112D01*
X116707226Y-56972111D01*
X116819947Y-56803413D01*
X116963413Y-56659947D01*
X117132111Y-56547226D01*
X117209755Y-56515065D01*
X117319560Y-56469582D01*
X117518554Y-56430000D01*
X117721446Y-56430000D01*
X117920440Y-56469582D01*
X117920440Y-56469582D01*
G37*
G36*
X115380440Y-56469582D02*
G01*
X115490245Y-56515065D01*
X115567889Y-56547226D01*
X115736587Y-56659947D01*
X115880053Y-56803413D01*
X115992774Y-56972111D01*
X115992774Y-56972112D01*
X116070418Y-57159560D01*
X116110000Y-57358554D01*
X116110000Y-57561446D01*
X116070418Y-57760440D01*
X116024935Y-57870245D01*
X115992774Y-57947889D01*
X115880053Y-58116587D01*
X115736587Y-58260053D01*
X115567889Y-58372774D01*
X115490245Y-58404935D01*
X115380440Y-58450418D01*
X115181446Y-58490000D01*
X114978554Y-58490000D01*
X114779560Y-58450418D01*
X114669755Y-58404935D01*
X114592111Y-58372774D01*
X114423413Y-58260053D01*
X114279947Y-58116587D01*
X114167226Y-57947889D01*
X114135065Y-57870245D01*
X114089582Y-57760440D01*
X114050000Y-57561446D01*
X114050000Y-57358554D01*
X114089582Y-57159560D01*
X114167226Y-56972112D01*
X114167226Y-56972111D01*
X114279947Y-56803413D01*
X114423413Y-56659947D01*
X114592111Y-56547226D01*
X114669755Y-56515065D01*
X114779560Y-56469582D01*
X114978554Y-56430000D01*
X115181446Y-56430000D01*
X115380440Y-56469582D01*
X115380440Y-56469582D01*
G37*
G36*
X112840440Y-56469582D02*
G01*
X112950245Y-56515065D01*
X113027889Y-56547226D01*
X113196587Y-56659947D01*
X113340053Y-56803413D01*
X113452774Y-56972111D01*
X113452774Y-56972112D01*
X113530418Y-57159560D01*
X113570000Y-57358554D01*
X113570000Y-57561446D01*
X113530418Y-57760440D01*
X113484935Y-57870245D01*
X113452774Y-57947889D01*
X113340053Y-58116587D01*
X113196587Y-58260053D01*
X113027889Y-58372774D01*
X112950245Y-58404935D01*
X112840440Y-58450418D01*
X112641446Y-58490000D01*
X112438554Y-58490000D01*
X112239560Y-58450418D01*
X112129755Y-58404935D01*
X112052111Y-58372774D01*
X111883413Y-58260053D01*
X111739947Y-58116587D01*
X111627226Y-57947889D01*
X111595065Y-57870245D01*
X111549582Y-57760440D01*
X111510000Y-57561446D01*
X111510000Y-57358554D01*
X111549582Y-57159560D01*
X111627226Y-56972112D01*
X111627226Y-56972111D01*
X111739947Y-56803413D01*
X111883413Y-56659947D01*
X112052111Y-56547226D01*
X112129755Y-56515065D01*
X112239560Y-56469582D01*
X112438554Y-56430000D01*
X112641446Y-56430000D01*
X112840440Y-56469582D01*
X112840440Y-56469582D01*
G37*
G36*
X110300440Y-56469582D02*
G01*
X110410245Y-56515065D01*
X110487889Y-56547226D01*
X110656587Y-56659947D01*
X110800053Y-56803413D01*
X110912774Y-56972111D01*
X110912774Y-56972112D01*
X110990418Y-57159560D01*
X111030000Y-57358554D01*
X111030000Y-57561446D01*
X110990418Y-57760440D01*
X110944935Y-57870245D01*
X110912774Y-57947889D01*
X110800053Y-58116587D01*
X110656587Y-58260053D01*
X110487889Y-58372774D01*
X110410245Y-58404935D01*
X110300440Y-58450418D01*
X110101446Y-58490000D01*
X109898554Y-58490000D01*
X109699560Y-58450418D01*
X109589755Y-58404935D01*
X109512111Y-58372774D01*
X109343413Y-58260053D01*
X109199947Y-58116587D01*
X109087226Y-57947889D01*
X109055065Y-57870245D01*
X109009582Y-57760440D01*
X108970000Y-57561446D01*
X108970000Y-57358554D01*
X109009582Y-57159560D01*
X109087226Y-56972112D01*
X109087226Y-56972111D01*
X109199947Y-56803413D01*
X109343413Y-56659947D01*
X109512111Y-56547226D01*
X109589755Y-56515065D01*
X109699560Y-56469582D01*
X109898554Y-56430000D01*
X110101446Y-56430000D01*
X110300440Y-56469582D01*
X110300440Y-56469582D01*
G37*
G36*
X107760440Y-56469582D02*
G01*
X107870245Y-56515065D01*
X107947889Y-56547226D01*
X108116587Y-56659947D01*
X108260053Y-56803413D01*
X108372774Y-56972111D01*
X108372774Y-56972112D01*
X108450418Y-57159560D01*
X108490000Y-57358554D01*
X108490000Y-57561446D01*
X108450418Y-57760440D01*
X108404935Y-57870245D01*
X108372774Y-57947889D01*
X108260053Y-58116587D01*
X108116587Y-58260053D01*
X107947889Y-58372774D01*
X107870245Y-58404935D01*
X107760440Y-58450418D01*
X107561446Y-58490000D01*
X107358554Y-58490000D01*
X107159560Y-58450418D01*
X107049755Y-58404935D01*
X106972111Y-58372774D01*
X106803413Y-58260053D01*
X106659947Y-58116587D01*
X106547226Y-57947889D01*
X106515065Y-57870245D01*
X106469582Y-57760440D01*
X106430000Y-57561446D01*
X106430000Y-57358554D01*
X106469582Y-57159560D01*
X106547226Y-56972112D01*
X106547226Y-56972111D01*
X106659947Y-56803413D01*
X106803413Y-56659947D01*
X106972111Y-56547226D01*
X107049755Y-56515065D01*
X107159560Y-56469582D01*
X107358554Y-56430000D01*
X107561446Y-56430000D01*
X107760440Y-56469582D01*
X107760440Y-56469582D01*
G37*
G36*
X125540440Y-56469582D02*
G01*
X125650245Y-56515065D01*
X125727889Y-56547226D01*
X125896587Y-56659947D01*
X126040053Y-56803413D01*
X126152774Y-56972111D01*
X126152774Y-56972112D01*
X126230418Y-57159560D01*
X126270000Y-57358554D01*
X126270000Y-57561446D01*
X126230418Y-57760440D01*
X126184935Y-57870245D01*
X126152774Y-57947889D01*
X126040053Y-58116587D01*
X125896587Y-58260053D01*
X125727889Y-58372774D01*
X125650245Y-58404935D01*
X125540440Y-58450418D01*
X125341446Y-58490000D01*
X125138554Y-58490000D01*
X124939560Y-58450418D01*
X124829755Y-58404935D01*
X124752111Y-58372774D01*
X124583413Y-58260053D01*
X124439947Y-58116587D01*
X124327226Y-57947889D01*
X124295065Y-57870245D01*
X124249582Y-57760440D01*
X124210000Y-57561446D01*
X124210000Y-57358554D01*
X124249582Y-57159560D01*
X124327226Y-56972112D01*
X124327226Y-56972111D01*
X124439947Y-56803413D01*
X124583413Y-56659947D01*
X124752111Y-56547226D01*
X124829755Y-56515065D01*
X124939560Y-56469582D01*
X125138554Y-56430000D01*
X125341446Y-56430000D01*
X125540440Y-56469582D01*
X125540440Y-56469582D01*
G37*
M02*
