G04 #@! TF.GenerationSoftware,KiCad,Pcbnew,(5.1.2)-1*
G04 #@! TF.CreationDate,2019-07-28T17:54:04+02:00*
G04 #@! TF.ProjectId,qqv11,71717631-312e-46b6-9963-61645f706362,rev?*
G04 #@! TF.SameCoordinates,Original*
G04 #@! TF.FileFunction,Legend,Top*
G04 #@! TF.FilePolarity,Positive*
%FSLAX46Y46*%
G04 Gerber Fmt 4.6, Leading zero omitted, Abs format (unit mm)*
G04 Created by KiCad (PCBNEW (5.1.2)-1) date 2019-07-28 17:54:04*
%MOMM*%
%LPD*%
G04 APERTURE LIST*
%ADD10C,0.150000*%
%ADD11C,0.100000*%
%ADD12C,0.300000*%
%ADD13C,0.120000*%
%ADD14C,0.127000*%
%ADD15C,0.200000*%
G04 APERTURE END LIST*
D10*
X97966666Y-101852380D02*
X97966666Y-100852380D01*
X98347619Y-100852380D01*
X98442857Y-100900000D01*
X98490476Y-100947619D01*
X98538095Y-101042857D01*
X98538095Y-101185714D01*
X98490476Y-101280952D01*
X98442857Y-101328571D01*
X98347619Y-101376190D01*
X97966666Y-101376190D01*
X98871428Y-100852380D02*
X99109523Y-101852380D01*
X99300000Y-101138095D01*
X99490476Y-101852380D01*
X99728571Y-100852380D01*
X100680952Y-101852380D02*
X100347619Y-101376190D01*
X100109523Y-101852380D02*
X100109523Y-100852380D01*
X100490476Y-100852380D01*
X100585714Y-100900000D01*
X100633333Y-100947619D01*
X100680952Y-101042857D01*
X100680952Y-101185714D01*
X100633333Y-101280952D01*
X100585714Y-101328571D01*
X100490476Y-101376190D01*
X100109523Y-101376190D01*
D11*
G36*
X118600000Y-102700000D02*
G01*
X118300000Y-102400000D01*
X118600000Y-102100000D01*
X118600000Y-102700000D01*
G37*
X118600000Y-102700000D02*
X118300000Y-102400000D01*
X118600000Y-102100000D01*
X118600000Y-102700000D01*
X119000000Y-102400000D02*
X118300000Y-102400000D01*
X119000000Y-100300000D02*
X119000000Y-102400000D01*
G36*
X117800000Y-98100000D02*
G01*
X117200000Y-98100000D01*
X117200000Y-97600000D01*
X117800000Y-97600000D01*
X117800000Y-98100000D01*
G37*
X117800000Y-98100000D02*
X117200000Y-98100000D01*
X117200000Y-97600000D01*
X117800000Y-97600000D01*
X117800000Y-98100000D01*
G36*
X117800000Y-100000000D02*
G01*
X117200000Y-100000000D01*
X117200000Y-99500000D01*
X117800000Y-99500000D01*
X117800000Y-100000000D01*
G37*
X117800000Y-100000000D02*
X117200000Y-100000000D01*
X117200000Y-99500000D01*
X117800000Y-99500000D01*
X117800000Y-100000000D01*
X117200000Y-100000000D02*
X117800000Y-100000000D01*
X117200000Y-99000000D02*
X117200000Y-100000000D01*
X117200000Y-99500000D02*
X117800000Y-99500000D01*
X117800000Y-99000000D02*
X117200000Y-99000000D01*
X117800000Y-100000000D02*
X117800000Y-99000000D01*
X117200000Y-98100000D02*
X117800000Y-98100000D01*
X117800000Y-97600000D02*
X117200000Y-97600000D01*
X117800000Y-98600000D02*
X117800000Y-97600000D01*
X117200000Y-98600000D02*
X117800000Y-98600000D01*
X117200000Y-97600000D02*
X117200000Y-98600000D01*
X118003095Y-99428571D02*
X118336428Y-99428571D01*
X118479285Y-99952380D02*
X118003095Y-99952380D01*
X118003095Y-98952380D01*
X118479285Y-98952380D01*
X118907857Y-99285714D02*
X118907857Y-99952380D01*
X118907857Y-99380952D02*
X118955476Y-99333333D01*
X119050714Y-99285714D01*
X119193571Y-99285714D01*
X119288809Y-99333333D01*
X119336428Y-99428571D01*
X119336428Y-99952380D01*
X120241190Y-99952380D02*
X120241190Y-98952380D01*
X120241190Y-99904761D02*
X120145952Y-99952380D01*
X119955476Y-99952380D01*
X119860238Y-99904761D01*
X119812619Y-99857142D01*
X119765000Y-99761904D01*
X119765000Y-99476190D01*
X119812619Y-99380952D01*
X119860238Y-99333333D01*
X119955476Y-99285714D01*
X120145952Y-99285714D01*
X120241190Y-99333333D01*
X118103095Y-98552380D02*
X118103095Y-97552380D01*
X118436428Y-98266666D01*
X118769761Y-97552380D01*
X118769761Y-98552380D01*
X119245952Y-98552380D02*
X119245952Y-97885714D01*
X119245952Y-97552380D02*
X119198333Y-97600000D01*
X119245952Y-97647619D01*
X119293571Y-97600000D01*
X119245952Y-97552380D01*
X119245952Y-97647619D01*
X120150714Y-98552380D02*
X120150714Y-97552380D01*
X120150714Y-98504761D02*
X120055476Y-98552380D01*
X119865000Y-98552380D01*
X119769761Y-98504761D01*
X119722142Y-98457142D01*
X119674523Y-98361904D01*
X119674523Y-98076190D01*
X119722142Y-97980952D01*
X119769761Y-97933333D01*
X119865000Y-97885714D01*
X120055476Y-97885714D01*
X120150714Y-97933333D01*
X121055476Y-98552380D02*
X121055476Y-97552380D01*
X121055476Y-98504761D02*
X120960238Y-98552380D01*
X120769761Y-98552380D01*
X120674523Y-98504761D01*
X120626904Y-98457142D01*
X120579285Y-98361904D01*
X120579285Y-98076190D01*
X120626904Y-97980952D01*
X120674523Y-97933333D01*
X120769761Y-97885714D01*
X120960238Y-97885714D01*
X121055476Y-97933333D01*
X121674523Y-98552380D02*
X121579285Y-98504761D01*
X121531666Y-98409523D01*
X121531666Y-97552380D01*
X122436428Y-98504761D02*
X122341190Y-98552380D01*
X122150714Y-98552380D01*
X122055476Y-98504761D01*
X122007857Y-98409523D01*
X122007857Y-98028571D01*
X122055476Y-97933333D01*
X122150714Y-97885714D01*
X122341190Y-97885714D01*
X122436428Y-97933333D01*
X122484047Y-98028571D01*
X122484047Y-98123809D01*
X122007857Y-98219047D01*
G36*
X99700000Y-88000000D02*
G01*
X94100000Y-88000000D01*
X94100000Y-64000000D01*
X99850000Y-64000000D01*
X99700000Y-88000000D01*
G37*
X99700000Y-88000000D02*
X94100000Y-88000000D01*
X94100000Y-64000000D01*
X99850000Y-64000000D01*
X99700000Y-88000000D01*
D10*
X127750000Y-73000000D02*
G75*
G03X127750000Y-73000000I-2500000J0D01*
G01*
X99250000Y-113000000D02*
G75*
G03X99250000Y-113000000I-2500000J0D01*
G01*
D12*
X115498564Y-86328572D02*
G75*
G03X115498564Y-86328572I-141421J0D01*
G01*
D13*
X116507143Y-87578572D02*
X116507143Y-86878572D01*
X107207143Y-87178572D02*
X107607143Y-87178572D01*
X107207143Y-87578572D02*
X107207143Y-87178572D01*
X107207143Y-96478572D02*
X107607143Y-96478572D01*
X107207143Y-96078572D02*
X107207143Y-96478572D01*
X116507143Y-96478572D02*
X116107143Y-96478572D01*
X116507143Y-96078572D02*
X116507143Y-96478572D01*
X118400000Y-74500000D02*
X101400000Y-74500000D01*
X101400000Y-64500000D02*
X119400000Y-64500000D01*
X101400000Y-74500000D02*
X101400000Y-73500000D01*
X101400000Y-64500000D02*
X101400000Y-65500000D01*
X119400000Y-64500000D02*
X119400000Y-65500000D01*
X119400000Y-73500000D02*
X118400000Y-74500000D01*
X127000000Y-104600000D02*
X127000000Y-104200000D01*
X127400000Y-104600000D02*
X127400000Y-104200000D01*
X126600000Y-104600000D02*
X126600000Y-104200000D01*
X99250000Y-113000000D02*
G75*
G03X99250000Y-113000000I-2500000J0D01*
G01*
X127750000Y-73000000D02*
G75*
G03X127750000Y-73000000I-2500000J0D01*
G01*
X119200000Y-83900000D02*
X118800000Y-83900000D01*
X118600000Y-83700000D02*
X118600000Y-84100000D01*
X119400000Y-83700000D02*
X119400000Y-84100000D01*
X121800000Y-83700000D02*
X121800000Y-84100000D01*
X121000000Y-83700000D02*
X121000000Y-84100000D01*
X121600000Y-83900000D02*
X121200000Y-83900000D01*
D11*
X103600000Y-96800000D02*
X103600000Y-96000000D01*
X104100000Y-95700000D02*
X103100000Y-95700000D01*
X104100000Y-97100000D02*
X103100000Y-97100000D01*
X121000000Y-76300000D02*
X121000000Y-75300000D01*
X122400000Y-76300000D02*
X122400000Y-75300000D01*
X121300000Y-75800000D02*
X122100000Y-75800000D01*
D13*
X108200000Y-84600000D02*
X108200000Y-84200000D01*
X108400000Y-84000000D02*
X108000000Y-84000000D01*
X108400000Y-84800000D02*
X108000000Y-84800000D01*
X119500000Y-88300000D02*
X119900000Y-88300000D01*
X119500000Y-89100000D02*
X119900000Y-89100000D01*
X119700000Y-88500000D02*
X119700000Y-88900000D01*
X119800000Y-76300000D02*
X119800000Y-75900000D01*
X120600000Y-76300000D02*
X120600000Y-75900000D01*
X120000000Y-76100000D02*
X120400000Y-76100000D01*
X120600000Y-83700000D02*
X120600000Y-84100000D01*
X119800000Y-83700000D02*
X119800000Y-84100000D01*
X120400000Y-83900000D02*
X120000000Y-83900000D01*
X113400000Y-83900000D02*
X113800000Y-83900000D01*
X114000000Y-84100000D02*
X114000000Y-83700000D01*
X113200000Y-84100000D02*
X113200000Y-83700000D01*
D11*
X120000000Y-92300000D02*
X120000000Y-93100000D01*
X119500000Y-93400000D02*
X120500000Y-93400000D01*
X119500000Y-92000000D02*
X120500000Y-92000000D01*
D13*
X119700000Y-91000000D02*
X119700000Y-91400000D01*
X119500000Y-91600000D02*
X119900000Y-91600000D01*
X119500000Y-90800000D02*
X119900000Y-90800000D01*
X104100000Y-88200000D02*
X103700000Y-88200000D01*
X104100000Y-87400000D02*
X103700000Y-87400000D01*
X103900000Y-88000000D02*
X103900000Y-87600000D01*
D11*
X101000000Y-60100000D02*
X101000000Y-58300000D01*
X103400000Y-60100000D02*
X103400000Y-58300000D01*
X101300000Y-59200000D02*
X103100000Y-59200000D01*
D13*
X113600000Y-99400000D02*
X113600000Y-99800000D01*
X112800000Y-99400000D02*
X112800000Y-99800000D01*
X113400000Y-99600000D02*
X113000000Y-99600000D01*
X103900000Y-90900000D02*
X103900000Y-90500000D01*
X104100000Y-90300000D02*
X103700000Y-90300000D01*
X104100000Y-91100000D02*
X103700000Y-91100000D01*
X102800000Y-76700000D02*
X102400000Y-76700000D01*
X102200000Y-76500000D02*
X102200000Y-76900000D01*
X103000000Y-76500000D02*
X103000000Y-76900000D01*
X111500000Y-99400000D02*
X111500000Y-99800000D01*
X110700000Y-99400000D02*
X110700000Y-99800000D01*
X111300000Y-99600000D02*
X110900000Y-99600000D01*
X111200000Y-76400000D02*
X111200000Y-76800000D01*
X110400000Y-76400000D02*
X110400000Y-76800000D01*
X111000000Y-76600000D02*
X110600000Y-76600000D01*
X98800000Y-100000000D02*
X98400000Y-100000000D01*
X98800000Y-99200000D02*
X98400000Y-99200000D01*
X98600000Y-99800000D02*
X98600000Y-99400000D01*
X103700000Y-91700000D02*
X104100000Y-91700000D01*
X103700000Y-92500000D02*
X104100000Y-92500000D01*
X103900000Y-91900000D02*
X103900000Y-92300000D01*
D11*
X102500000Y-63700000D02*
X101500000Y-63700000D01*
X102500000Y-62300000D02*
X101500000Y-62300000D01*
X102000000Y-63400000D02*
X102000000Y-62600000D01*
D13*
X100700000Y-103600000D02*
X100700000Y-103200000D01*
X100900000Y-103000000D02*
X100500000Y-103000000D01*
X100900000Y-103800000D02*
X100500000Y-103800000D01*
D11*
X99900000Y-126700000D02*
X99100000Y-126700000D01*
X98800000Y-126200000D02*
X98800000Y-127200000D01*
X100200000Y-126200000D02*
X100200000Y-127200000D01*
X98400000Y-126200000D02*
X98400000Y-127200000D01*
X97000000Y-126200000D02*
X97000000Y-127200000D01*
X98100000Y-126700000D02*
X97300000Y-126700000D01*
X98100000Y-118100000D02*
X99900000Y-118100000D01*
X100200000Y-119000000D02*
X100200000Y-117200000D01*
X97800000Y-119000000D02*
X97800000Y-117200000D01*
X95000000Y-119000000D02*
X95000000Y-117200000D01*
X97400000Y-119000000D02*
X97400000Y-117200000D01*
X95300000Y-118100000D02*
X97100000Y-118100000D01*
D13*
X102190000Y-119000000D02*
X103190000Y-119000000D01*
X102690000Y-119500000D02*
X102690000Y-118500000D01*
X108395563Y-118260000D02*
X109460000Y-117195563D01*
X102004437Y-118260000D02*
X100940000Y-117195563D01*
X102004437Y-118260000D02*
X103690000Y-118260000D01*
X108395563Y-118260000D02*
X106710000Y-118260000D01*
X109460000Y-117195563D02*
X109460000Y-109740000D01*
X100940000Y-117195563D02*
X100940000Y-109740000D01*
X100940000Y-109740000D02*
X103690000Y-109740000D01*
X109460000Y-109740000D02*
X106710000Y-109740000D01*
X118260000Y-109740000D02*
X115510000Y-109740000D01*
X109740000Y-109740000D02*
X112490000Y-109740000D01*
X109740000Y-117195563D02*
X109740000Y-109740000D01*
X118260000Y-117195563D02*
X118260000Y-109740000D01*
X117195563Y-118260000D02*
X115510000Y-118260000D01*
X110804437Y-118260000D02*
X112490000Y-118260000D01*
X110804437Y-118260000D02*
X109740000Y-117195563D01*
X117195563Y-118260000D02*
X118260000Y-117195563D01*
X111490000Y-119500000D02*
X111490000Y-118500000D01*
X110990000Y-119000000D02*
X111990000Y-119000000D01*
X100600000Y-122200000D02*
X100600000Y-121800000D01*
X101400000Y-122200000D02*
X101400000Y-121800000D01*
X100800000Y-122000000D02*
X101200000Y-122000000D01*
X114300000Y-104400000D02*
X113900000Y-104400000D01*
X113700000Y-104200000D02*
X113700000Y-104600000D01*
X114500000Y-104200000D02*
X114500000Y-104600000D01*
X109400000Y-99600000D02*
X109000000Y-99600000D01*
X108800000Y-99400000D02*
X108800000Y-99800000D01*
X109600000Y-99400000D02*
X109600000Y-99800000D01*
X96000000Y-109000000D02*
X96000000Y-108600000D01*
X96200000Y-108400000D02*
X95800000Y-108400000D01*
X96200000Y-109200000D02*
X95800000Y-109200000D01*
X96200000Y-108000000D02*
X95800000Y-108000000D01*
X96200000Y-107200000D02*
X95800000Y-107200000D01*
X96000000Y-107800000D02*
X96000000Y-107400000D01*
X96000000Y-106600000D02*
X96000000Y-106200000D01*
X96200000Y-106000000D02*
X95800000Y-106000000D01*
X96200000Y-106800000D02*
X95800000Y-106800000D01*
X96200000Y-105600000D02*
X95800000Y-105600000D01*
X96200000Y-104800000D02*
X95800000Y-104800000D01*
X96000000Y-105400000D02*
X96000000Y-105000000D01*
X119850000Y-112975000D02*
X122550000Y-112975000D01*
X119850000Y-114625000D02*
X122550000Y-114625000D01*
X120600000Y-113000000D02*
X120600000Y-114600000D01*
X120700000Y-113000000D02*
X120700000Y-114600000D01*
X125700000Y-119200000D02*
X125700000Y-117600000D01*
X125800000Y-119200000D02*
X125800000Y-117600000D01*
X126550000Y-117575000D02*
X123850000Y-117575000D01*
X126550000Y-119225000D02*
X123850000Y-119225000D01*
X125700000Y-108600000D02*
X125700000Y-107000000D01*
X125800000Y-108600000D02*
X125800000Y-107000000D01*
X126550000Y-106975000D02*
X123850000Y-106975000D01*
X126550000Y-108625000D02*
X123850000Y-108625000D01*
X119850000Y-110975000D02*
X122550000Y-110975000D01*
X119850000Y-112625000D02*
X122550000Y-112625000D01*
X120600000Y-111000000D02*
X120600000Y-112600000D01*
X120700000Y-111000000D02*
X120700000Y-112600000D01*
D11*
X101150000Y-106700000D02*
X101475000Y-107025000D01*
X101475000Y-107025000D02*
X101475000Y-107725000D01*
X101500000Y-105200000D02*
X101150000Y-105200000D01*
X101150000Y-105200000D02*
X101150000Y-105550000D01*
X104450000Y-106875000D02*
X104450000Y-107200000D01*
X104450000Y-107200000D02*
X104150000Y-107200000D01*
X104100000Y-105200000D02*
X104450000Y-105200000D01*
X104450000Y-105200000D02*
X104450000Y-105500000D01*
D13*
X113810000Y-56190000D02*
X113810000Y-63810000D01*
X103650000Y-56190000D02*
X103650000Y-63810000D01*
X103650000Y-63810000D02*
X113810000Y-63810000D01*
X103650000Y-56190000D02*
X113810000Y-56190000D01*
X116350000Y-58095000D02*
X116350000Y-59365000D01*
X118890000Y-58095000D02*
X118890000Y-59365000D01*
X121430000Y-58095000D02*
X121430000Y-59365000D01*
X126510000Y-56190000D02*
X126510000Y-61270000D01*
X123970000Y-58095000D02*
X123970000Y-59365000D01*
X126510000Y-56190000D02*
X113810000Y-56190000D01*
X126510000Y-61270000D02*
X113810000Y-61270000D01*
X106190000Y-58730000D02*
X106190000Y-61270000D01*
X108730000Y-58730000D02*
X108730000Y-61270000D01*
X111270000Y-58730000D02*
X111270000Y-61270000D01*
X122870000Y-101770000D02*
X128070000Y-101770000D01*
X122870000Y-86470000D02*
X122870000Y-101770000D01*
X128070000Y-83870000D02*
X128070000Y-101770000D01*
X122870000Y-86470000D02*
X125470000Y-86470000D01*
X125470000Y-86470000D02*
X125470000Y-83870000D01*
X125470000Y-83870000D02*
X128070000Y-83870000D01*
X122870000Y-85200000D02*
X122870000Y-83870000D01*
X122870000Y-83870000D02*
X124200000Y-83870000D01*
X100105000Y-80960000D02*
X100405507Y-80960000D01*
X101194493Y-80960000D02*
X101495000Y-80960000D01*
X100105000Y-76085000D02*
X100105000Y-80960000D01*
X101495000Y-76085000D02*
X101495000Y-80960000D01*
X100105000Y-76085000D02*
X100191724Y-76085000D01*
X101408276Y-76085000D02*
X101495000Y-76085000D01*
X100105000Y-75400000D02*
X100105000Y-74715000D01*
X100105000Y-74715000D02*
X100800000Y-74715000D01*
D14*
X127400000Y-79000000D02*
G75*
G03X127400000Y-79000000I-2000000J0D01*
G01*
D13*
X96320000Y-100600000D02*
X95720000Y-100600000D01*
X96300000Y-102200000D02*
X95700000Y-102200000D01*
D11*
X122600000Y-118100000D02*
X122600000Y-115100000D01*
X119000000Y-115600000D02*
X119000000Y-118100000D01*
X122600000Y-118100000D02*
X121400000Y-118100000D01*
X119000000Y-118100000D02*
X120200000Y-118100000D01*
X122600000Y-115100000D02*
X121400000Y-115100000D01*
D13*
X120300000Y-115100000D02*
X119500000Y-115100000D01*
D15*
X119100000Y-115100000D02*
G75*
G03X119100000Y-115100000I-100000J0D01*
G01*
X119087500Y-107577500D02*
G75*
G03X119087500Y-107577500I-100000J0D01*
G01*
D13*
X120287500Y-107577500D02*
X119487500Y-107577500D01*
D11*
X122587500Y-107577500D02*
X121387500Y-107577500D01*
X118987500Y-110577500D02*
X120187500Y-110577500D01*
X122587500Y-110577500D02*
X121387500Y-110577500D01*
X118987500Y-108077500D02*
X118987500Y-110577500D01*
X122587500Y-110577500D02*
X122587500Y-107577500D01*
D13*
X106250000Y-123050000D02*
X106250000Y-119750000D01*
X109350000Y-120300000D02*
X109350000Y-119650000D01*
X109550000Y-120500000D02*
X109350000Y-120300000D01*
X109550000Y-123050000D02*
X109550000Y-120500000D01*
X106250000Y-123050000D02*
X106500000Y-123050000D01*
X109550000Y-123050000D02*
X109300000Y-123050000D01*
X106250000Y-119750000D02*
X106500000Y-119750000D01*
X119400000Y-78500000D02*
X119400000Y-78900000D01*
X118600000Y-78500000D02*
X118600000Y-78900000D01*
X119000000Y-78500000D02*
X119000000Y-78900000D01*
X119400000Y-81100000D02*
X119400000Y-81500000D01*
X118600000Y-81100000D02*
X118600000Y-81500000D01*
X119000000Y-81100000D02*
X119000000Y-81500000D01*
X108000000Y-82800000D02*
X108400000Y-82800000D01*
X108000000Y-83600000D02*
X108400000Y-83600000D01*
X108000000Y-83200000D02*
X108400000Y-83200000D01*
X110600000Y-83200000D02*
X111000000Y-83200000D01*
X110600000Y-83600000D02*
X111000000Y-83600000D01*
X110600000Y-82800000D02*
X111000000Y-82800000D01*
X119000000Y-76300000D02*
X119000000Y-75900000D01*
X119400000Y-76300000D02*
X119400000Y-75900000D01*
X118600000Y-76300000D02*
X118600000Y-75900000D01*
X110600000Y-84000000D02*
X111000000Y-84000000D01*
X110600000Y-84800000D02*
X111000000Y-84800000D01*
X110600000Y-84400000D02*
X111000000Y-84400000D01*
X125800000Y-104200000D02*
X125800000Y-104600000D01*
X125400000Y-104200000D02*
X125400000Y-104600000D01*
X126200000Y-104200000D02*
X126200000Y-104600000D01*
X121400000Y-104200000D02*
X121400000Y-104600000D01*
X120600000Y-104200000D02*
X120600000Y-104600000D01*
X121000000Y-104200000D02*
X121000000Y-104600000D01*
X121800000Y-104600000D02*
X121800000Y-104200000D01*
X122600000Y-104600000D02*
X122600000Y-104200000D01*
X122200000Y-104600000D02*
X122200000Y-104200000D01*
X118600000Y-104200000D02*
X118600000Y-104600000D01*
X118200000Y-104200000D02*
X118200000Y-104600000D01*
X119000000Y-104200000D02*
X119000000Y-104600000D01*
X122100000Y-62500000D02*
X122100000Y-62900000D01*
X121300000Y-62500000D02*
X121300000Y-62900000D01*
X121700000Y-62500000D02*
X121700000Y-62900000D01*
X122100000Y-65300000D02*
X122100000Y-65700000D01*
X121300000Y-65300000D02*
X121300000Y-65700000D01*
X121700000Y-65300000D02*
X121700000Y-65700000D01*
X123800000Y-104200000D02*
X123800000Y-104600000D01*
X123000000Y-104200000D02*
X123000000Y-104600000D01*
X123400000Y-104200000D02*
X123400000Y-104600000D01*
X119800000Y-104600000D02*
X119800000Y-104200000D01*
X120200000Y-104600000D02*
X120200000Y-104200000D01*
X119400000Y-104600000D02*
X119400000Y-104200000D01*
X124200000Y-104600000D02*
X124200000Y-104200000D01*
X125000000Y-104600000D02*
X125000000Y-104200000D01*
X124600000Y-104600000D02*
X124600000Y-104200000D01*
X95800000Y-103400000D02*
X96200000Y-103400000D01*
X95800000Y-103800000D02*
X96200000Y-103800000D01*
X95800000Y-103000000D02*
X96200000Y-103000000D01*
X101000000Y-86500000D02*
X101000000Y-86900000D01*
X100600000Y-86500000D02*
X100600000Y-86900000D01*
X101400000Y-86500000D02*
X101400000Y-86900000D01*
X118100000Y-62900000D02*
X118100000Y-62500000D01*
X118500000Y-62900000D02*
X118500000Y-62500000D01*
X117700000Y-62900000D02*
X117700000Y-62500000D01*
X118900000Y-62900000D02*
X118900000Y-62500000D01*
X119700000Y-62900000D02*
X119700000Y-62500000D01*
X119300000Y-62900000D02*
X119300000Y-62500000D01*
X120500000Y-62900000D02*
X120500000Y-62500000D01*
X120900000Y-62900000D02*
X120900000Y-62500000D01*
X120100000Y-62900000D02*
X120100000Y-62500000D01*
X103700000Y-97700000D02*
X104100000Y-97700000D01*
X103700000Y-98500000D02*
X104100000Y-98500000D01*
X103700000Y-98100000D02*
X104100000Y-98100000D01*
X96200000Y-99600000D02*
X95800000Y-99600000D01*
X96200000Y-99200000D02*
X95800000Y-99200000D01*
X96200000Y-100000000D02*
X95800000Y-100000000D01*
X96200000Y-89200000D02*
X95800000Y-89200000D01*
X96200000Y-88400000D02*
X95800000Y-88400000D01*
X96200000Y-88800000D02*
X95800000Y-88800000D01*
X103200000Y-103400000D02*
X103600000Y-103400000D01*
X103200000Y-103800000D02*
X103600000Y-103800000D01*
X103200000Y-103000000D02*
X103600000Y-103000000D01*
X103200000Y-101800000D02*
X103600000Y-101800000D01*
X103200000Y-102600000D02*
X103600000Y-102600000D01*
X103200000Y-102200000D02*
X103600000Y-102200000D01*
X101000000Y-125000000D02*
X101000000Y-124600000D01*
X101400000Y-125000000D02*
X101400000Y-124600000D01*
X100600000Y-125000000D02*
X100600000Y-124600000D01*
X107900000Y-108600000D02*
X108300000Y-108600000D01*
X107900000Y-109400000D02*
X108300000Y-109400000D01*
X107900000Y-109000000D02*
X108300000Y-109000000D01*
X105100000Y-104600000D02*
X105100000Y-104200000D01*
X105900000Y-104600000D02*
X105900000Y-104200000D01*
X105500000Y-104600000D02*
X105500000Y-104200000D01*
X113700000Y-107200000D02*
X113700000Y-106800000D01*
X114500000Y-107200000D02*
X114500000Y-106800000D01*
X114100000Y-107200000D02*
X114100000Y-106800000D01*
X110900000Y-109000000D02*
X111300000Y-109000000D01*
X110900000Y-109400000D02*
X111300000Y-109400000D01*
X110900000Y-108600000D02*
X111300000Y-108600000D01*
X105500000Y-107200000D02*
X105500000Y-106800000D01*
X105900000Y-107200000D02*
X105900000Y-106800000D01*
X105100000Y-107200000D02*
X105100000Y-106800000D01*
X113000000Y-76400000D02*
X113000000Y-76800000D01*
X112200000Y-76400000D02*
X112200000Y-76800000D01*
X112600000Y-76400000D02*
X112600000Y-76800000D01*
X116700000Y-83700000D02*
X116700000Y-84100000D01*
X116300000Y-83700000D02*
X116300000Y-84100000D01*
X117100000Y-83700000D02*
X117100000Y-84100000D01*
X115800000Y-83700000D02*
X115800000Y-84100000D01*
X115000000Y-83700000D02*
X115000000Y-84100000D01*
X115400000Y-83700000D02*
X115400000Y-84100000D01*
X98400000Y-108800000D02*
X98800000Y-108800000D01*
X98400000Y-109200000D02*
X98800000Y-109200000D01*
X98400000Y-108400000D02*
X98800000Y-108400000D01*
D11*
X126250000Y-64350000D02*
X126250000Y-62850000D01*
X126250000Y-62850000D02*
X123750000Y-62850000D01*
X123750000Y-62850000D02*
X123750000Y-64350000D01*
X123750000Y-64350000D02*
X126250000Y-64350000D01*
X125559017Y-63600000D02*
G75*
G03X125559017Y-63600000I-559017J0D01*
G01*
X126250000Y-63600000D02*
X126400000Y-63600000D01*
X123750000Y-63600000D02*
X123600000Y-63600000D01*
X123750000Y-67800000D02*
X123600000Y-67800000D01*
X126250000Y-67800000D02*
X126400000Y-67800000D01*
X125559017Y-67800000D02*
G75*
G03X125559017Y-67800000I-559017J0D01*
G01*
X123750000Y-68550000D02*
X126250000Y-68550000D01*
X123750000Y-67050000D02*
X123750000Y-68550000D01*
X126250000Y-67050000D02*
X123750000Y-67050000D01*
X126250000Y-68550000D02*
X126250000Y-67050000D01*
D13*
X117000000Y-108900000D02*
X117400000Y-108900000D01*
X117000000Y-109300000D02*
X117400000Y-109300000D01*
X117000000Y-108500000D02*
X117400000Y-108500000D01*
D10*
X119875000Y-81825000D02*
X119875000Y-78950000D01*
X123125000Y-81050000D02*
X123125000Y-78950000D01*
D11*
X103375000Y-77075000D02*
X103675000Y-77400000D01*
X103675000Y-77400000D02*
X103675000Y-77800000D01*
X103675000Y-75800000D02*
X103375000Y-75800000D01*
X103375000Y-75800000D02*
X103375000Y-76100000D01*
X105550000Y-77400000D02*
X105825000Y-77400000D01*
X105825000Y-77400000D02*
X105825000Y-77150000D01*
X105525000Y-75800000D02*
X105825000Y-75800000D01*
X105825000Y-75800000D02*
X105825000Y-76025000D01*
X110025000Y-75800000D02*
X110025000Y-76025000D01*
X109725000Y-75800000D02*
X110025000Y-75800000D01*
X110025000Y-77400000D02*
X110025000Y-77150000D01*
X109750000Y-77400000D02*
X110025000Y-77400000D01*
X107575000Y-75800000D02*
X107575000Y-76100000D01*
X107875000Y-75800000D02*
X107575000Y-75800000D01*
X107875000Y-77400000D02*
X107875000Y-77800000D01*
X107575000Y-77075000D02*
X107875000Y-77400000D01*
X100350000Y-91950000D02*
X100350000Y-91450000D01*
X100350000Y-91450000D02*
X99900000Y-91450000D01*
X99900000Y-91450000D02*
X99900000Y-90400000D01*
X94850000Y-91475000D02*
X95250000Y-91475000D01*
X94850000Y-91475000D02*
X94850000Y-91875000D01*
X94850000Y-96950000D02*
X94850000Y-96475000D01*
X94850000Y-96950000D02*
X95275000Y-96950000D01*
X100325000Y-96925000D02*
X100325000Y-96500000D01*
X100325000Y-96925000D02*
X99925000Y-96925000D01*
D13*
X103487500Y-93012500D02*
X103887500Y-93012500D01*
X103487500Y-95012500D02*
X103887500Y-95012500D01*
D15*
X102787500Y-95412500D02*
G75*
G03X102787500Y-95412500I-100000J0D01*
G01*
D13*
X97350000Y-124650000D02*
X97200000Y-124650000D01*
X97200000Y-124650000D02*
X97200000Y-124250000D01*
X97350000Y-121350000D02*
X97200000Y-121350000D01*
X97200000Y-121350000D02*
X97200000Y-121750000D01*
X99850000Y-121350000D02*
X100000000Y-121350000D01*
X100000000Y-121350000D02*
X100000000Y-121750000D01*
X99850000Y-124650000D02*
X100150000Y-124650000D01*
X109800000Y-108160000D02*
X111750000Y-108160000D01*
X109800000Y-108160000D02*
X107850000Y-108160000D01*
X109800000Y-103040000D02*
X111750000Y-103040000D01*
X109800000Y-103040000D02*
X106350000Y-103040000D01*
X100710000Y-107200000D02*
X100710000Y-105400000D01*
X97490000Y-105400000D02*
X97490000Y-107850000D01*
X100200000Y-83700000D02*
X100200000Y-83100000D01*
X101800000Y-83720000D02*
X101800000Y-83120000D01*
X117460000Y-101740000D02*
X115340000Y-101740000D01*
X117460000Y-105800000D02*
X117460000Y-101740000D01*
X115340000Y-105800000D02*
X115340000Y-101740000D01*
X117460000Y-105800000D02*
X115340000Y-105800000D01*
X117460000Y-106800000D02*
X117460000Y-107860000D01*
X117460000Y-107860000D02*
X116400000Y-107860000D01*
X95400000Y-124900000D02*
X95400000Y-124500000D01*
X96200000Y-124900000D02*
X96200000Y-124500000D01*
X95600000Y-124700000D02*
X96000000Y-124700000D01*
X96000000Y-122100000D02*
X95600000Y-122100000D01*
X95400000Y-121900000D02*
X95400000Y-122300000D01*
X96200000Y-121900000D02*
X96200000Y-122300000D01*
X123740000Y-117260000D02*
X127860000Y-117260000D01*
X123740000Y-111200000D02*
X123740000Y-117260000D01*
X127860000Y-109140000D02*
X127860000Y-117260000D01*
X123740000Y-111200000D02*
X125800000Y-111200000D01*
X125800000Y-111200000D02*
X125800000Y-109140000D01*
X125800000Y-109140000D02*
X127860000Y-109140000D01*
X123740000Y-110200000D02*
X123740000Y-109140000D01*
X123740000Y-109140000D02*
X124800000Y-109140000D01*
D10*
X114685714Y-73666666D02*
X115161904Y-73666666D01*
X114590476Y-73952380D02*
X114923809Y-72952380D01*
X115257142Y-73952380D01*
X116114285Y-73952380D02*
X115542857Y-73952380D01*
X115828571Y-73952380D02*
X115828571Y-72952380D01*
X115733333Y-73095238D01*
X115638095Y-73190476D01*
X115542857Y-73238095D01*
X115966666Y-123952380D02*
X115966666Y-124666666D01*
X115919047Y-124809523D01*
X115823809Y-124904761D01*
X115680952Y-124952380D01*
X115585714Y-124952380D01*
X116871428Y-123952380D02*
X116680952Y-123952380D01*
X116585714Y-124000000D01*
X116538095Y-124047619D01*
X116442857Y-124190476D01*
X116395238Y-124380952D01*
X116395238Y-124761904D01*
X116442857Y-124857142D01*
X116490476Y-124904761D01*
X116585714Y-124952380D01*
X116776190Y-124952380D01*
X116871428Y-124904761D01*
X116919047Y-124857142D01*
X116966666Y-124761904D01*
X116966666Y-124523809D01*
X116919047Y-124428571D01*
X116871428Y-124380952D01*
X116776190Y-124333333D01*
X116585714Y-124333333D01*
X116490476Y-124380952D01*
X116442857Y-124428571D01*
X116395238Y-124523809D01*
X109838095Y-127342857D02*
X111361904Y-127342857D01*
X109838095Y-122142857D02*
X111361904Y-122142857D01*
X110600000Y-122904761D02*
X110600000Y-121380952D01*
X103357142Y-114542857D02*
X103404761Y-114590476D01*
X103452380Y-114733333D01*
X103452380Y-114828571D01*
X103404761Y-114971428D01*
X103309523Y-115066666D01*
X103214285Y-115114285D01*
X103023809Y-115161904D01*
X102880952Y-115161904D01*
X102690476Y-115114285D01*
X102595238Y-115066666D01*
X102500000Y-114971428D01*
X102452380Y-114828571D01*
X102452380Y-114733333D01*
X102500000Y-114590476D01*
X102547619Y-114542857D01*
X102547619Y-114161904D02*
X102500000Y-114114285D01*
X102452380Y-114019047D01*
X102452380Y-113780952D01*
X102500000Y-113685714D01*
X102547619Y-113638095D01*
X102642857Y-113590476D01*
X102738095Y-113590476D01*
X102880952Y-113638095D01*
X103452380Y-114209523D01*
X103452380Y-113590476D01*
X103452380Y-113114285D02*
X103452380Y-112923809D01*
X103404761Y-112828571D01*
X103357142Y-112780952D01*
X103214285Y-112685714D01*
X103023809Y-112638095D01*
X102642857Y-112638095D01*
X102547619Y-112685714D01*
X102500000Y-112733333D01*
X102452380Y-112828571D01*
X102452380Y-113019047D01*
X102500000Y-113114285D01*
X102547619Y-113161904D01*
X102642857Y-113209523D01*
X102880952Y-113209523D01*
X102976190Y-113161904D01*
X103023809Y-113114285D01*
X103071428Y-113019047D01*
X103071428Y-112828571D01*
X103023809Y-112733333D01*
X102976190Y-112685714D01*
X102880952Y-112638095D01*
X116457142Y-114642857D02*
X116504761Y-114690476D01*
X116552380Y-114833333D01*
X116552380Y-114928571D01*
X116504761Y-115071428D01*
X116409523Y-115166666D01*
X116314285Y-115214285D01*
X116123809Y-115261904D01*
X115980952Y-115261904D01*
X115790476Y-115214285D01*
X115695238Y-115166666D01*
X115600000Y-115071428D01*
X115552380Y-114928571D01*
X115552380Y-114833333D01*
X115600000Y-114690476D01*
X115647619Y-114642857D01*
X115552380Y-114309523D02*
X115552380Y-113690476D01*
X115933333Y-114023809D01*
X115933333Y-113880952D01*
X115980952Y-113785714D01*
X116028571Y-113738095D01*
X116123809Y-113690476D01*
X116361904Y-113690476D01*
X116457142Y-113738095D01*
X116504761Y-113785714D01*
X116552380Y-113880952D01*
X116552380Y-114166666D01*
X116504761Y-114261904D01*
X116457142Y-114309523D01*
X115552380Y-113071428D02*
X115552380Y-112976190D01*
X115600000Y-112880952D01*
X115647619Y-112833333D01*
X115742857Y-112785714D01*
X115933333Y-112738095D01*
X116171428Y-112738095D01*
X116361904Y-112785714D01*
X116457142Y-112833333D01*
X116504761Y-112880952D01*
X116552380Y-112976190D01*
X116552380Y-113071428D01*
X116504761Y-113166666D01*
X116457142Y-113214285D01*
X116361904Y-113261904D01*
X116171428Y-113309523D01*
X115933333Y-113309523D01*
X115742857Y-113261904D01*
X115647619Y-113214285D01*
X115600000Y-113166666D01*
X115552380Y-113071428D01*
X114666666Y-61952380D02*
X114666666Y-62666666D01*
X114619047Y-62809523D01*
X114523809Y-62904761D01*
X114380952Y-62952380D01*
X114285714Y-62952380D01*
X115095238Y-62047619D02*
X115142857Y-62000000D01*
X115238095Y-61952380D01*
X115476190Y-61952380D01*
X115571428Y-62000000D01*
X115619047Y-62047619D01*
X115666666Y-62142857D01*
X115666666Y-62238095D01*
X115619047Y-62380952D01*
X115047619Y-62952380D01*
X115666666Y-62952380D01*
X125136666Y-82322380D02*
X125136666Y-83036666D01*
X125089047Y-83179523D01*
X124993809Y-83274761D01*
X124850952Y-83322380D01*
X124755714Y-83322380D01*
X125517619Y-82322380D02*
X126136666Y-82322380D01*
X125803333Y-82703333D01*
X125946190Y-82703333D01*
X126041428Y-82750952D01*
X126089047Y-82798571D01*
X126136666Y-82893809D01*
X126136666Y-83131904D01*
X126089047Y-83227142D01*
X126041428Y-83274761D01*
X125946190Y-83322380D01*
X125660476Y-83322380D01*
X125565238Y-83274761D01*
X125517619Y-83227142D01*
X102066666Y-79852380D02*
X102066666Y-80566666D01*
X102019047Y-80709523D01*
X101923809Y-80804761D01*
X101780952Y-80852380D01*
X101685714Y-80852380D01*
X103019047Y-79852380D02*
X102542857Y-79852380D01*
X102495238Y-80328571D01*
X102542857Y-80280952D01*
X102638095Y-80233333D01*
X102876190Y-80233333D01*
X102971428Y-80280952D01*
X103019047Y-80328571D01*
X103066666Y-80423809D01*
X103066666Y-80661904D01*
X103019047Y-80757142D01*
X102971428Y-80804761D01*
X102876190Y-80852380D01*
X102638095Y-80852380D01*
X102542857Y-80804761D01*
X102495238Y-80757142D01*
D11*
X124088616Y-82053023D02*
X124088616Y-81051603D01*
X124422423Y-81766903D01*
X124756230Y-81051603D01*
X124756230Y-82053023D01*
X125233096Y-82053023D02*
X125233096Y-81051603D01*
X125805336Y-82053023D02*
X125376156Y-81480783D01*
X125805336Y-81051603D02*
X125233096Y-81623843D01*
X126759070Y-82053023D02*
X126186830Y-82053023D01*
X126472950Y-82053023D02*
X126472950Y-81051603D01*
X126377576Y-81194663D01*
X126282203Y-81290036D01*
X126186830Y-81337723D01*
X123316797Y-76768378D02*
X124078702Y-76768378D01*
X123697750Y-77149330D02*
X123697750Y-76387426D01*
D10*
X117652380Y-108185714D02*
X117652380Y-107614285D01*
X118652380Y-107900000D02*
X117652380Y-107900000D01*
X118652380Y-107280952D02*
X117652380Y-107280952D01*
X118128571Y-107280952D02*
X118128571Y-106709523D01*
X118652380Y-106709523D02*
X117652380Y-106709523D01*
X118652380Y-105709523D02*
X118652380Y-106280952D01*
X118652380Y-105995238D02*
X117652380Y-105995238D01*
X117795238Y-106090476D01*
X117890476Y-106185714D01*
X117938095Y-106280952D01*
X96838095Y-93652380D02*
X96838095Y-94461904D01*
X96885714Y-94557142D01*
X96933333Y-94604761D01*
X97028571Y-94652380D01*
X97219047Y-94652380D01*
X97314285Y-94604761D01*
X97361904Y-94557142D01*
X97409523Y-94461904D01*
X97409523Y-93652380D01*
X98361904Y-93652380D02*
X97885714Y-93652380D01*
X97838095Y-94128571D01*
X97885714Y-94080952D01*
X97980952Y-94033333D01*
X98219047Y-94033333D01*
X98314285Y-94080952D01*
X98361904Y-94128571D01*
X98409523Y-94223809D01*
X98409523Y-94461904D01*
X98361904Y-94557142D01*
X98314285Y-94604761D01*
X98219047Y-94652380D01*
X97980952Y-94652380D01*
X97885714Y-94604761D01*
X97838095Y-94557142D01*
X109138095Y-105052380D02*
X109138095Y-105861904D01*
X109185714Y-105957142D01*
X109233333Y-106004761D01*
X109328571Y-106052380D01*
X109519047Y-106052380D01*
X109614285Y-106004761D01*
X109661904Y-105957142D01*
X109709523Y-105861904D01*
X109709523Y-105052380D01*
X110233333Y-106052380D02*
X110423809Y-106052380D01*
X110519047Y-106004761D01*
X110566666Y-105957142D01*
X110661904Y-105814285D01*
X110709523Y-105623809D01*
X110709523Y-105242857D01*
X110661904Y-105147619D01*
X110614285Y-105100000D01*
X110519047Y-105052380D01*
X110328571Y-105052380D01*
X110233333Y-105100000D01*
X110185714Y-105147619D01*
X110138095Y-105242857D01*
X110138095Y-105480952D01*
X110185714Y-105576190D01*
X110233333Y-105623809D01*
X110328571Y-105671428D01*
X110519047Y-105671428D01*
X110614285Y-105623809D01*
X110661904Y-105576190D01*
X110709523Y-105480952D01*
X102061904Y-82852380D02*
X102061904Y-83661904D01*
X102109523Y-83757142D01*
X102157142Y-83804761D01*
X102252380Y-83852380D01*
X102442857Y-83852380D01*
X102538095Y-83804761D01*
X102585714Y-83757142D01*
X102633333Y-83661904D01*
X102633333Y-82852380D01*
X103061904Y-83804761D02*
X103204761Y-83852380D01*
X103442857Y-83852380D01*
X103538095Y-83804761D01*
X103585714Y-83757142D01*
X103633333Y-83661904D01*
X103633333Y-83566666D01*
X103585714Y-83471428D01*
X103538095Y-83423809D01*
X103442857Y-83376190D01*
X103252380Y-83328571D01*
X103157142Y-83280952D01*
X103109523Y-83233333D01*
X103061904Y-83138095D01*
X103061904Y-83042857D01*
X103109523Y-82947619D01*
X103157142Y-82900000D01*
X103252380Y-82852380D01*
X103490476Y-82852380D01*
X103633333Y-82900000D01*
X104633333Y-83852380D02*
X104300000Y-83376190D01*
X104061904Y-83852380D02*
X104061904Y-82852380D01*
X104442857Y-82852380D01*
X104538095Y-82900000D01*
X104585714Y-82947619D01*
X104633333Y-83042857D01*
X104633333Y-83185714D01*
X104585714Y-83280952D01*
X104538095Y-83328571D01*
X104442857Y-83376190D01*
X104061904Y-83376190D01*
X105585714Y-83852380D02*
X105014285Y-83852380D01*
X105300000Y-83852380D02*
X105300000Y-82852380D01*
X105204761Y-82995238D01*
X105109523Y-83090476D01*
X105014285Y-83138095D01*
X115566666Y-100452380D02*
X115566666Y-101166666D01*
X115519047Y-101309523D01*
X115423809Y-101404761D01*
X115280952Y-101452380D01*
X115185714Y-101452380D01*
X116042857Y-101452380D02*
X116042857Y-100452380D01*
X116423809Y-100452380D01*
X116519047Y-100500000D01*
X116566666Y-100547619D01*
X116614285Y-100642857D01*
X116614285Y-100785714D01*
X116566666Y-100880952D01*
X116519047Y-100928571D01*
X116423809Y-100976190D01*
X116042857Y-100976190D01*
X117566666Y-101452380D02*
X116995238Y-101452380D01*
X117280952Y-101452380D02*
X117280952Y-100452380D01*
X117185714Y-100595238D01*
X117090476Y-100690476D01*
X116995238Y-100738095D01*
X125466666Y-107592380D02*
X125466666Y-108306666D01*
X125419047Y-108449523D01*
X125323809Y-108544761D01*
X125180952Y-108592380D01*
X125085714Y-108592380D01*
X126466666Y-108592380D02*
X125895238Y-108592380D01*
X126180952Y-108592380D02*
X126180952Y-107592380D01*
X126085714Y-107735238D01*
X125990476Y-107830476D01*
X125895238Y-107878095D01*
M02*
