M48
; DRILL file {KiCad (5.1.2)-1} date 07/28/19 18:03:23
; FORMAT={-:-/ absolute / metric / decimal}
; #@! TF.CreationDate,2019-07-28T18:03:23+02:00
; #@! TF.GenerationSoftware,Kicad,Pcbnew,(5.1.2)-1
; #@! TF.FileFunction,Plated,1,4,PTH
FMAT,2
METRIC
T1C0.350
T2C0.500
T3C0.550
T4C0.600
T5C0.800
T6C1.000
T7C2.000
T8C2.500
%
G90
G05
T1
X95.0Y-122.9
X95.3Y-109.7
X95.3Y-117.4
X95.3Y-118.8
X95.7Y-91.9
X95.9Y-105.799
X95.963Y-107.091
X96.0Y-100.5
X96.2Y-117.4
X96.2Y-118.8
X96.3Y-109.7
X96.3Y-123.0
X96.8Y-121.7
X96.8Y-122.3
X96.8Y-123.7
X96.8Y-124.3
X96.9Y-109.7
X97.0Y-96.5
X97.1Y-117.4
X97.1Y-118.8
X97.2Y-128.5
X97.5Y-109.7
X97.5Y-122.4
X97.5Y-123.6
X98.0Y-128.5
X98.1Y-109.7
X98.1Y-117.4
X98.1Y-118.8
X98.2Y-122.4
X98.2Y-123.6
X98.4Y-100.4
X98.958Y-123.351
X99.0Y-117.4
X99.0Y-118.8
X99.066Y-122.482
X99.1Y-106.4
X99.1Y-128.5
X99.279Y-93.079
X99.3Y-100.5
X99.4Y-104.1
X99.8Y-101.6
X99.8Y-102.4
X99.9Y-117.4
X99.9Y-118.8
X99.9Y-128.5
X100.0Y-124.4
X100.4Y-61.8
X100.5Y-88.4
X100.5Y-91.2
X100.6Y-65.0
X100.6Y-101.6
X100.6Y-102.4
X101.0Y-120.1
X101.125Y-105.0
X101.2Y-58.4
X101.2Y-60.0
X101.2Y-108.8
X101.7Y-96.4
X101.8Y-58.4
X101.8Y-60.0
X101.8Y-93.0
X101.8Y-106.1
X101.9Y-98.9
X101.9Y-80.7
X101.9Y-109.1
X102.2Y-63.0
X102.3Y-90.7
X102.4Y-58.4
X102.4Y-60.0
X102.6Y-75.0
X102.6Y-78.3
X102.775Y-108.4
X102.8Y-67.2
X102.8Y-106.2
X103.0Y-58.4
X103.0Y-60.0
X103.1Y-85.1
X103.1Y-88.7
X103.3Y-101.3
X103.4Y-78.4
X103.6Y-109.4
X103.6Y-110.2
X103.6Y-111.0
X103.6Y-111.8
X103.6Y-112.6
X103.8Y-96.4
X103.9Y-73.3
X103.9Y-85.2
X104.1Y-101.3
X104.3Y-69.1
X104.5Y-105.1
X104.6Y-78.3
X104.6Y-88.6
X104.675Y-72.7
X104.7Y-85.0
X104.7Y-89.8
X104.729Y-73.571
X104.8Y-68.0
X105.181Y-69.576
X105.2Y-101.2
X105.4Y-125.4
X105.421Y-85.206
X105.5Y-92.1
X105.5Y-94.6
X105.8Y-102.8
X105.8Y-120.0
X105.897Y-78.984
X106.0Y-78.2
X106.0Y-96.1
X106.1Y-93.0
X106.1Y-94.104
X106.2Y-91.7
X106.275Y-94.875
X106.3Y-85.4
X106.3Y-89.0
X106.3Y-90.0
X106.5Y-83.75
X106.5Y-84.5
X106.7Y-78.8
X106.8Y-80.1
X107.259Y-77.341
X107.3Y-97.4
X107.6Y-100.8
X107.9Y-80.1
X108.0Y-111.6
X108.079Y-85.494
X108.1Y-76.9
X108.7Y-97.4
X108.8Y-78.3
X108.8Y-85.7
X108.8Y-102.0
X108.8Y-105.0
X109.1Y-107.3
X109.2Y-101.2
X109.582Y-86.3
X109.6Y-78.7
X110.2Y-98.8
X110.2Y-100.8
X110.4Y-79.5
X110.525Y-103.4
X110.8Y-76.55
X110.8Y-78.2
X110.8Y-105.0
X110.8Y-106.2
X111.0Y-107.0
X111.0Y-112.2
X111.025Y-86.1
X111.029Y-102.529
X111.6Y-85.3
X111.8Y-109.9
X111.975Y-101.5
X112.7Y-78.2
X112.73Y-97.27
X113.0Y-79.9
X113.0Y-86.2
X113.2Y-101.2
X113.25Y-83.75
X113.375Y-97.7
X113.9Y-85.5
X114.0Y-67.2
X114.32Y-98.725
X114.6Y-68.7
X114.9Y-105.5
X115.0Y-97.6
X115.5Y-70.4
X115.6Y-109.6
X115.6Y-110.4
X115.6Y-111.2
X115.6Y-112.0
X115.6Y-112.7
X115.775Y-69.5
X115.857Y-80.414
X116.132Y-86.1
X116.5Y-80.8
X116.6Y-85.5
X117.2Y-95.1
X117.275Y-78.3
X117.3Y-90.275
X117.3Y-110.1
X117.533Y-68.433
X117.6Y-69.3
X117.6Y-72.5
X117.605Y-89.59
X117.8Y-106.4
X117.9Y-110.1
X118.0Y-108.0
X118.15Y-92.604
X118.4Y-111.6
X118.4Y-112.2
X118.4Y-112.8
X118.4Y-113.4
X118.4Y-114.0
X118.4Y-114.6
X118.4Y-115.2
X118.4Y-115.8
X118.4Y-116.4
X118.4Y-117.2
X118.4Y-117.8
X118.4Y-118.4
X118.5Y-110.1
X118.6Y-106.1
X118.9Y-87.8
X118.9Y-90.3
X118.9Y-95.0
X119.0Y-85.4
X119.2Y-106.725
X119.3Y-65.1
X119.4Y-118.3
X119.6Y-81.4
X119.8Y-102.8
X119.8Y-110.7
X120.0Y-97.5
X120.1Y-92.7
X120.2Y-85.4
X120.3Y-82.3
X120.6Y-87.0
X120.891Y-83.863
X121.3Y-88.7
X121.3Y-91.2
X121.4Y-75.8
X121.4Y-85.4
X121.5Y-80.0
X121.575Y-77.65
X121.791Y-93.866
X121.8Y-107.55
X121.9Y-92.7
X122.2Y-102.8
X122.275Y-87.0
X122.4Y-77.65
X122.639Y-115.039
X122.9Y-116.2
X123.1Y-109.5
X123.1Y-110.1
X123.1Y-110.7
X123.2Y-115.6
X123.3Y-81.5
X123.578Y-116.178
X124.6Y-102.8
X124.6Y-106.0
X125.5Y-82.6
X125.5Y-99.3
X125.9Y-63.6
X125.9Y-67.7
X126.0Y-106.2
X127.0Y-102.8
X108.643Y-88.614
X108.643Y-89.686
X108.643Y-90.757
X108.643Y-91.829
X108.643Y-92.9
X108.643Y-93.971
X108.643Y-95.043
X109.714Y-88.614
X109.714Y-89.686
X109.714Y-90.757
X109.714Y-91.829
X109.714Y-92.9
X109.714Y-93.971
X109.714Y-95.043
X110.786Y-88.614
X110.786Y-89.686
X110.786Y-90.757
X110.786Y-91.829
X110.786Y-92.9
X110.786Y-93.971
X110.786Y-95.043
X111.857Y-88.614
X111.857Y-89.686
X111.857Y-90.757
X111.857Y-91.829
X111.857Y-92.9
X111.857Y-93.971
X111.857Y-95.043
X112.929Y-88.614
X112.929Y-89.686
X112.929Y-90.757
X112.929Y-91.829
X112.929Y-92.9
X112.929Y-93.971
X112.929Y-95.043
X114.0Y-88.614
X114.0Y-89.686
X114.0Y-90.757
X114.0Y-91.829
X114.0Y-92.9
X114.0Y-93.971
X114.0Y-95.043
X115.071Y-88.614
X115.071Y-89.686
X115.071Y-90.757
X115.071Y-91.829
X115.071Y-92.9
X115.071Y-93.971
X115.071Y-95.043
T2
X100.8Y-75.4
X100.8Y-76.4
X100.8Y-77.4
X100.8Y-78.4
X100.8Y-79.4
X100.8Y-80.4
T4
X124.9Y-78.3
X124.9Y-79.7
T5
X124.8Y-114.2
X124.8Y-116.2
X126.8Y-112.2
X126.8Y-114.2
X126.8Y-116.2
X116.4Y-102.8
X116.4Y-104.8
X116.4Y-106.8
T6
X124.2Y-85.2
X124.2Y-87.74
X124.2Y-90.28
X124.2Y-92.82
X124.2Y-95.36
X124.2Y-97.9
X124.2Y-100.44
X126.74Y-85.2
X126.74Y-87.74
X126.74Y-90.28
X126.74Y-92.82
X126.74Y-95.36
X126.74Y-97.9
X126.74Y-100.44
X124.8Y-110.2
X124.8Y-112.2
X126.8Y-110.2
X104.92Y-57.46
X104.92Y-60.0
X104.92Y-62.54
X107.46Y-57.46
X107.46Y-60.0
X107.46Y-62.54
X110.0Y-57.46
X110.0Y-60.0
X110.0Y-62.54
X112.54Y-57.46
X112.54Y-60.0
X112.54Y-62.54
X115.08Y-57.46
X115.08Y-60.0
X117.62Y-57.46
X117.62Y-60.0
X120.16Y-57.46
X120.16Y-60.0
X122.7Y-57.46
X122.7Y-60.0
X125.24Y-57.46
X125.24Y-60.0
T7
X113.8Y-122.0
X113.8Y-127.0
X118.8Y-122.0
X118.8Y-127.0
T8
X125.25Y-73.0
X96.75Y-113.0
T2
G00X103.2Y-127.225
M15
G01X103.2Y-126.575
M16
G05
G00X110.2Y-127.225
M15
G01X110.2Y-126.575
M16
G05
T3
G00X104.35Y-124.2
M15
G01X104.05Y-124.2
M16
G05
G00X109.35Y-124.2
M15
G01X109.05Y-124.2
M16
G05
T0
M30
